<?xml version="1.0" encoding="utf-8"?>
<!-- Generator: Adobe Illustrator 17.0.0, SVG Export Plug-In . SVG Version: 6.00 Build 0)  -->
<!DOCTYPE svg PUBLIC "-//W3C//DTD SVG 1.1//EN" "http://www.w3.org/Graphics/SVG/1.1/DTD/svg11.dtd" [
	<!ENTITY ns_extend "http://ns.adobe.com/Extensibility/1.0/">
	<!ENTITY ns_ai "http://ns.adobe.com/AdobeIllustrator/10.0/">
	<!ENTITY ns_graphs "http://ns.adobe.com/Graphs/1.0/">
	<!ENTITY ns_vars "http://ns.adobe.com/Variables/1.0/">
	<!ENTITY ns_imrep "http://ns.adobe.com/ImageReplacement/1.0/">
	<!ENTITY ns_sfw "http://ns.adobe.com/SaveForWeb/1.0/">
	<!ENTITY ns_custom "http://ns.adobe.com/GenericCustomNamespace/1.0/">
	<!ENTITY ns_adobe_xpath "http://ns.adobe.com/XPath/1.0/">
]>
<svg version="1.1" id="Layer_3" xmlns:x="&ns_extend;" xmlns:i="&ns_ai;" xmlns:graph="&ns_graphs;"
	 xmlns="http://www.w3.org/2000/svg" xmlns:xlink="http://www.w3.org/1999/xlink" x="0px" y="0px" width="137.619px"
	 height="132.352px" viewBox="0 0 137.619 132.352" enable-background="new 0 0 137.619 132.352" xml:space="preserve">
<metadata>
	<sfw  xmlns="&ns_sfw;">
		<slices></slices>
		<sliceSourceBounds  height="130.23" width="16383" bottomLeftOrigin="true" y="-23.918" x="-8370.81"></sliceSourceBounds>
	</sfw>
</metadata>
<g>
	<circle fill="#C75C5C" cx="68.615" cy="65.479" r="65.115"/>
</g>
<g opacity="0.2">
	<path fill="#231F20" d="M97.103,102.107h-4.069c0-1.506,0-4.004,0-8.139c0-9.242-6.105-15.035-6.105-15.035
		s-6.055-5.793-7.916-7.574c-1.861-1.781,0-3.618,0-3.618s2.727-2.61,8.492-8.125c5.765-5.515,5.528-13.551,5.528-13.551
		l0.001-10.429L68.615,33.6l-24.42,2.035l0.001,10.429c0,0-0.236,8.036,5.528,13.551c5.765,5.516,8.492,8.125,8.492,8.125
		s1.861,1.837,0,3.618c-1.861,1.781-7.916,7.574-7.916,7.574s-6.105,5.794-6.105,15.035c0,4.135,0,6.633,0,8.139h-4.069
		c-2.248,0-4.07,1.822-4.07,4.07c0,2.248,1.822,4.07,4.07,4.07h56.976c2.248,0,4.07-1.822,4.07-4.07
		C101.173,103.929,99.35,102.107,97.103,102.107z"/>
</g>
<g>
	<path fill="#FFFFFF" d="M86.929,74.862c0,0-6.055-5.793-7.916-7.574c-1.861-1.781,0-3.618,0-3.618s2.727-2.61,8.492-8.125
		c5.765-5.515,5.528-13.551,5.528-13.551l0.001-10.429l-24.42-2.035l-24.42,2.035l0.001,10.429c0,0-0.236,8.036,5.528,13.551
		c5.765,5.516,8.492,8.125,8.492,8.125s1.861,1.837,0,3.618c-1.861,1.781-7.916,7.574-7.916,7.574s-6.105,5.794-6.105,15.035
		c0,9.242-0.001,10.344-0.001,10.344h24.42h24.42c0,0-0.001-1.102-0.001-10.344C93.033,80.656,86.929,74.862,86.929,74.862z"/>
</g>
<g>
	<path fill="#4F5D73" d="M66.58,87.863l0.063-22.383c0.033-4.193-1.938-6.842-2.708-7.602l-8.584-8.213
		c-2.914-2.789-3.02-7.387-3.019-7.431h16.283h16.283c0,0,0-0.001-0.001-0.001c-0.002,0-0.048,4.589-3.019,7.432l-8.491,8.124
		c-0.861,0.85-2.77,3.498-2.737,7.691l0.001,22.383H66.58z"/>
</g>
<g opacity="0.3">
	<path fill="#231F20" d="M101.173,32.922c0,2.248-1.822,4.07-4.07,4.07H40.127c-2.248,0-4.07-1.822-4.07-4.07l0,0
		c0-2.248,1.822-4.07,4.07-4.07h56.976C99.35,28.852,101.173,30.674,101.173,32.922L101.173,32.922z"/>
</g>
<g>
	<path fill="#F5CF87" d="M101.173,28.852c0,2.248-1.822,4.07-4.07,4.07H40.127c-2.248,0-4.07-1.822-4.07-4.07l0,0
		c0-2.248,1.822-4.07,4.07-4.07h56.976C99.35,24.782,101.173,26.604,101.173,28.852L101.173,28.852z"/>
</g>
<g>
	<polygon fill="#4F5D73" points="86.929,98.037 86.929,98.037 50.301,98.037 50.301,98.037 68.615,81.758 	"/>
</g>
</svg>
