<?xml version="1.0" encoding="utf-8"?>
<!-- Generator: Adobe Illustrator 17.0.0, SVG Export Plug-In . SVG Version: 6.00 Build 0)  -->
<!DOCTYPE svg PUBLIC "-//W3C//DTD SVG 1.1//EN" "http://www.w3.org/Graphics/SVG/1.1/DTD/svg11.dtd" [
	<!ENTITY ns_extend "http://ns.adobe.com/Extensibility/1.0/">
	<!ENTITY ns_ai "http://ns.adobe.com/AdobeIllustrator/10.0/">
	<!ENTITY ns_graphs "http://ns.adobe.com/Graphs/1.0/">
	<!ENTITY ns_vars "http://ns.adobe.com/Variables/1.0/">
	<!ENTITY ns_imrep "http://ns.adobe.com/ImageReplacement/1.0/">
	<!ENTITY ns_sfw "http://ns.adobe.com/SaveForWeb/1.0/">
	<!ENTITY ns_custom "http://ns.adobe.com/GenericCustomNamespace/1.0/">
	<!ENTITY ns_adobe_xpath "http://ns.adobe.com/XPath/1.0/">
]>
<svg version="1.1" id="Layer_2" xmlns:x="&ns_extend;" xmlns:i="&ns_ai;" xmlns:graph="&ns_graphs;"
	 xmlns="http://www.w3.org/2000/svg" xmlns:xlink="http://www.w3.org/1999/xlink" x="0px" y="0px" width="137.619px"
	 height="132.352px" viewBox="0 0 137.619 132.352" enable-background="new 0 0 137.619 132.352" xml:space="preserve">
<metadata>
	<sfw  xmlns="&ns_sfw;">
		<slices></slices>
		<sliceSourceBounds  height="130.721" width="130.721" bottomLeftOrigin="true" y="-25.015" x="-25.62"></sliceSourceBounds>
	</sfw>
</metadata>
<g>
	<circle fill="#E0E0D1" cx="69.05" cy="66.33" r="65.36"/>
</g>
<g opacity="0.2">
	<g>
		<path fill="#231F20" d="M101.397,35.695c-0.045,0-0.091,0-0.136,0c-0.04,0-0.076-0.005-0.116,0H69.472
			c-0.771,0.035-2.524,1.24-2.751,1.467L29.673,74.224c-1.965,1.965-1.965,5.151,0,7.116l28.444,28.454
			c0.987,0.983,2.272,1.472,3.557,1.472s2.574-0.489,3.557-1.472l37.048-37.062c0.227-0.227,1.491-1.784,1.491-2.752V38.195
			C103.84,36.789,102.777,35.695,101.397,35.695z M93.56,49.99c-2.255,0-4.085-1.83-4.085-4.085c0-2.255,1.83-4.085,4.085-4.085
			c2.255,0,4.085,1.83,4.085,4.085C97.645,48.16,95.815,49.99,93.56,49.99z"/>
	</g>
</g>
<g>
	<g>
		<path fill="#C75C5C" d="M101.397,31.61c-0.045,0-0.091,0-0.136,0c-0.04,0-0.076-0.005-0.116,0H69.472
			c-0.771,0.035-2.524,1.24-2.751,1.467L29.673,70.139c-1.965,1.965-1.965,5.151,0,7.116l28.444,28.454
			c0.987,0.983,2.272,1.472,3.557,1.472s2.574-0.489,3.557-1.472l37.048-37.062c0.227-0.227,1.491-1.784,1.491-2.752V34.11
			C103.84,32.704,102.777,31.61,101.397,31.61z M93.56,45.905c-2.255,0-4.085-1.83-4.085-4.085s1.83-4.085,4.085-4.085
			c2.255,0,4.085,1.83,4.085,4.085S95.815,45.905,93.56,45.905z"/>
	</g>
</g>
</svg>
