<?xml version="1.0" encoding="utf-8"?>
<!-- Generator: Adobe Illustrator 17.0.0, SVG Export Plug-In . SVG Version: 6.00 Build 0)  -->
<!DOCTYPE svg PUBLIC "-//W3C//DTD SVG 1.1//EN" "http://www.w3.org/Graphics/SVG/1.1/DTD/svg11.dtd" [
	<!ENTITY ns_extend "http://ns.adobe.com/Extensibility/1.0/">
	<!ENTITY ns_ai "http://ns.adobe.com/AdobeIllustrator/10.0/">
	<!ENTITY ns_graphs "http://ns.adobe.com/Graphs/1.0/">
	<!ENTITY ns_vars "http://ns.adobe.com/Variables/1.0/">
	<!ENTITY ns_imrep "http://ns.adobe.com/ImageReplacement/1.0/">
	<!ENTITY ns_sfw "http://ns.adobe.com/SaveForWeb/1.0/">
	<!ENTITY ns_custom "http://ns.adobe.com/GenericCustomNamespace/1.0/">
	<!ENTITY ns_adobe_xpath "http://ns.adobe.com/XPath/1.0/">
]>
<svg version="1.1" id="Layer_2" xmlns:x="&ns_extend;" xmlns:i="&ns_ai;" xmlns:graph="&ns_graphs;"
	 xmlns="http://www.w3.org/2000/svg" xmlns:xlink="http://www.w3.org/1999/xlink" x="0px" y="0px" width="137.619px"
	 height="132.352px" viewBox="0 0 137.619 132.352" enable-background="new 0 0 137.619 132.352" xml:space="preserve">
<metadata>
	<sfw  xmlns="&ns_sfw;">
		<slices></slices>
		<sliceSourceBounds  height="131.979" width="131.979" bottomLeftOrigin="true" y="-25.303" x="-27.289"></sliceSourceBounds>
	</sfw>
</metadata>
<circle fill="#4F5D73" cx="68.01" cy="65.99" r="65.99"/>
<g opacity="0.2">
	<path fill="#231F20" d="M46.358,118.575c-1.709,0-3.093-1.385-3.093-3.093V32.995c0-1.709,1.385-3.093,3.093-3.093
		c1.709,0,3.093,1.385,3.093,3.093v82.487C49.451,117.19,48.066,118.575,46.358,118.575z"/>
</g>
<path opacity="0.2" fill="#231F20" d="M104.281,47.55l-11.524-2.305v0l-4.973-0.995l-7.864-1.573l-4.509-0.902l-12.373-2.475
	l-7.4-1.48v7.546v41.243v7.546l7.4-1.48l12.373-2.475l4.973-0.995v0l7.4-1.48l4.973-0.994v0l11.524-2.305
	c2.892-0.578,4.973-3.117,4.973-6.066V53.616C109.254,50.667,107.172,48.128,104.281,47.55z"/>
<line fill="none" stroke="#E0E0D1" stroke-width="3" stroke-linecap="round" stroke-miterlimit="10" x1="46.358" y1="111.357" x2="46.358" y2="28.87"/>
<g>
	<g>
		<polygon fill="#E0995E" points="58.731,37.47 77.29,41.183 77.29,82.547 58.731,86.26 		"/>
		<path fill="#E0995E" d="M61.824,41.243l12.373,2.475v36.294l-12.373,2.475V41.243 M55.637,33.697v7.546v41.243v7.546l7.4-1.48
			l12.373-2.475l4.973-0.995v-5.072V43.718v-5.072l-4.973-0.995l-12.373-2.475L55.637,33.697L55.637,33.697z"/>
	</g>
	<g>
		<path fill="#E0995E" d="M90.694,79.806c-0.709,0-1.404-0.244-1.962-0.701c-0.717-0.588-1.132-1.466-1.132-2.393V47.017
			c0-0.926,0.415-1.804,1.132-2.393c0.558-0.457,1.253-0.701,1.962-0.701c0.201,0,0.405,0.02,0.606,0.06l12.373,2.475
			c1.446,0.289,2.487,1.559,2.487,3.033v24.746c0,1.474-1.041,2.744-2.487,3.033L91.3,79.746
			C91.099,79.786,90.896,79.806,90.694,79.806z"/>
		<path fill="#E0995E" d="M90.694,47.018l12.373,2.475v24.746l-12.373,2.475V47.018 M90.694,40.831
			c-1.418,0-2.807,0.488-3.922,1.402c-1.433,1.175-2.264,2.931-2.264,4.784v29.695c0,1.853,0.831,3.609,2.264,4.784
			c1.115,0.914,2.504,1.402,3.922,1.402c0.404,0,0.81-0.04,1.213-0.12l12.373-2.475c2.892-0.578,4.973-3.117,4.973-6.066V49.492
			c0-2.949-2.082-5.488-4.973-6.066l-12.373-2.475C91.505,40.871,91.098,40.831,90.694,40.831L90.694,40.831z"/>
	</g>
	<g>
		<g>
			<polygon fill="#FFFFFF" points="75.228,40.77 89.663,43.656 89.663,80.074 75.228,82.96 			"/>
			<path fill="#FFFFFF" d="M78.321,44.543l8.249,1.65v31.345l-8.249,1.65V44.543 M72.135,36.997v7.546v34.644v7.546l7.4-1.48
				l8.249-1.65l4.973-0.995v-5.072V46.193v-5.072l-4.973-0.995l-8.249-1.65L72.135,36.997L72.135,36.997z"/>
		</g>
	</g>
</g>
</svg>
