<?xml version="1.0" encoding="utf-8"?>
<!-- Generator: Adobe Illustrator 17.0.0, SVG Export Plug-In . SVG Version: 6.00 Build 0)  -->
<!DOCTYPE svg PUBLIC "-//W3C//DTD SVG 1.1//EN" "http://www.w3.org/Graphics/SVG/1.1/DTD/svg11.dtd" [
	<!ENTITY ns_extend "http://ns.adobe.com/Extensibility/1.0/">
	<!ENTITY ns_ai "http://ns.adobe.com/AdobeIllustrator/10.0/">
	<!ENTITY ns_graphs "http://ns.adobe.com/Graphs/1.0/">
	<!ENTITY ns_vars "http://ns.adobe.com/Variables/1.0/">
	<!ENTITY ns_imrep "http://ns.adobe.com/ImageReplacement/1.0/">
	<!ENTITY ns_sfw "http://ns.adobe.com/SaveForWeb/1.0/">
	<!ENTITY ns_custom "http://ns.adobe.com/GenericCustomNamespace/1.0/">
	<!ENTITY ns_adobe_xpath "http://ns.adobe.com/XPath/1.0/">
]>
<svg version="1.1" id="Layer_2" xmlns:x="&ns_extend;" xmlns:i="&ns_ai;" xmlns:graph="&ns_graphs;"
	 xmlns="http://www.w3.org/2000/svg" xmlns:xlink="http://www.w3.org/1999/xlink" x="0px" y="0px" width="137.619px"
	 height="132.352px" viewBox="0 0 137.619 132.352" enable-background="new 0 0 137.619 132.352" xml:space="preserve">
<metadata>
	<sfw  xmlns="&ns_sfw;">
		<slices></slices>
		<sliceSourceBounds  height="16383" width="130.249" bottomLeftOrigin="true" y="-7822.001" x="-24.66"></sliceSourceBounds>
	</sfw>
</metadata>
<circle fill="#77B3D4" cx="69.774" cy="65.977" r="65.124"/>
<g opacity="0.2">
	<path fill="#231F20" d="M69.774,122.961c-2.248,0-4.07-1.822-4.07-4.07V29.345c0-2.248,1.822-4.07,4.07-4.07
		c2.248,0,4.07,1.822,4.07,4.07v89.546C73.845,121.139,72.022,122.961,69.774,122.961z"/>
</g>
<line fill="none" stroke="#F5CF87" stroke-width="4" stroke-linecap="round" stroke-miterlimit="10" x1="69.774" y1="25.274" x2="69.774" y2="114.82"/>
<path opacity="0.2" fill="#231F20" d="M42.27,33.415c-0.846,0-2.044,0.501-2.661,1.113l-10.074,9.986
	c-0.617,0.612-0.617,1.613,0,2.225l10.074,9.986c0.617,0.612,1.815,1.113,2.661,1.113h42.247c0.846,0,1.539-0.732,1.539-1.626
	V35.041c0-0.894-0.693-1.626-1.539-1.626H42.27z"/>
<path opacity="0.2" fill="#231F20" d="M105.419,86.328c0.846,0,2.044-0.501,2.661-1.113l10.074-9.986
	c0.617-0.612,0.617-1.613,0-2.225l-10.074-9.986c-0.617-0.612-1.815-1.113-2.661-1.113H55.032c-0.846,0-1.539,0.732-1.539,1.626
	v21.169c0,0.894,0.693,1.626,1.539,1.626H105.419z"/>
<path fill="#4F5D73" d="M42.27,29.345c-0.846,0-2.044,0.501-2.661,1.113l-10.074,9.986c-0.617,0.612-0.617,1.613,0,2.225
	l10.074,9.986c0.617,0.612,1.815,1.113,2.661,1.113h42.247c0.846,0,1.539-0.732,1.539-1.626V30.971c0-0.894-0.693-1.626-1.539-1.626
	H42.27z"/>
<path fill="#FFFFFF" d="M105.419,82.258c0.846,0,2.044-0.501,2.661-1.113l10.074-9.986c0.617-0.612,0.617-1.613,0-2.225
	l-10.074-9.986c-0.617-0.612-1.815-1.113-2.661-1.113H55.032c-0.846,0-1.539,0.732-1.539,1.626v21.169
	c0,0.894,0.693,1.626,1.539,1.626H105.419z"/>
<g>
	<circle fill="#76C2AF" cx="69.783" cy="65.54" r="64.991"/>
</g>
<g opacity="0.2">
	<g>
		<path fill="#231F20" d="M98.217,91.943c0,4.487-3.637,8.124-8.124,8.124h-40.62c-4.487,0-8.124-3.637-8.124-8.124v-40.62
			c0-4.487,3.637-8.124,8.124-8.124h40.62c4.487,0,8.124,3.637,8.124,8.124V91.943z"/>
	</g>
</g>
<g>
	<g>
		<path fill="#FFFFFF" d="M49.473,91.943c-2.239,0-4.062-1.823-4.062-4.062v-40.62c0-2.239,1.823-4.062,4.062-4.062h40.62
			c2.239,0,4.062,1.823,4.062,4.062v40.62c0,2.239-1.823,4.062-4.062,4.062H49.473z"/>
	</g>
	<g>
		<path fill="#4F5D73" d="M90.093,47.261v40.62h-40.62v-40.62H90.093 M90.093,39.137h-40.62c-4.487,0-8.124,3.637-8.124,8.124v40.62
			c0,4.487,3.637,8.124,8.124,8.124h40.62c4.487,0,8.124-3.637,8.124-8.124v-40.62C98.217,42.774,94.579,39.137,90.093,39.137
			L90.093,39.137z"/>
	</g>
</g>
<g opacity="0.2">
	<g>
		<path fill="#231F20" d="M70.7,83.819c-1.255,0-2.451-0.582-3.225-1.595L55.048,65.976c-1.363-1.781-1.022-4.331,0.76-5.693
			c1.781-1.361,4.331-1.023,5.693,0.759l8.504,11.118c4.691-8.438,14.879-23.931,31.085-34.403c1.883-1.219,4.4-0.677,5.616,1.207
			c1.218,1.884,0.677,4.399-1.207,5.616c-20.731,13.396-30.97,36.564-31.072,36.796c-0.574,1.321-1.804,2.239-3.234,2.414
			C71.029,83.809,70.864,83.819,70.7,83.819z"/>
	</g>
</g>
<g>
	<path fill="#C75C5C" d="M70.701,79.757c-1.255,0-2.451-0.583-3.227-1.595L55.047,61.914c-1.363-1.781-1.023-4.332,0.76-5.694
		c1.781-1.361,4.334-1.021,5.694,0.76l8.505,11.119c4.689-8.439,14.877-23.931,31.083-34.404c1.886-1.216,4.399-0.676,5.617,1.206
		c1.218,1.884,0.678,4.399-1.206,5.617C84.767,53.913,74.527,77.081,74.426,77.313c-0.573,1.321-1.803,2.239-3.233,2.414
		C71.029,79.747,70.864,79.757,70.701,79.757z"/>
</g>
</svg>
