<?xml version="1.0" encoding="utf-8"?>
<!-- Generator: Adobe Illustrator 17.0.0, SVG Export Plug-In . SVG Version: 6.00 Build 0)  -->
<!DOCTYPE svg PUBLIC "-//W3C//DTD SVG 1.1//EN" "http://www.w3.org/Graphics/SVG/1.1/DTD/svg11.dtd" [
	<!ENTITY ns_extend "http://ns.adobe.com/Extensibility/1.0/">
	<!ENTITY ns_ai "http://ns.adobe.com/AdobeIllustrator/10.0/">
	<!ENTITY ns_graphs "http://ns.adobe.com/Graphs/1.0/">
	<!ENTITY ns_vars "http://ns.adobe.com/Variables/1.0/">
	<!ENTITY ns_imrep "http://ns.adobe.com/ImageReplacement/1.0/">
	<!ENTITY ns_sfw "http://ns.adobe.com/SaveForWeb/1.0/">
	<!ENTITY ns_custom "http://ns.adobe.com/GenericCustomNamespace/1.0/">
	<!ENTITY ns_adobe_xpath "http://ns.adobe.com/XPath/1.0/">
]>
<svg version="1.1" id="Layer_2" xmlns:x="&ns_extend;" xmlns:i="&ns_ai;" xmlns:graph="&ns_graphs;"
	 xmlns="http://www.w3.org/2000/svg" xmlns:xlink="http://www.w3.org/1999/xlink" x="0px" y="0px" width="137.619px"
	 height="132.352px" viewBox="0 0 137.619 132.352" enable-background="new 0 0 137.619 132.352" xml:space="preserve">
<metadata>
	<sfw  xmlns="&ns_sfw;">
		<slices></slices>
		<sliceSourceBounds  height="130.426" width="16383" bottomLeftOrigin="true" y="-24.465" x="-8358.872"></sliceSourceBounds>
	</sfw>
</metadata>
<circle fill="#4F5D73" cx="68.651" cy="65.928" r="65.213"/>
<g opacity="0.2">
	<path fill="#231F20" d="M42.729,104.745c-2.103,0.803-4.459-0.252-5.261-2.355l-5.812-15.232c-0.803-2.103,0.252-4.459,2.355-5.261
		l68.544-26.156c2.103-0.803,4.459,0.252,5.261,2.355l5.812,15.232c0.803,2.103-0.252,4.459-2.355,5.261L42.729,104.745z"/>
</g>
<g>
	<path fill="#77B3D4" d="M42.565,100.148c-1.267,0-2.422-0.796-2.874-1.98l-5.813-15.232c-0.604-1.584,0.193-3.365,1.777-3.97
		L104.2,52.809c0.354-0.135,0.722-0.203,1.096-0.203c1.267,0,2.422,0.796,2.874,1.98l5.812,15.232
		c0.604,1.584-0.193,3.365-1.777,3.97L43.662,99.944C43.308,100.078,42.939,100.148,42.565,100.148z"/>
	<path fill="#E0E0D1" d="M105.296,53.606c0.855,0,1.635,0.537,1.94,1.337l5.812,15.232c0.198,0.518,0.182,1.082-0.045,1.588
		c-0.227,0.506-0.637,0.894-1.155,1.091L43.305,99.01c-0.239,0.091-0.488,0.138-0.739,0.138c-0.855,0-1.635-0.537-1.94-1.337
		l-5.812-15.232c-0.408-1.069,0.13-2.272,1.199-2.68l68.544-26.156C104.795,53.652,105.044,53.606,105.296,53.606 M105.295,51.606
		c-0.483,0-0.974,0.087-1.452,0.269L35.299,78.031c-2.103,0.803-3.157,3.158-2.355,5.261l5.813,15.232
		c0.62,1.625,2.167,2.624,3.809,2.624c0.483,0,0.974-0.086,1.452-0.269l68.544-26.155c2.103-0.803,3.158-3.158,2.355-5.261
		l-5.812-15.232C108.484,52.605,106.937,51.606,105.295,51.606L105.295,51.606z"/>
</g>
<g opacity="0.2">
	<path fill="#231F20" d="M46.199,105.515c-1.873,1.249-4.403,0.744-5.653-1.129l-9.048-13.562c-1.249-1.873-0.744-4.403,1.129-5.653
		l61.03-40.715c1.873-1.249,4.403-0.744,5.653,1.129l9.048,13.562c1.249,1.873,0.744,4.403-1.129,5.653L46.199,105.515z"/>
</g>
<g>
	<path fill="#76C2AF" d="M45.23,101.334c-1.033,0-1.991-0.512-2.562-1.369L33.62,86.403c-0.456-0.684-0.619-1.504-0.458-2.31
		c0.161-0.806,0.626-1.5,1.309-1.956l61.03-40.715c0.508-0.339,1.097-0.518,1.704-0.518c1.032,0,1.99,0.512,2.562,1.369
		l9.048,13.563c0.456,0.683,0.618,1.503,0.458,2.309c-0.161,0.806-0.626,1.5-1.31,1.957l-61.03,40.715
		C46.426,101.155,45.836,101.334,45.23,101.334z"/>
	<path fill="#E0E0D1" d="M97.205,41.904L97.205,41.904c0.697,0,1.344,0.346,1.73,0.924l9.048,13.562
		c0.635,0.952,0.377,2.243-0.575,2.879l-61.03,40.715c-0.343,0.229-0.74,0.349-1.148,0.349c-0.697,0-1.344-0.345-1.73-0.924
		l-9.048-13.562c-0.635-0.952-0.377-2.244,0.575-2.879l61.03-40.715C96.399,42.025,96.796,41.904,97.205,41.904 M97.204,39.904
		c-0.777,0-1.563,0.222-2.258,0.686l-61.03,40.715c-1.873,1.249-2.378,3.78-1.129,5.653l9.048,13.562
		c0.785,1.177,2.078,1.814,3.394,1.814c0.777,0,1.563-0.222,2.258-0.686l61.03-40.715c1.872-1.249,2.378-3.78,1.129-5.652
		l-9.048-13.562C99.813,40.541,98.521,39.904,97.204,39.904L97.204,39.904z"/>
</g>
<g opacity="0.2">
	<path fill="#231F20" d="M49.488,105.524c-1.576,1.607-4.156,1.633-5.764,0.057L32.082,94.167c-1.607-1.576-1.633-4.156-0.057-5.764
		l51.361-52.387c1.576-1.607,4.157-1.633,5.764-0.057l11.642,11.414c1.607,1.576,1.633,4.156,0.057,5.764L49.488,105.524z"/>
</g>
<g>
	<path fill="#F5CF87" d="M47.866,101.881c-0.81,0-1.574-0.312-2.153-0.88L34.071,89.587c-0.587-0.575-0.915-1.344-0.922-2.166
		c-0.008-0.821,0.304-1.597,0.879-2.184l51.36-52.387c0.584-0.595,1.364-0.923,2.197-0.923c0.81,0,1.574,0.312,2.152,0.879
		l11.642,11.414c0.587,0.575,0.914,1.344,0.923,2.166c0.008,0.821-0.305,1.597-0.88,2.184l-51.36,52.387
		C49.479,101.553,48.699,101.881,47.866,101.881z"/>
	<path fill="#FFFFFF" d="M87.586,32.928L87.586,32.928c0.546,0,1.062,0.211,1.453,0.594l11.642,11.413
		c0.396,0.388,0.617,0.907,0.622,1.462c0.005,0.554-0.205,1.078-0.594,1.474l-51.361,52.387c-0.394,0.401-0.92,0.623-1.482,0.623
		c-0.547,0-1.062-0.211-1.453-0.594L34.771,88.873c-0.817-0.801-0.83-2.118-0.029-2.936l51.361-52.387
		C86.496,33.149,87.023,32.928,87.586,32.928 M87.585,30.928c-1.057,0-2.113,0.408-2.911,1.222L33.314,84.538
		c-1.576,1.607-1.55,4.188,0.057,5.764l11.642,11.414c0.793,0.778,1.824,1.165,2.853,1.165c1.057,0,2.112-0.408,2.911-1.223
		l51.361-52.387c1.576-1.607,1.55-4.188-0.057-5.764L90.438,32.093C89.645,31.316,88.615,30.928,87.585,30.928L87.585,30.928z"/>
</g>
<g opacity="0.2">
	<path fill="#231F20" d="M53.14,104.714c-1.157,1.931-3.66,2.558-5.591,1.401l-13.984-8.381c-1.931-1.157-2.558-3.66-1.401-5.591
		l37.714-62.929c1.157-1.931,3.66-2.558,5.591-1.401l13.984,8.381c1.931,1.157,2.558,3.66,1.401,5.591L53.14,104.714z"/>
</g>
<g>
	<path fill="#E0995E" d="M50.929,101.828c-0.554,0-1.1-0.151-1.578-0.438L35.367,93.01c-1.455-0.872-1.929-2.765-1.057-4.22
		l37.713-62.929c0.562-0.937,1.55-1.496,2.644-1.496c0.553,0,1.099,0.152,1.577,0.438l13.984,8.381
		c1.454,0.872,1.929,2.765,1.057,4.219l-37.714,62.93C53.01,101.27,52.022,101.828,50.929,101.828z"/>
	<path fill="#FFFFFF" d="M74.667,25.366c0.372,0,0.74,0.102,1.063,0.296l13.984,8.381c0.982,0.588,1.302,1.866,0.713,2.848
		L52.713,99.819c-0.379,0.632-1.046,1.009-1.784,1.009c-0.373,0-0.74-0.102-1.063-0.296l-13.984-8.381
		c-0.982-0.588-1.302-1.866-0.714-2.848l37.714-62.929C73.26,25.744,73.928,25.366,74.667,25.366 M74.666,23.366
		c-1.385,0-2.736,0.707-3.5,1.981L33.452,88.276c-1.157,1.931-0.53,4.434,1.401,5.591l13.984,8.381
		c0.656,0.393,1.378,0.58,2.091,0.58c1.385,0,2.736-0.707,3.5-1.981l37.714-62.929c1.157-1.931,0.53-4.434-1.401-5.591
		l-13.984-8.381C76.101,23.553,75.379,23.366,74.666,23.366L74.666,23.366z"/>
</g>
<g opacity="0.2">
	<path fill="#231F20" d="M56.267,103.222c-0.712,2.136-3.02,3.29-5.155,2.578l-15.467-5.156c-2.136-0.712-3.29-3.02-2.578-5.155
		l23.2-69.6c0.712-2.136,3.02-3.29,5.155-2.578l15.467,5.155c2.136,0.712,3.29,3.02,2.578,5.156L56.267,103.222z"/>
</g>
<g>
	<path fill="#C75C5C" d="M53.69,101.143c-0.33,0-0.657-0.053-0.973-0.158L37.25,95.829c-1.609-0.537-2.482-2.282-1.945-3.892
		l23.2-69.599c0.419-1.259,1.592-2.104,2.917-2.104c0.33,0,0.657,0.054,0.974,0.159l15.466,5.155
		c1.609,0.536,2.482,2.282,1.946,3.891L56.607,99.038C56.188,100.297,55.016,101.143,53.69,101.143z"/>
	<path fill="#FFFFFF" d="M61.423,21.234L61.423,21.234c0.222,0,0.443,0.036,0.657,0.108l15.467,5.156
		c1.086,0.362,1.675,1.54,1.313,2.626l-23.2,69.6c-0.283,0.85-1.074,1.42-1.969,1.42c-0.222,0-0.443-0.036-0.657-0.108L37.567,94.88
		c-1.086-0.362-1.675-1.54-1.313-2.626l23.2-69.6C59.737,21.805,60.528,21.234,61.423,21.234 M61.423,19.234
		c-1.706,0-3.297,1.08-3.866,2.788l-23.2,69.6c-0.712,2.136,0.442,4.444,2.578,5.156l15.467,5.155c0.428,0.143,0.862,0.21,1.29,0.21
		c1.706,0,3.297-1.08,3.866-2.788l23.2-69.6c0.712-2.136-0.442-4.444-2.578-5.155l-15.467-5.156
		C62.285,19.302,61.85,19.234,61.423,19.234L61.423,19.234z"/>
</g>
</svg>
