<?xml version="1.0" encoding="utf-8"?>
<!-- Generator: Adobe Illustrator 17.0.0, SVG Export Plug-In . SVG Version: 6.00 Build 0)  -->
<!DOCTYPE svg PUBLIC "-//W3C//DTD SVG 1.1//EN" "http://www.w3.org/Graphics/SVG/1.1/DTD/svg11.dtd" [
	<!ENTITY ns_extend "http://ns.adobe.com/Extensibility/1.0/">
	<!ENTITY ns_ai "http://ns.adobe.com/AdobeIllustrator/10.0/">
	<!ENTITY ns_graphs "http://ns.adobe.com/Graphs/1.0/">
	<!ENTITY ns_vars "http://ns.adobe.com/Variables/1.0/">
	<!ENTITY ns_imrep "http://ns.adobe.com/ImageReplacement/1.0/">
	<!ENTITY ns_sfw "http://ns.adobe.com/SaveForWeb/1.0/">
	<!ENTITY ns_custom "http://ns.adobe.com/GenericCustomNamespace/1.0/">
	<!ENTITY ns_adobe_xpath "http://ns.adobe.com/XPath/1.0/">
]>
<svg version="1.1" id="Layer_3" xmlns:x="&ns_extend;" xmlns:i="&ns_ai;" xmlns:graph="&ns_graphs;"
	 xmlns="http://www.w3.org/2000/svg" xmlns:xlink="http://www.w3.org/1999/xlink" x="0px" y="0px" width="137.619px"
	 height="132.352px" viewBox="0 0 137.619 132.352" enable-background="new 0 0 137.619 132.352" xml:space="preserve">
<metadata>
	<sfw  xmlns="&ns_sfw;">
		<slices></slices>
		<sliceSourceBounds  height="130.014" width="130.014" bottomLeftOrigin="true" y="-24.338" x="-25.338"></sliceSourceBounds>
	</sfw>
</metadata>
<g>
	<circle fill="#77B3D4" cx="68.979" cy="66.007" r="65.007"/>
</g>
<g opacity="0.2">
	<path fill="#231F20" d="M109.608,92.416c0,4.488-3.638,8.126-8.126,8.126H36.475c-4.488,0-8.126-3.638-8.126-8.126V51.787
		c0-4.488,3.638-8.126,8.126-8.126h65.007c4.488,0,8.126,3.638,8.126,8.126V92.416z"/>
</g>
<g>
	<path fill="#FFFFFF" d="M109.608,88.353c0,4.488-3.638,8.126-8.126,8.126H36.475c-4.488,0-8.126-3.638-8.126-8.126V47.724
		c0-4.488,3.638-8.126,8.126-8.126h65.007c4.488,0,8.126,3.638,8.126,8.126V88.353z"/>
</g>
<g>
	<rect x="28.349" y="51.787" fill="#4F5D73" width="81.259" height="12.189"/>
</g>
<g>
	<circle fill="#E0995E" cx="81.167" cy="84.29" r="4.063"/>
</g>
<g>
	<circle fill="#E0995E" cx="97.419" cy="84.29" r="4.063"/>
</g>
<g>
	<circle fill="#E0995E" cx="64.916" cy="84.29" r="4.063"/>
</g>
</svg>
