<?xml version="1.0" encoding="utf-8"?>
<!-- Generator: Adobe Illustrator 17.0.0, SVG Export Plug-In . SVG Version: 6.00 Build 0)  -->
<!DOCTYPE svg PUBLIC "-//W3C//DTD SVG 1.1//EN" "http://www.w3.org/Graphics/SVG/1.1/DTD/svg11.dtd" [
	<!ENTITY ns_extend "http://ns.adobe.com/Extensibility/1.0/">
	<!ENTITY ns_ai "http://ns.adobe.com/AdobeIllustrator/10.0/">
	<!ENTITY ns_graphs "http://ns.adobe.com/Graphs/1.0/">
	<!ENTITY ns_vars "http://ns.adobe.com/Variables/1.0/">
	<!ENTITY ns_imrep "http://ns.adobe.com/ImageReplacement/1.0/">
	<!ENTITY ns_sfw "http://ns.adobe.com/SaveForWeb/1.0/">
	<!ENTITY ns_custom "http://ns.adobe.com/GenericCustomNamespace/1.0/">
	<!ENTITY ns_adobe_xpath "http://ns.adobe.com/XPath/1.0/">
]>
<svg version="1.1" id="Layer_3" xmlns:x="&ns_extend;" xmlns:i="&ns_ai;" xmlns:graph="&ns_graphs;"
	 xmlns="http://www.w3.org/2000/svg" xmlns:xlink="http://www.w3.org/1999/xlink" x="0px" y="0px" width="137.619px"
	 height="132.352px" viewBox="0 0 137.619 132.352" enable-background="new 0 0 137.619 132.352" xml:space="preserve">
<metadata>
	<sfw  xmlns="&ns_sfw;">
		<slices></slices>
		<sliceSourceBounds  height="16383" width="130.249" bottomLeftOrigin="true" y="-7822.251" x="-24.866"></sliceSourceBounds>
	</sfw>
</metadata>
<circle fill="#77B3D4" cx="69.568" cy="66.228" r="65.124"/>
<g opacity="0.2">
	<path fill="#231F20" d="M69.568,123.211c-2.248,0-4.07-1.822-4.07-4.07V29.595c0-2.248,1.822-4.07,4.07-4.07s4.07,1.822,4.07,4.07
		v89.546C73.638,121.389,71.815,123.211,69.568,123.211z"/>
</g>
<line fill="none" stroke="#F5CF87" stroke-width="4" stroke-linecap="round" stroke-miterlimit="10" x1="69.568" y1="25.524" x2="69.568" y2="115.07"/>
<path opacity="0.2" fill="#231F20" d="M42.063,33.665c-0.846,0-2.044,0.501-2.661,1.113l-10.074,9.986
	c-0.617,0.612-0.617,1.613,0,2.225l10.074,9.986c0.617,0.612,1.815,1.113,2.661,1.113H84.31c0.846,0,1.539-0.732,1.539-1.626V35.292
	c0-0.894-0.693-1.626-1.539-1.626H42.063z"/>
<path opacity="0.2" fill="#231F20" d="M105.213,86.579c0.846,0,2.044-0.501,2.661-1.113l10.074-9.986
	c0.617-0.612,0.617-1.613,0-2.225l-10.074-9.986c-0.617-0.612-1.815-1.113-2.661-1.113H54.825c-0.846,0-1.539,0.732-1.539,1.626
	v21.169c0,0.894,0.693,1.626,1.539,1.626H105.213z"/>
<path fill="#4F5D73" d="M42.063,29.595c-0.846,0-2.044,0.501-2.661,1.113l-10.074,9.986c-0.617,0.612-0.617,1.613,0,2.225
	l10.074,9.986c0.617,0.612,1.815,1.113,2.661,1.113H84.31c0.846,0,1.539-0.732,1.539-1.626V31.221c0-0.894-0.693-1.626-1.539-1.626
	H42.063z"/>
<path fill="#FFFFFF" d="M105.213,82.509c0.846,0,2.044-0.501,2.661-1.113l10.074-9.986c0.617-0.612,0.617-1.613,0-2.225
	L107.874,59.2c-0.617-0.612-1.815-1.113-2.661-1.113H54.825c-0.846,0-1.539,0.732-1.539,1.626v21.169
	c0,0.894,0.693,1.626,1.539,1.626H105.213z"/>
</svg>
