<?xml version="1.0" encoding="utf-8"?>
<!-- Generator: Adobe Illustrator 17.0.0, SVG Export Plug-In . SVG Version: 6.00 Build 0)  -->
<!DOCTYPE svg PUBLIC "-//W3C//DTD SVG 1.1//EN" "http://www.w3.org/Graphics/SVG/1.1/DTD/svg11.dtd" [
	<!ENTITY ns_extend "http://ns.adobe.com/Extensibility/1.0/">
	<!ENTITY ns_ai "http://ns.adobe.com/AdobeIllustrator/10.0/">
	<!ENTITY ns_graphs "http://ns.adobe.com/Graphs/1.0/">
	<!ENTITY ns_vars "http://ns.adobe.com/Variables/1.0/">
	<!ENTITY ns_imrep "http://ns.adobe.com/ImageReplacement/1.0/">
	<!ENTITY ns_sfw "http://ns.adobe.com/SaveForWeb/1.0/">
	<!ENTITY ns_custom "http://ns.adobe.com/GenericCustomNamespace/1.0/">
	<!ENTITY ns_adobe_xpath "http://ns.adobe.com/XPath/1.0/">
]>
<svg version="1.1" id="Layer_3" xmlns:x="&ns_extend;" xmlns:i="&ns_ai;" xmlns:graph="&ns_graphs;"
	 xmlns="http://www.w3.org/2000/svg" xmlns:xlink="http://www.w3.org/1999/xlink" x="0px" y="0px" width="137.619px"
	 height="132.352px" viewBox="0 0 137.619 132.352" enable-background="new 0 0 137.619 132.352" xml:space="preserve">
<metadata>
	<sfw  xmlns="&ns_sfw;">
		<slices></slices>
		<sliceSourceBounds  height="129.898" width="16383" bottomLeftOrigin="true" y="-24.192" x="-8268.297"></sliceSourceBounds>
	</sfw>
</metadata>
<g>
	<circle fill="#76C2AF" cx="69.05" cy="65.919" r="64.949"/>
</g>
<g opacity="0.2">
	<path fill="#231F20" d="M105.38,94.827L76.676,66.123c-2.092-2.092-5.036-2.774-7.711-2.105L52.54,47.795l-6.165-11.972
		l-11.997-6.178l-5.819,5.819l6.178,11.997l11.997,6.178l0.016-0.016L63.12,69.793c-0.713,2.702-0.044,5.693,2.075,7.812
		l28.704,28.704c3.171,3.17,8.311,3.17,11.481,0C108.55,103.138,108.55,97.997,105.38,94.827z"/>
</g>
<g>
	<polygon fill="#4F5D73" points="74.123,76.601 41.441,44.321 47.395,38.655 80.077,70.935 	"/>
</g>
<g>
	<path fill="#F5CF87" d="M105.38,102.249c-3.171,3.171-8.311,3.171-11.481,0L65.195,73.545c-3.171-3.171-3.171-8.311,0-11.481l0,0
		c3.171-3.171,8.311-3.171,11.481,0l28.704,28.704C108.55,93.938,108.55,99.078,105.38,102.249L105.38,102.249z"/>
</g>
<g opacity="0.2">
	<path fill="#231F20" d="M112.29,38.22L99.147,51.363c-3.17,3.17-8.311,3.17-11.481,0c-3.17-3.171-3.17-8.311,0-11.481
		l13.143-13.143c-2.296-0.901-4.787-1.413-7.402-1.413c-11.209,0-20.297,9.087-20.297,20.297c0,2.615,0.512,5.107,1.413,7.402
		L52.097,75.45c-2.296-0.901-4.787-1.413-7.402-1.413c-11.209,0-20.297,9.087-20.297,20.297c0,2.615,0.512,5.107,1.413,7.402
		l13.143-13.143c3.17-3.17,8.311-3.17,11.481,0c3.17,3.171,3.17,8.311,0,11.481l-13.143,13.143c2.296,0.901,4.787,1.413,7.402,1.413
		c11.209,0,20.297-9.087,20.297-20.297c0-2.615-0.512-5.107-1.413-7.402l22.426-22.426c2.296,0.901,4.787,1.413,7.402,1.413
		c11.209,0,20.297-9.087,20.297-20.297C113.703,43.007,113.191,40.516,112.29,38.22z"/>
</g>
<g>
	
		<rect x="51.656" y="57.8" transform="matrix(0.7071 -0.7071 0.7071 0.7071 -26.3875 68.133)" fill="#FFFFFF" width="34.788" height="16.237"/>
</g>
<g>
	<polygon fill="#4F5D73" points="46.733,49.58 34.736,43.403 28.559,31.406 34.378,25.586 46.375,31.764 52.553,43.761 	"/>
</g>
<g>
	<g>
		<path fill="#FFFFFF" d="M99.147,47.304c-3.17,3.17-8.311,3.17-11.481,0c-3.17-3.171-3.17-8.311,0-11.481l13.143-13.143
			c-2.296-0.901-4.787-1.413-7.402-1.413c-11.209,0-20.297,9.087-20.297,20.297c0,11.209,9.087,20.297,20.297,20.297
			s20.297-9.087,20.297-20.297c0-2.615-0.512-5.107-1.413-7.402L99.147,47.304z"/>
	</g>
</g>
<g>
	<g>
		<path fill="#FFFFFF" d="M38.953,84.534c3.17-3.17,8.311-3.17,11.481,0c3.17,3.171,3.17,8.311,0,11.481l-13.143,13.143
			c2.296,0.901,4.787,1.413,7.402,1.413c11.209,0,20.297-9.087,20.297-20.297c0-11.209-9.087-20.297-20.297-20.297
			s-20.297,9.087-20.297,20.297c0,2.615,0.512,5.107,1.413,7.402L38.953,84.534z"/>
	</g>
</g>
</svg>
