<?xml version="1.0" encoding="utf-8"?>
<!-- Generator: Adobe Illustrator 17.0.0, SVG Export Plug-In . SVG Version: 6.00 Build 0)  -->
<!DOCTYPE svg PUBLIC "-//W3C//DTD SVG 1.1//EN" "http://www.w3.org/Graphics/SVG/1.1/DTD/svg11.dtd" [
	<!ENTITY ns_extend "http://ns.adobe.com/Extensibility/1.0/">
	<!ENTITY ns_ai "http://ns.adobe.com/AdobeIllustrator/10.0/">
	<!ENTITY ns_graphs "http://ns.adobe.com/Graphs/1.0/">
	<!ENTITY ns_vars "http://ns.adobe.com/Variables/1.0/">
	<!ENTITY ns_imrep "http://ns.adobe.com/ImageReplacement/1.0/">
	<!ENTITY ns_sfw "http://ns.adobe.com/SaveForWeb/1.0/">
	<!ENTITY ns_custom "http://ns.adobe.com/GenericCustomNamespace/1.0/">
	<!ENTITY ns_adobe_xpath "http://ns.adobe.com/XPath/1.0/">
]>
<svg version="1.1" id="Layer_3" xmlns:x="&ns_extend;" xmlns:i="&ns_ai;" xmlns:graph="&ns_graphs;"
	 xmlns="http://www.w3.org/2000/svg" xmlns:xlink="http://www.w3.org/1999/xlink" x="0px" y="0px" width="137.619px"
	 height="132.352px" viewBox="0 0 137.619 132.352" enable-background="new 0 0 137.619 132.352" xml:space="preserve">
<metadata>
	<sfw  xmlns="&ns_sfw;">
		<slices></slices>
		<sliceSourceBounds  height="129.57" width="129.57" bottomLeftOrigin="true" y="-23.935" x="-24.169"></sliceSourceBounds>
	</sfw>
</metadata>
<g>
	<circle fill="#76C2AF" cx="69.926" cy="65.826" r="64.785"/>
</g>
<g opacity="0.2">
	<path fill="#231F20" d="M110.416,102.268c0,4.472-3.626,8.098-8.098,8.098H37.533c-4.472,0-8.098-3.626-8.098-8.098V37.483
		c0-4.472,3.626-8.098,8.098-8.098h64.785c4.472,0,8.098,3.626,8.098,8.098V102.268z"/>
</g>
<g>
	<path fill="#C75C5C" d="M110.416,98.219c0,4.472-3.626,8.098-8.098,8.098H37.533c-4.472,0-8.098-3.626-8.098-8.098V33.434
		c0-4.472,3.626-8.098,8.098-8.098h64.785c4.472,0,8.098,3.626,8.098,8.098V98.219z"/>
</g>
<g opacity="0.2">
	<rect x="53.729" y="29.385" fill="#231F20" width="8.098" height="80.981"/>
</g>
<g opacity="0.2">
	<rect x="29.435" y="61.777" fill="#231F20" width="80.981" height="8.098"/>
</g>
<g>
	<rect x="53.729" y="25.336" fill="#F5CF87" width="8.098" height="80.981"/>
</g>
<g>
	<rect x="29.435" y="57.728" fill="#F5CF87" width="80.981" height="8.098"/>
</g>
<g opacity="0.2">
	<path fill="#231F20" d="M78.09,45.647c-2.54-2.54-5.868-3.81-9.197-3.81c-3.329,0-6.657,1.27-9.197,3.81
		c-3.705,3.705-4.03,9.209-3.935,15.28c-1.276-0.589-9.835-4.818-10.682-12.525c-0.183-1.667-1.69-2.865-3.351-2.687
		c-1.667,0.184-2.87,1.683-2.687,3.351c0.794,7.217,5.789,12.044,9.711,14.78c-4.529,0.175-8.548,0.997-11.457,3.906
		c-5.079,5.079-5.079,13.315,0,18.394c2.54,2.54,5.868,3.81,9.197,3.81c3.329,0,6.657-1.27,9.197-3.81
		c3.483-3.483,3.98-8.553,3.949-14.192c0.206,0.218,0.436,0.418,0.712,0.573c0.095,0.053,9.408,5.375,9.408,13.713
		c0,1.678,1.359,3.037,3.037,3.037c1.678,0,3.037-1.359,3.037-3.037c0-9.821-8.115-16.151-11.288-18.251
		c5.379-0.012,10.198-0.598,13.548-3.948C83.169,58.962,83.169,50.726,78.09,45.647z M51.393,81.852
		c-1.309,1.309-3.051,2.031-4.903,2.031c-1.852,0-3.593-0.721-4.902-2.031c-2.703-2.703-2.703-7.102,0-9.805
		c1.542-1.542,4.274-2.172,9.428-2.172c0.827,0,1.667,0.014,2.517,0.032C53.649,75.195,53.575,79.67,51.393,81.852z M73.795,59.746
		c-1.543,1.543-4.274,2.172-9.428,2.172c-0.827,0-1.667-0.014-2.517-0.032c-0.116-5.287-0.043-9.762,2.139-11.944
		c1.31-1.31,3.051-2.031,4.903-2.031s3.593,0.721,4.903,2.031C76.498,52.645,76.498,57.043,73.795,59.746z"/>
</g>
<g>
	<path fill="#F5CF87" d="M68.893,43.862c1.852,0,3.593,0.721,4.902,2.031c2.703,2.703,2.703,7.102,0,9.805
		c-1.542,1.542-4.274,2.172-9.427,2.172c-0.827,0-1.667-0.014-2.517-0.032c-0.116-5.287-0.043-9.763,2.139-11.945
		C65.3,44.583,67.041,43.862,68.893,43.862 M68.893,37.788c-3.329,0-6.658,1.27-9.197,3.81c-5.079,5.079-3.81,13.533-3.81,22.204
		c2.89,0,5.757,0.141,8.482,0.141c5.45,0,10.336-0.564,13.722-3.951c5.079-5.079,5.079-13.315,0-18.394
		C75.55,39.058,72.221,37.788,68.893,37.788L68.893,37.788z"/>
</g>
<g>
	<path fill="#F5CF87" d="M51.016,65.826c0.827,0,1.667,0.014,2.517,0.032c0.116,5.287,0.043,9.763-2.139,11.944
		c-1.31,1.309-3.051,2.031-4.903,2.031c-1.852,0-3.593-0.721-4.902-2.031c-2.703-2.703-2.703-7.102,0-9.805
		C43.131,66.455,45.862,65.826,51.016,65.826 M51.016,59.753c-5.45,0-10.336,0.564-13.722,3.951c-5.079,5.079-5.079,13.315,0,18.394
		c2.54,2.54,5.868,3.81,9.197,3.81s6.657-1.27,9.197-3.81c5.079-5.079,3.81-13.533,3.81-22.204
		C56.607,59.894,53.741,59.753,51.016,59.753L51.016,59.753z"/>
</g>
<g>
	<path fill="#F5CF87" d="M72.794,85.227c-1.677,0-3.037-1.36-3.037-3.037c0-8.337-9.314-13.66-9.409-13.711
		c-1.459-0.82-1.985-2.667-1.17-4.13c0.815-1.461,2.655-1.991,4.12-1.18c0.512,0.285,12.533,7.078,12.533,19.021
		C75.831,83.867,74.471,85.227,72.794,85.227z"/>
</g>
<g>
	<path fill="#F5CF87" d="M54.746,62.789c-0.389,0-0.787-0.075-1.17-0.235c-0.54-0.225-13.229-5.664-14.535-17.537
		c-0.184-1.667,1.02-3.167,2.687-3.351c1.663-0.18,3.167,1.02,3.351,2.687c0.917,8.353,10.743,12.556,10.842,12.598
		c1.546,0.647,2.276,2.426,1.629,3.974C57.063,62.089,55.934,62.789,54.746,62.789z"/>
</g>
</svg>
