<?xml version="1.0" encoding="utf-8"?>
<!-- Generator: Adobe Illustrator 22.0.1, SVG Export Plug-In . SVG Version: 6.00 Build 0)  -->
<svg version="1.1" id="Main-Layer" xmlns="http://www.w3.org/2000/svg" xmlns:xlink="http://www.w3.org/1999/xlink" x="0px" y="0px"
	 viewBox="0 0 92.8 65.5" style="enable-background:new 0 0 92.8 65.5;" xml:space="preserve">
<style type="text/css">
	.st0{enable-background:new    ;}
	.st1{fill:#FF0066;}
	.st2{fill:none;stroke:#FF0066;stroke-width:4;stroke-miterlimit:10;}
	.st3{fill:#888888;}
</style>
<g id="ftrina-logo" xmlns:sketch="http://www.bohemiancoding.com/sketch/ns">
	<g id="english-logo">
		<g id="english-primary" class="st0">
			<g id="words" class="st0">
				<g>
					
						<rect x="43.1" y="35.2" transform="matrix(0.7071 -0.7071 0.7071 0.7071 -13.7323 42.9885)" class="st1" width="3.8" height="5.8"/>
					<polygon class="st1" points="48.2,52.9 44.3,52.9 44.3,46.6 42.1,44.7 44.7,41.8 46,43 46.9,41.7 50,44 48.2,46.4 					"/>
				</g>
				<path class="st1" d="M77.3,52.3c-1.4,0-5.6-0.2-7.9-2.5c-1.1-1.1-1.6-2.4-1.5-4c0.1-2.9,1.5-4.5,2.6-5.3
					c2.2-1.6,5.3-1.4,7.3-1.1l-0.1-4c-0.1-0.6-0.5-2-3-2c-2,0-2.1,2.2-2.1,2.6V38h-3.8v-1.9c0-2.6,1.6-6.5,5.9-6.5
					c3.3,0,5,1.5,5.9,2.8c0.9,1.3,1,2.7,1,2.9l0.4,17.1h-4.1C77.6,52.3,77.4,52.3,77.3,52.3z M75.1,43.1c-1,0-1.9,0.2-2.6,0.6
					c-0.2,0.2-0.9,0.6-1,2.3c0,0.5,0.1,0.8,0.4,1.1c1.1,1.1,4,1.4,5.5,1.4l0.3,0l-0.1-5.1C77,43.2,76,43.1,75.1,43.1z"/>
				<path class="st1" d="M52.5,49l-0.2-10.8c-4.1-0.7-4.5-1.6-4.8-2.2c-0.3-0.6-0.3-1.4,0-2.1c0.3-0.5,0.8-0.9,1.4-1.1
					c0.4-0.1,1.6-0.4,5,1.3c1.1-0.8,2.8-1.6,5.5-1.5c5.6,0.1,6.8,4,7,5.2c0,0.2,0.1,0.6,0.1,9.2l0,1.9l-3.8,0l0-1.9
					c0-3.1,0-7.8-0.1-8.5c-0.3-1.3-1.4-2-3.3-2c-1.7,0-2.7,0.5-3.2,0.8l0.2,11.7L52.5,49z"/>
				<path class="st1" d="M33.7,43.6l-0.2-14c-3.9-0.8-4.5-2-4.8-2.4c-0.4-0.6-0.4-1.4-0.1-2.1c0.3-0.7,0.9-1.2,1.6-1.4
					c0.4-0.1,1.7-0.4,4.9,1.6c1.2-1,3-2,5.5-1.9c5.3,0.2,7.2,4.7,7.1,7.7l0,1.9L43.7,33l0-1.9c0-0.8-0.2-3.7-3.4-3.8
					c-1.8-0.1-2.8,0.8-3.1,1.2l0.2,15L33.7,43.6z"/>
				<path class="st1" d="M30.7,54.9c-2.6,0-4.1-1-4.9-1.9c-1.5-1.6-1.5-3.7-1.5-4.3l-0.1-8.9l0,0l0-0.5h-3.4v-3.8h3.4l-0.1-7.4
					l3.8,0l0.1,7c3-0.4,3.9,0.2,4.2,0.5c0.6,0.5,0.9,1.1,0.9,1.8c0,0.7-0.3,1.3-0.9,1.8c-0.3,0.2-1.2,0.9-4.1,0.5l0.1,9.1l0,0.1l0,0
					c0,0,0,0.9,0.5,1.5c0.4,0.4,1.1,0.6,2.1,0.6c2.6,0,2.9-2.1,2.9-3.1l0-1.9l3.8,0l0,1.9c0,0.3,0,3.1-2,5.1
					C34.3,54.2,32.7,54.9,30.7,54.9z"/>
				<path class="st1" d="M18.2,51l-3.8,0l0.2-19.3l-3.4-0.1l0.1-3.8l3.4,0.1l0.1-11.2c0-0.6,0-2.6,1.5-4.3c0.8-0.9,2.3-1.9,4.9-1.9
					c1.9,0,3.6,0.6,4.8,1.8c2,2,2,4.8,2,5.1l0,1.9l-3.8,0l0-1.9c0-0.9-0.3-3-2.9-3c-1,0-1.7,0.2-2.1,0.6c-0.5,0.5-0.5,1.4-0.5,1.4
					l0,0.1l-0.1,11c3-0.3,3.8,0.3,4.1,0.6c0.6,0.4,0.9,1.1,0.9,1.8c0,0.7-0.3,1.4-0.9,1.8c-0.4,0.3-1.2,0.9-4.2,0.5L18.2,51z"/>
			</g>
		</g>
	</g>
</g>
<path class="st2" d="M50.8,22.7"/>
<path class="st3" d="M49.4,21.5c0-0.8,0.5-1.3,1.3-1.3s1.2,0.5,1.2,1.3c0,0.7-0.5,1.3-1.3,1.3C50,22.7,49.4,22.2,49.4,21.5z"/>
<path class="st3" d="M60.2,22.3c-0.4,0.2-1.3,0.4-2.4,0.4c-3.3,0-4.9-2-4.9-4.7c0-3.2,2.3-5,5.1-5c1.1,0,1.9,0.2,2.3,0.4l-0.4,1.7
	c-0.4-0.2-1-0.3-1.8-0.3c-1.7,0-3,1-3,3.1c0,1.9,1.1,3.1,3,3.1c0.6,0,1.4-0.1,1.8-0.3L60.2,22.3z"/>
<path class="st3" d="M68,19.1c0,2.5-1.8,3.6-3.6,3.6c-2,0-3.5-1.3-3.5-3.5s1.5-3.6,3.6-3.6C66.6,15.6,68,17,68,19.1z M63.1,19.2
	c0,1.2,0.5,2.1,1.4,2.1c0.8,0,1.4-0.8,1.4-2.1c0-1-0.4-2.1-1.4-2.1C63.5,17.1,63.1,18.2,63.1,19.2z"/>
<path class="st3" d="M69.4,17.9c0-0.9,0-1.6,0-2.2h1.8l0.1,0.9h0c0.3-0.4,0.9-1.1,2.1-1.1c0.9,0,1.6,0.5,1.9,1.1h0
	c0.3-0.4,0.5-0.6,0.9-0.8c0.4-0.2,0.8-0.3,1.3-0.3c1.3,0,2.3,0.9,2.3,3v4h-2.1v-3.7c0-1-0.3-1.6-1-1.6c-0.5,0-0.8,0.3-1,0.7
	c0,0.1-0.1,0.4-0.1,0.5v4h-2.1v-3.8c0-0.9-0.3-1.5-1-1.5c-0.5,0-0.9,0.4-1,0.8c-0.1,0.2-0.1,0.4-0.1,0.5v4h-2.1L69.4,17.9L69.4,17.9
	z"/>
</svg>
