<?xml version="1.0" encoding="utf-8"?>
<!-- Generator: Adobe Illustrator 17.0.0, SVG Export Plug-In . SVG Version: 6.00 Build 0)  -->
<!DOCTYPE svg PUBLIC "-//W3C//DTD SVG 1.1//EN" "http://www.w3.org/Graphics/SVG/1.1/DTD/svg11.dtd">
<svg version="1.1" id="Main-Layer" xmlns="http://www.w3.org/2000/svg" xmlns:xlink="http://www.w3.org/1999/xlink" x="0px" y="0px"
	 width="199px" height="77.544px" viewBox="29 14.75 199 77.544" enable-background="new 29 14.75 199 77.544" xml:space="preserve"
	>
<g id="ftrina-logo" xmlns:sketch="http://www.bohemiancoding.com/sketch/ns">
	<g id="english-logo">
		<g id="english-secondary">
			<path id="en-open" fill="#FF9999" d="M90.971,46.431c-1.613,0-2.975-1.098-3.413-2.635c-0.243-0.849-0.144-1.718-0.022-2.578
				c0.145-1.014,0.376-2.016,0.683-2.993l0.037-0.118c0.319-1.031,0.769-2.403,1.892-2.805c1.602-0.574,2.618,1.289,3.124,2.478
				c0.384,0.903,0.7,1.843,0.936,2.794c0.209,0.847,0.418,1.775,0.31,2.651C94.298,45.014,92.789,46.431,90.971,46.431z"/>
			<path fill="#FF9999" d="M69.953,60.488c-1.18,0-2.476-0.293-3.324-1.172c-0.678-0.703-0.889-1.681-0.841-2.631
				c0.065-1.32,0.524-2.631,1.028-3.841c0.481-1.155,1.07-2.262,1.699-3.343l3.257,1.896c-0.942,1.618-1.949,3.422-2.214,5.301
				c0.944,0.134,2.028-0.138,2.928-0.396c0.514-0.148,1.018-0.336,1.496-0.578c0.255-0.128,0.621-0.273,0.803-0.51
				c0,0.001-0.037,0.049-0.062,0.142l3.637,0.987c-0.357,1.312-1.482,2.14-2.638,2.724C73.977,59.95,71.914,60.488,69.953,60.488z"
				/>
			<path fill="#FF9999" d="M73.95,71.808c-1.661,0-3.233-0.22-4.428-0.618c-2.556-0.852-2.937-2.379-2.937-3.214h3.422
				c0-0.193-0.084-0.341-0.124-0.383c0.266,0.277,1.731,0.792,4.066,0.792c2.334,0,3.8-0.515,4.066-0.792
				c-0.041,0.042-0.124,0.191-0.124,0.383h3.422C81.314,70.375,78.561,71.808,73.95,71.808z"/>
			<path fill="#FF9999" d="M73.612,29.415c0,0,8.114-1.389,9.911-1.355c1.774,0.034,1.74-4.863-1.512-3.497
				C80.78,25.081,73.612,29.415,73.612,29.415s2.81-4.778,3.159-5.937c1.075-3.571-1.654-6.398-3.588-0.036
				C72.758,24.844,73.612,29.415,73.612,29.415s-3.816-8.512-5.316-7.629c-3.637,2.14-1.398,4.185,1.258,5.562"/>
		</g>
		<g id="english-primary" enable-background="new    ">
			<g id="words" enable-background="new    ">
				<path fill="#FF0066" d="M183.386,65.939c0-0.755,0.517-1.3,1.258-1.3s1.244,0.531,1.244,1.3c0,0.741-0.503,1.286-1.258,1.286
					C183.903,67.226,183.386,66.68,183.386,65.939z"/>
				<path fill="#FF0066" d="M194.162,66.806c-0.391,0.196-1.272,0.405-2.418,0.405c-3.257,0-4.934-2.027-4.934-4.71
					c0-3.215,2.292-5.003,5.143-5.003c1.104,0,1.943,0.224,2.32,0.419l-0.433,1.691c-0.433-0.181-1.034-0.349-1.789-0.349
					c-1.691,0-3.005,1.02-3.005,3.117c0,1.887,1.118,3.075,3.019,3.075c0.643,0,1.356-0.14,1.775-0.307L194.162,66.806z"/>
				<path fill="#FF0066" d="M201.976,63.578c0,2.502-1.775,3.648-3.606,3.648c-1.999,0-3.536-1.314-3.536-3.522
					s1.453-3.62,3.648-3.62C200.578,60.084,201.976,61.523,201.976,63.578z M197.028,63.647c0,1.174,0.489,2.055,1.398,2.055
					c0.825,0,1.356-0.825,1.356-2.055c0-1.02-0.391-2.055-1.356-2.055C197.405,61.593,197.028,62.641,197.028,63.647z"/>
				<path fill="#FF0066" d="M203.289,62.414c0-0.868-0.046-1.6-0.046-2.194h1.783l0.091,0.914h0.046
					c0.274-0.411,0.914-1.097,2.057-1.097c0.868,0,1.6,0.457,1.874,1.143h0.046c0.274-0.366,0.548-0.64,0.868-0.823
					c0.366-0.229,0.777-0.32,1.28-0.32c1.325,0,2.285,0.914,2.285,2.971v4.022h-2.057v-3.702c0-1.006-0.32-1.554-1.006-1.554
					c-0.503,0-0.823,0.32-0.96,0.731c-0.046,0.137-0.091,0.366-0.091,0.548v3.976h-2.057v-3.839c0-0.868-0.32-1.463-0.96-1.463
					c-0.548,0-0.868,0.411-1.006,0.777c-0.091,0.183-0.091,0.366-0.091,0.548v3.976h-2.057L203.289,62.414L203.289,62.414z"/>
				<g>
					
						<rect x="138.367" y="50.898" transform="matrix(0.7071 0.7071 -0.7071 0.7071 78.7236 -84.4123)" fill="#FF0066" width="5.78" height="3.847"/>
					<polygon fill="#FF0066" points="144.419,67.676 140.572,67.676 140.572,61.386 138.378,59.476 140.904,56.573 142.203,57.705 
						143.123,56.482 146.195,58.799 144.419,61.154 					"/>
				</g>
				<path fill="#FF0066" d="M173.483,67.093c-1.411,0-5.639-0.202-7.95-2.508c-1.068-1.066-1.603-2.445-1.549-3.99
					c0.103-2.924,1.464-4.485,2.586-5.279c2.231-1.578,5.274-1.44,7.251-1.11l-0.092-4.034c-0.058-0.624-0.474-2.015-3.031-2.015
					c-1.976,0-2.076,2.204-2.076,2.645v1.923h-3.847v-1.923c0-2.61,1.577-6.491,5.922-6.491c3.332,0,5.036,1.513,5.878,2.783
					c0.89,1.342,0.986,2.66,0.996,2.91l0.389,17.084h-4.098C173.783,67.09,173.654,67.093,173.483,67.093z M171.338,57.846
					c-0.958,0-1.904,0.154-2.552,0.614c-0.223,0.159-0.901,0.641-0.958,2.271c-0.017,0.479,0.109,0.818,0.419,1.129
					c1.103,1.106,3.967,1.436,5.514,1.383l0.265-0.001l-0.116-5.097C173.223,57.994,172.276,57.846,171.338,57.846z"/>
				<path fill="#FF0066" d="M148.779,63.763l-0.232-10.834c-4.061-0.686-4.549-1.642-4.825-2.183
					c-0.331-0.649-0.319-1.418,0.034-2.057c0.3-0.544,0.807-0.938,1.428-1.109c0.415-0.115,1.591-0.439,4.953,1.315
					c1.063-0.781,2.823-1.608,5.488-1.534c5.569,0.143,6.761,4.043,6.994,5.237c0.043,0.218,0.122,0.624,0.114,9.204l-0.002,1.923
					l-3.847-0.004l0.002-1.923c0.003-3.134-0.014-7.756-0.059-8.543c-0.296-1.329-1.376-1.999-3.3-2.049
					c-1.707-0.045-2.688,0.464-3.151,0.808l0.249,11.667L148.779,63.763z"/>
				<path fill="#FF0066" d="M129.895,58.323l-0.231-14.016c-3.891-0.844-4.529-1.997-4.755-2.406
					c-0.357-0.647-0.399-1.404-0.113-2.076c0.287-0.673,0.861-1.168,1.575-1.358c0.444-0.118,1.679-0.447,4.857,1.643
					c1.181-1.045,3.015-1.97,5.537-1.889c5.318,0.177,7.155,4.696,7.092,7.692l-0.04,1.923l-3.846-0.08l0.04-1.923
					c0.005-0.846-0.224-3.663-3.375-3.767c-1.804-0.064-2.752,0.752-3.144,1.209l0.247,14.983L129.895,58.323z"/>
				<path fill="#FF0066" d="M126.977,69.636c-2.645,0-4.142-1.036-4.932-1.905c-1.485-1.634-1.493-3.685-1.462-4.26l-0.122-8.9
					l-0.014,0.003l-0.004-0.501h-3.435v-3.847h3.407l-0.057-7.358l3.847-0.03l0.054,6.989c3.048-0.42,3.87,0.248,4.218,0.53
					c0.559,0.454,0.871,1.124,0.852,1.838c-0.017,0.697-0.348,1.345-0.91,1.776c-0.319,0.245-1.166,0.898-4.112,0.505l0.125,9.121
					l-0.01,0.104l0,0c0.001,0-0.044,0.894,0.484,1.457c0.392,0.418,1.088,0.63,2.07,0.63c2.636,0,2.938-2.138,2.946-3.057
					l0.016-1.906l3.812-0.021l0.019,1.906c0.003,0.31-0.028,3.094-1.997,5.082C130.579,68.999,128.921,69.636,126.977,69.636z"/>
				<path fill="#FF0066" d="M114.392,65.784l-3.847-0.047l0.238-19.282l-3.433-0.076l0.085-3.846l3.395,0.075l0.139-11.219
					c-0.031-0.574-0.025-2.627,1.462-4.262c0.79-0.87,2.287-1.905,4.932-1.905c1.944,0,3.602,0.637,4.795,1.842
					c1.97,1.989,2,4.771,1.997,5.082l-0.019,1.923l-3.847-0.037l0.019-1.923c-0.008-0.903-0.31-3.04-2.946-3.04
					c-0.995,0-1.696,0.218-2.086,0.646c-0.499,0.549-0.47,1.432-0.469,1.44l0.01,0.103l-0.136,11.027
					c2.97-0.348,3.818,0.315,4.136,0.564c0.553,0.433,0.879,1.078,0.897,1.769c0.018,0.72-0.298,1.392-0.863,1.844
					c-0.351,0.28-1.176,0.939-4.226,0.469L114.392,65.784z"/>
			</g>
			
				<rect x="87.893" y="21.23" transform="matrix(0.7071 0.7071 -0.7071 0.7071 42.7182 -57.2489)" fill="#FF0066" width="5.142" height="3.422"/>
			<path fill="#FF0066" d="M74.012,79.047c-4.888,0-24.636-1.847-24.636-10.38V44.931c-1.727,0.135-3.473-0.014-4.403-0.919
				c-0.557-0.541-0.808-1.299-0.688-2.078l0.259-1.691l4.832,0.74l1.494,0.229c0.417-0.166,1.171-0.43,1.928-0.636
				c1.647-0.449,3.752-0.747,5.564-0.018c1.792,0.721,1.968,1.763,1.799,2.511c-0.385,1.715-2.322,1.783-5.45,1.749
				c-0.671-0.007-1.334-0.026-1.911-0.047v23.896c0,1.822,3.003,3.727,8.033,5.096c5.02,1.366,10.633,1.862,13.179,1.862
				c10.187,0,24.394-2.647,24.394-6.958c0-3.202-0.005-10.625-0.01-16.884c-3.725,2.321-7.018,2.42-9.279,2.007
				c-3.78-0.691-6.268-3.041-7.249-4.844c-0.879-1.614-2.871-10.849,0.448-16.527c1.667-2.851,4.427-4.384,7.98-4.433
				c3.152-0.056,5.765,0.949,7.74,2.951c3.822,3.874,3.784,10.166,3.774,10.705c0.001,0.727,0.018,21.099,0.018,27.024
				C101.829,78.928,74.29,79.047,74.012,79.047z M90.497,31.406c-0.051,0-0.102,0-0.153,0.001c-2.32,0.032-3.963,0.9-5.023,2.656
				c-2.542,4.209-1.007,12.144-0.444,13.25c0.646,1.186,2.443,2.669,4.856,3.11c2.816,0.515,5.806-0.475,8.66-2.864
				c-0.003-3.476-0.005-5.933-0.005-5.933l0.001-0.048c0.001-0.049,0.088-5.334-2.797-8.246
				C94.309,32.037,92.641,31.406,90.497,31.406z"/>
			<path fill="#FF0066" d="M52.797,40.576l-1.945,0.736l-1.476-0.329v-9.941c0-3.353,2.257-6.736,7.299-6.736
				c5.078,0,6.847,2.842,7.45,4.535c0.384,1.08,0.462,2.125,0.46,2.812c-0.004,1.49-0.245,1.959-0.719,2.344l-0.937,0.763
				l-1.033-0.627c-0.664-0.403-0.921-1.065-0.764-1.967c0.047-0.466,0.13-2.065-0.782-3.158c-0.708-0.849-1.945-1.278-3.677-1.278
				c-3.499,0-3.877,2.317-3.877,3.314L52.797,40.576L52.797,40.576z"/>
		</g>
	</g>
</g>
<g>
	<path fill="#888888" d="M106.026,75.029c0.471-0.096,1.208-0.169,1.921-0.169c1.063,0,1.74,0.181,2.235,0.592
		c0.435,0.314,0.689,0.798,0.689,1.449c0,0.773-0.532,1.474-1.377,1.776v0.036c0.773,0.181,1.679,0.809,1.679,2.029
		c0,0.701-0.278,1.232-0.701,1.631c-0.555,0.519-1.474,0.761-2.802,0.761c-0.737,0-1.28-0.048-1.643-0.096L106.026,75.029
		L106.026,75.029z M108.043,78.375c1.099,0,1.751-0.592,1.751-1.377c0-0.954-0.713-1.329-1.776-1.329
		c-0.483,0-0.761,0.024-0.93,0.072v2.634H108.043z M107.971,82.313c1.087,0,2.102-0.399,2.102-1.582c0-1.112-0.966-1.57-2.114-1.57
		h-0.87v3.104C107.307,82.301,107.585,82.313,107.971,82.313z"/>
	<path fill="#888888" d="M112.525,77.216h1.051v3.237c0,1.135,0.374,1.872,1.293,1.872c0.773,0,1.268-0.532,1.426-0.966
		c0.06-0.169,0.096-0.374,0.096-0.555v-3.587h1.051v4.252c0,0.616,0.024,1.123,0.048,1.594h-0.93l-0.06-0.954h-0.024
		c-0.266,0.447-0.857,1.087-1.945,1.087c-1.135,0-2.005-0.689-2.005-2.561L112.525,77.216L112.525,77.216z"/>
	<path fill="#888888" d="M119.06,81.987c0.314,0.193,0.87,0.41,1.401,0.41c0.773,0,1.135-0.374,1.135-0.87
		c0-0.507-0.302-0.773-1.087-1.063c-1.051-0.387-1.546-0.966-1.546-1.667c0-0.942,0.761-1.715,2.017-1.715
		c0.604,0,1.112,0.169,1.426,0.362l-0.254,0.773c-0.229-0.133-0.665-0.351-1.196-0.351c-0.628,0-0.979,0.374-0.979,0.809
		c0,0.483,0.338,0.701,1.112,1.002c1.002,0.374,1.534,0.87,1.534,1.751c0,1.027-0.798,1.764-2.187,1.764
		c-0.64,0-1.232-0.169-1.643-0.411L119.06,81.987z"/>
	<path fill="#888888" d="M123.856,75.573c0-0.362,0.278-0.664,0.665-0.664c0.399,0,0.652,0.29,0.652,0.664
		c0.012,0.362-0.254,0.652-0.676,0.652C124.109,76.225,123.856,75.935,123.856,75.573z M123.988,77.216h1.051v5.846h-1.051V77.216z"
		/>
	<path fill="#888888" d="M126.815,78.798c0-0.604-0.024-1.087-0.048-1.582h0.942l0.048,0.966h0.036
		c0.29-0.543,0.966-1.099,1.933-1.099c0.797,0,2.054,0.495,2.054,2.488v3.491h-1.051v-3.358c0-0.954-0.362-1.74-1.353-1.74
		c-0.701,0-1.232,0.483-1.426,1.087c-0.048,0.133-0.085,0.314-0.085,0.495v3.515h-1.051L126.815,78.798L126.815,78.798z"/>
	<path fill="#888888" d="M135.85,77.083c1.896,0,2.404,1.679,2.404,2.754c0,0.229-0.012,0.374-0.048,0.495h-4.095
		c0.024,1.437,0.93,2.029,1.993,2.029c0.773,0,1.232-0.133,1.631-0.302l0.181,0.761c-0.362,0.169-1.027,0.374-1.945,0.374
		c-1.8,0-2.875-1.196-2.875-2.948C133.096,78.472,134.134,77.083,135.85,77.083z M137.227,79.571
		c0.012-0.665-0.278-1.715-1.474-1.715c-1.075,0-1.546,0.979-1.631,1.715H137.227z"/>
	<path fill="#888888" d="M139.425,81.987c0.314,0.193,0.87,0.41,1.401,0.41c0.773,0,1.135-0.374,1.135-0.87
		c0-0.507-0.302-0.773-1.087-1.063c-1.051-0.387-1.546-0.966-1.546-1.667c0-0.942,0.761-1.715,2.017-1.715
		c0.604,0,1.112,0.169,1.426,0.362l-0.254,0.773c-0.229-0.133-0.665-0.351-1.196-0.351c-0.628,0-0.979,0.374-0.979,0.809
		c0,0.483,0.338,0.701,1.112,1.002c1.002,0.374,1.534,0.87,1.534,1.751c0,1.027-0.798,1.764-2.187,1.764
		c-0.64,0-1.232-0.169-1.643-0.411L139.425,81.987z"/>
	<path fill="#888888" d="M144.209,81.987c0.314,0.193,0.87,0.41,1.401,0.41c0.773,0,1.135-0.374,1.135-0.87
		c0-0.507-0.302-0.773-1.087-1.063c-1.051-0.387-1.546-0.966-1.546-1.667c0-0.942,0.761-1.715,2.017-1.715
		c0.604,0,1.111,0.169,1.425,0.362l-0.254,0.773c-0.229-0.133-0.665-0.351-1.196-0.351c-0.628,0-0.979,0.374-0.979,0.809
		c0,0.483,0.338,0.701,1.112,1.002c1.002,0.374,1.534,0.87,1.534,1.751c0,1.027-0.797,1.764-2.186,1.764
		c-0.64,0-1.232-0.169-1.643-0.411L144.209,81.987z"/>
	<path fill="#888888" d="M152.205,81.987c0.314,0.193,0.869,0.41,1.401,0.41c0.773,0,1.135-0.374,1.135-0.87
		c0-0.507-0.302-0.773-1.087-1.063c-1.051-0.387-1.546-0.966-1.546-1.667c0-0.942,0.761-1.715,2.017-1.715
		c0.604,0,1.111,0.169,1.425,0.362l-0.254,0.773c-0.229-0.133-0.665-0.351-1.196-0.351c-0.628,0-0.979,0.374-0.979,0.809
		c0,0.483,0.338,0.701,1.111,1.002c1.002,0.374,1.534,0.87,1.534,1.751c0,1.027-0.797,1.764-2.186,1.764
		c-0.64,0-1.232-0.169-1.643-0.411L152.205,81.987z"/>
	<path fill="#888888" d="M157.363,81.214v-3.189h-0.906v-0.809h0.906v-1.401l1.051-0.278v1.679h1.522v0.809h-1.522v3.152
		c0,0.725,0.205,1.135,0.797,1.135c0.278,0,0.471-0.036,0.616-0.085l0.048,0.809c-0.205,0.085-0.532,0.157-0.942,0.157
		c-0.495,0-0.906-0.157-1.16-0.447C157.484,82.41,157.363,81.902,157.363,81.214z"/>
	<path fill="#888888" d="M164.187,79.354v-0.133c0-0.483-0.144-1.353-1.329-1.353c-0.543,0-1.111,0.169-1.522,0.435l-0.254-0.701
		c0.495-0.314,1.208-0.52,1.933-0.52c1.788,0,2.223,1.22,2.223,2.404v2.174c0,0.507,0.024,1.002,0.085,1.401h-0.954l-0.096-0.737
		h-0.024c-0.326,0.447-0.954,0.87-1.788,0.87c-1.171,0-1.788-0.834-1.788-1.679C160.673,80.103,161.929,79.329,164.187,79.354z
		 M162.738,82.41c0.773,0,1.244-0.483,1.425-0.979c0.024-0.109,0.048-0.229,0.048-0.326v-1.027c-1.16-0.012-2.476,0.181-2.476,1.317
		C161.736,82.096,162.195,82.41,162.738,82.41z"/>
	<path fill="#888888" d="M166.942,79.039c0-0.688-0.012-1.268-0.048-1.824h0.942l0.036,1.16h0.036
		c0.278-0.798,0.918-1.293,1.631-1.293c0.121,0,0.205,0.012,0.302,0.036v1.003c-0.108-0.024-0.218-0.037-0.362-0.037
		c-0.749,0-1.281,0.568-1.426,1.365c-0.036,0.145-0.048,0.326-0.048,0.495v3.116h-1.063L166.942,79.039L166.942,79.039
		L166.942,79.039z"/>
	<path fill="#888888" d="M171.423,81.214v-3.189h-0.906v-0.809h0.906v-1.401l1.051-0.278v1.679h1.522v0.809h-1.522v3.152
		c0,0.725,0.205,1.135,0.797,1.135c0.278,0,0.471-0.036,0.617-0.085l0.048,0.809c-0.205,0.085-0.532,0.157-0.942,0.157
		c-0.495,0-0.906-0.157-1.16-0.447C171.543,82.41,171.423,81.902,171.423,81.214z"/>
	<path fill="#888888" d="M178.405,74.486h1.051v3.648h0.024c0.181-0.302,0.447-0.568,0.773-0.749
		c0.314-0.181,0.676-0.302,1.075-0.302c0.797,0,2.041,0.483,2.041,2.512v3.467h-1.051v-3.358c0-0.954-0.351-1.74-1.353-1.74
		c-0.701,0-1.232,0.495-1.426,1.063c-0.06,0.157-0.085,0.314-0.085,0.507v3.527h-1.051V74.486L178.405,74.486z"/>
	<path fill="#888888" d="M187.44,77.083c1.896,0,2.404,1.679,2.404,2.754c0,0.229-0.012,0.374-0.048,0.495h-4.095
		c0.024,1.437,0.93,2.029,1.993,2.029c0.773,0,1.232-0.133,1.63-0.302l0.181,0.761c-0.362,0.169-1.027,0.374-1.945,0.374
		c-1.8,0-2.875-1.196-2.875-2.948C184.686,78.472,185.725,77.083,187.44,77.083z M188.817,79.571
		c0.012-0.665-0.278-1.715-1.474-1.715c-1.075,0-1.546,0.979-1.63,1.715H188.817z"/>
	<path fill="#888888" d="M191.149,79.039c0-0.688-0.012-1.268-0.048-1.824h0.942l0.036,1.16h0.036
		c0.278-0.798,0.918-1.293,1.631-1.293c0.121,0,0.205,0.012,0.302,0.036v1.003c-0.108-0.024-0.218-0.037-0.362-0.037
		c-0.749,0-1.281,0.568-1.426,1.365c-0.036,0.145-0.048,0.326-0.048,0.495v3.116h-1.063L191.149,79.039L191.149,79.039
		L191.149,79.039z"/>
	<path fill="#888888" d="M197.321,77.083c1.896,0,2.404,1.679,2.404,2.754c0,0.229-0.012,0.374-0.048,0.495h-4.095
		c0.024,1.437,0.93,2.029,1.993,2.029c0.773,0,1.232-0.133,1.63-0.302l0.181,0.761c-0.362,0.169-1.027,0.374-1.945,0.374
		c-1.8,0-2.875-1.196-2.875-2.948C194.567,78.472,195.606,77.083,197.321,77.083z M198.698,79.571
		c0.012-0.665-0.278-1.715-1.474-1.715c-1.075,0-1.546,0.979-1.63,1.715H198.698z"/>
</g>
</svg>
