<?xml version="1.0" encoding="utf-8"?>
<!-- Generator: Adobe Illustrator 17.0.0, SVG Export Plug-In . SVG Version: 6.00 Build 0)  -->
<!DOCTYPE svg PUBLIC "-//W3C//DTD SVG 1.1//EN" "http://www.w3.org/Graphics/SVG/1.1/DTD/svg11.dtd" [
	<!ENTITY ns_extend "http://ns.adobe.com/Extensibility/1.0/">
	<!ENTITY ns_ai "http://ns.adobe.com/AdobeIllustrator/10.0/">
	<!ENTITY ns_graphs "http://ns.adobe.com/Graphs/1.0/">
	<!ENTITY ns_vars "http://ns.adobe.com/Variables/1.0/">
	<!ENTITY ns_imrep "http://ns.adobe.com/ImageReplacement/1.0/">
	<!ENTITY ns_sfw "http://ns.adobe.com/SaveForWeb/1.0/">
	<!ENTITY ns_custom "http://ns.adobe.com/GenericCustomNamespace/1.0/">
	<!ENTITY ns_adobe_xpath "http://ns.adobe.com/XPath/1.0/">
]>
<svg version="1.1" id="Layer_1" xmlns:x="&ns_extend;" xmlns:i="&ns_ai;" xmlns:graph="&ns_graphs;"
	 xmlns="http://www.w3.org/2000/svg" xmlns:xlink="http://www.w3.org/1999/xlink" x="0px" y="0px" width="1900px" height="1250px"
	 viewBox="0 0 1900 1250" enable-background="new 0 0 1900 1250" xml:space="preserve">
<metadata>
	<sfw  xmlns="&ns_sfw;">
		<slices></slices>
		<sliceSourceBounds  height="1257.198" width="1906.165" bottomLeftOrigin="true" y="-591.637" x="-913.5"></sliceSourceBounds>
	</sfw>
</metadata>
<g id="Layer_2">
	<polygon display="none" fill="#A2DDED" points="1632.091,1250 1900,1257 1900,-0.061 418.506,-0.057 	"/>
	<g>
		
			<linearGradient id="SVGID_1_" gradientUnits="userSpaceOnUse" x1="1194.054" y1="-457.632" x2="1194.054" y2="-457.632" gradientTransform="matrix(1 0 0 1 -532 459)">
			<stop  offset="0" style="stop-color:#FFFFFF"/>
			<stop  offset="1" style="stop-color:#E2E3E4"/>
		</linearGradient>
		<path fill="url(#SVGID_1_)" d="M662.054,1.368"/>
	</g>
	
		<linearGradient id="SVGID_2_" gradientUnits="userSpaceOnUse" x1="1327.5" y1="487.2361" x2="1327.5" y2="740.1227" gradientTransform="matrix(1 0 0 1 -532 459)">
		<stop  offset="0.0562" style="stop-color:#B5B3AA"/>
		<stop  offset="1" style="stop-color:#CECCC6"/>
	</linearGradient>
	<polygon fill="url(#SVGID_2_)" points="1591,1250 0,1250 0,-0.057 379.985,0 	"/>
	<polygon fill="#72768E" points="1.923,1180.017 1525.414,1180.017 1591,1250 1.923,1250 	"/>
	
		<radialGradient id="SVGID_3_" cx="1705.9446" cy="-401.2274" r="822.1597" gradientTransform="matrix(0.7513 -0.7493 0.9475 0.9449 -391.8496 2542.2095)" gradientUnits="userSpaceOnUse">
		<stop  offset="0" style="stop-color:#FFFFFF"/>
		<stop  offset="1" style="stop-color:#CCE9E5"/>
	</radialGradient>
	<polygon fill="url(#SVGID_3_)" points="0,0 0,1250 1591,1250 380.047,-0.061 	"/>
	<polygon fill="#D8D8D8" points="0.962,1002.524 1353.756,1002.524 1524.989,1180.442 1.923,1180.017 	"/>
</g>
<g id="Layer_7_1_">
	<g>
		<g>
			<polygon fill="#FFFFFF" points="115.758,1002.868 3.84,1001.774 3.84,462.683 115.758,462.683 			"/>
			<g>
				<rect x="-3" y="804.195" fill="#DAD8D4" width="121.141" height="3.634"/>
				<rect x="-3" y="811.464" fill="#DAD8D4" width="121.141" height="3.634"/>
			</g>
			<g>
				<polygon fill="#DAD8D4" points="118.141,468.608 0,468.632 0,464.848 118.141,464.973 				"/>
				<polygon fill="#DAD8D4" points="118.141,475.876 0,475.751 0,472.118 118.141,472.243 				"/>
			</g>
			<g>
				<rect x="-3" y="627.316" fill="#DAD8D4" width="121.141" height="3.634"/>
				<rect x="-3" y="634.584" fill="#DAD8D4" width="121.141" height="3.634"/>
			</g>
		</g>
		<g>
			<rect x="-3" y="987.134" fill="#DAD8D4" width="121.141" height="3.635"/>
		</g>
	</g>
	<g>
		<g>
			<polygon fill="#FFFFFF" points="847.894,1003.04 733.765,1002.643 733.765,463.552 845.683,463.552 			"/>
			<g>
				<rect x="726.925" y="805.065" fill="#DAD8D4" width="121.141" height="3.634"/>
				<rect x="726.925" y="812.333" fill="#DAD8D4" width="121.141" height="3.634"/>
			</g>
			<g>
				<rect x="726.925" y="465.842" fill="#DAD8D4" width="121.141" height="3.634"/>
				<rect x="726.925" y="473.112" fill="#DAD8D4" width="121.141" height="3.633"/>
			</g>
			<g>
				<rect x="726.925" y="628.185" fill="#DAD8D4" width="121.141" height="3.634"/>
				<rect x="726.925" y="635.453" fill="#DAD8D4" width="121.141" height="3.634"/>
			</g>
		</g>
		<g>
			<rect x="726.925" y="988.003" fill="#DAD8D4" width="121.141" height="3.635"/>
		</g>
	</g>
	<polygon fill="#DBE7A2" points="1350.142,1002.498 849.39,1002.498 849.39,471.795 856.296,489.839 	"/>
	<polygon opacity="0.82" fill="#9E6E49" enable-background="new    " points="851.963,478.984 851.963,471.795 854.889,471.795 
		869.521,471.795 876.591,471.795 883.57,478.984 869.521,478.984 869.521,923.453 1274.5,923.453 1353.756,1002.524 
		849.39,1002.498 849.39,966 849.033,927.047 849.033,482.577 	"/>
</g>
<g id="Layer_5">
	<g id="Layer_2_2_">
		<g>
			<path id="display_3_" opacity="0.2" fill="#231F20" enable-background="new    " d="M747.211,974.833l0.337-64.436l-12.005,0.014
				l2.792-420.985h19.472v-20.67H75.98l20.18,20.67l16.873,8.437v413.156l-11.263-0.523v71.888H72.783v20.484h714.713v-8.437
				v-19.548L747.211,974.833z M134.074,910.42V497.897h601.469v412.515H134.074V910.42z"/>
			<rect id="LINE_5_" x="86.053" y="798.197" fill="#E0E0D0" width="661.495" height="10.335"/>
			<rect id="LINE_4_" x="86.053" y="697.363" fill="#E0E0D0" width="661.495" height="10.335"/>
			<rect id="LINE_3_" x="86.053" y="583.064" fill="#E0E0D0" width="661.495" height="10.335"/>
			<path id="display_2_" fill="#9E6E49" d="M747.211,974.833v-72.892h-9.289l0.413-412.515h19.472v-20.67H75.98v20.67h20.18v413.156
				l-11.263-0.523v71.888H55.91v20.484h731.586v-19.548L747.211,974.833L747.211,974.833z M117.201,901.984V489.461H718.67v412.515
				H117.201V901.984z"/>
		</g>
	</g>
	<g id="Layer_5_1_">
		<g>
			<g opacity="0.2">
				<path fill="#231F20" d="M252.197,883.642c0,4.235-3.434,7.669-7.669,7.669H183.16c-4.235,0-7.669-3.434-7.669-7.669V845.29
					c0-4.235,3.434-7.669,7.669-7.669h61.368c4.235,0,7.669,3.434,7.669,7.669V883.642z"/>
			</g>
			<g>
				<path fill="#E0995E" d="M225.344,828.029v38.353h-23.015v-38.353H225.344 M225.344,820.36h-23.015
					c-4.235,0-7.669,3.434-7.669,7.669v38.353c0,4.235,3.434,7.669,7.669,7.669h23.015c4.235,0,7.669-3.434,7.669-7.669v-38.353
					C233.021,823.793,229.587,820.36,225.344,820.36L225.344,820.36z"/>
			</g>
			<g>
				<g>
					<path fill="#E0995E" d="M175.484,851.044v28.769c0,4.235,3.434,7.669,7.669,7.669h61.368c4.235,0,7.669-3.434,7.669-7.669
						v-28.769H175.484z"/>
				</g>
			</g>
			<g opacity="0.2">
				<path fill="#231F20" d="M252.197,845.29c0-4.235-3.434-7.669-7.669-7.669H183.16c-4.235,0-7.669,3.434-7.669,7.669v9.592h76.705
					v-9.592H252.197z"/>
			</g>
			<g opacity="0.2">
				<g>
					<path fill="#231F20" d="M229.182,858.712c0,4.235-3.434,7.669-7.669,7.669h-15.338c-4.235,0-7.669-3.434-7.669-7.669v-5.754
						c0-4.235,3.434-7.669,7.669-7.669h15.338c4.235,0,7.669,3.434,7.669,7.669C229.182,852.959,229.182,858.712,229.182,858.712z"
						/>
				</g>
			</g>
			<g>
				<path fill="#F5CF87" d="M221.514,849.12v5.754h-15.346v-5.754H221.514 M221.514,841.451h-15.346
					c-4.235,0-7.669,3.434-7.669,7.669v5.754c0,4.235,3.434,7.669,7.669,7.669h15.338c4.235,0,7.669-3.434,7.669-7.669v-5.754
					C229.182,844.885,225.749,841.451,221.514,841.451L221.514,841.451z"/>
			</g>
			<g>
				<path fill="#E0995E" d="M252.197,841.451c0-4.235-3.434-7.669-7.669-7.669H183.16c-4.235,0-7.669,3.434-7.669,7.669v9.592
					h76.705v-9.592H252.197z"/>
			</g>
		</g>
		<g>
			<g opacity="0.2">
				<path fill="#231F20" d="M345,883.642c0,4.235-3.434,7.669-7.669,7.669h-61.368c-4.235,0-7.669-3.434-7.669-7.669V845.29
					c0-4.235,3.434-7.669,7.669-7.669h61.368c4.235,0,7.669,3.434,7.669,7.669V883.642z"/>
			</g>
			<g>
				<path fill="#E0995E" d="M318.146,828.029v38.353h-23.015v-38.353H318.146 M318.146,820.36h-23.015
					c-4.235,0-7.669,3.434-7.669,7.669v38.353c0,4.235,3.434,7.669,7.669,7.669h23.015c4.235,0,7.669-3.434,7.669-7.669v-38.353
					C325.823,823.793,322.39,820.36,318.146,820.36L318.146,820.36z"/>
			</g>
			<g>
				<g>
					<path fill="#E0995E" d="M268.286,851.044v28.769c0,4.235,3.434,7.669,7.669,7.669h61.368c4.235,0,7.669-3.434,7.669-7.669
						v-28.769H268.286z"/>
				</g>
			</g>
			<g opacity="0.2">
				<path fill="#231F20" d="M345,845.29c0-4.235-3.434-7.669-7.669-7.669h-61.368c-4.235,0-7.669,3.434-7.669,7.669v9.592H345
					V845.29L345,845.29z"/>
			</g>
			<g opacity="0.2">
				<g>
					<path fill="#231F20" d="M321.985,858.712c0,4.235-3.434,7.669-7.669,7.669h-15.338c-4.235,0-7.669-3.434-7.669-7.669v-5.754
						c0-4.235,3.434-7.669,7.669-7.669h15.338c4.235,0,7.669,3.434,7.669,7.669C321.985,852.959,321.985,858.712,321.985,858.712z"
						/>
				</g>
			</g>
			<g>
				<path fill="#F5CF87" d="M314.316,849.12v5.754H298.97v-5.754H314.316 M314.316,841.451H298.97c-4.235,0-7.669,3.434-7.669,7.669
					v5.754c0,4.235,3.434,7.669,7.669,7.669h15.338c4.235,0,7.669-3.434,7.669-7.669v-5.754
					C321.985,844.885,318.551,841.451,314.316,841.451L314.316,841.451z"/>
			</g>
			<g>
				<path fill="#E0995E" d="M345,841.451c0-4.235-3.434-7.669-7.669-7.669h-61.368c-4.235,0-7.669,3.434-7.669,7.669v9.592H345
					V841.451L345,841.451z"/>
			</g>
		</g>
		<g>
			<g opacity="0.2">
				<path fill="#231F20" d="M437.802,883.642c0,4.235-3.434,7.669-7.669,7.669h-61.368c-4.235,0-7.669-3.434-7.669-7.669V845.29
					c0-4.235,3.434-7.669,7.669-7.669h61.368c4.235,0,7.669,3.434,7.669,7.669V883.642z"/>
			</g>
			<g>
				<path fill="#E0995E" d="M410.948,828.029v38.353h-23.015v-38.353H410.948 M410.948,820.36h-23.015
					c-4.235,0-7.669,3.434-7.669,7.669v38.353c0,4.235,3.434,7.669,7.669,7.669h23.015c4.235,0,7.669-3.434,7.669-7.669v-38.353
					C418.626,823.793,415.192,820.36,410.948,820.36L410.948,820.36z"/>
			</g>
			<g>
				<g>
					<path fill="#E0995E" d="M361.088,851.044v28.769c0,4.235,3.434,7.669,7.669,7.669h61.368c4.235,0,7.669-3.434,7.669-7.669
						v-28.769H361.088z"/>
				</g>
			</g>
			<g opacity="0.2">
				<path fill="#231F20" d="M437.802,845.29c0-4.235-3.434-7.669-7.669-7.669h-61.368c-4.235,0-7.669,3.434-7.669,7.669v9.592
					h76.705v-9.592H437.802z"/>
			</g>
			<g opacity="0.2">
				<g>
					<path fill="#231F20" d="M414.787,858.712c0,4.235-3.434,7.669-7.669,7.669H391.78c-4.235,0-7.669-3.434-7.669-7.669v-5.754
						c0-4.235,3.434-7.669,7.669-7.669h15.338c4.235,0,7.669,3.434,7.669,7.669C414.787,852.959,414.787,858.712,414.787,858.712z"
						/>
				</g>
			</g>
			<g>
				<path fill="#F5CF87" d="M407.118,849.12v5.754h-15.346v-5.754H407.118 M407.118,841.451h-15.346
					c-4.235,0-7.669,3.434-7.669,7.669v5.754c0,4.235,3.434,7.669,7.669,7.669h15.338c4.235,0,7.669-3.434,7.669-7.669v-5.754
					C414.787,844.885,411.353,841.451,407.118,841.451L407.118,841.451z"/>
			</g>
			<g>
				<path fill="#E0995E" d="M437.802,841.451c0-4.235-3.434-7.669-7.669-7.669h-61.368c-4.235,0-7.669,3.434-7.669,7.669v9.592
					h76.705v-9.592H437.802z"/>
			</g>
		</g>
		<g>
			<g opacity="0.2">
				<path fill="#231F20" d="M530.604,883.642c0,4.235-3.434,7.669-7.669,7.669h-61.368c-4.235,0-7.669-3.434-7.669-7.669V845.29
					c0-4.235,3.434-7.669,7.669-7.669h61.368c4.235,0,7.669,3.434,7.669,7.669V883.642z"/>
			</g>
			<g>
				<path fill="#E0995E" d="M503.751,828.029v38.353h-23.015v-38.353H503.751 M503.751,820.36h-23.015
					c-4.235,0-7.669,3.434-7.669,7.669v38.353c0,4.235,3.434,7.669,7.669,7.669h23.015c4.235,0,7.669-3.434,7.669-7.669v-38.353
					C511.428,823.793,507.994,820.36,503.751,820.36L503.751,820.36z"/>
			</g>
			<g>
				<g>
					<path fill="#E0995E" d="M453.891,851.044v28.769c0,4.235,3.434,7.669,7.669,7.669h61.368c4.235,0,7.669-3.434,7.669-7.669
						v-28.769H453.891z"/>
				</g>
			</g>
			<g opacity="0.2">
				<path fill="#231F20" d="M530.604,845.29c0-4.235-3.434-7.669-7.669-7.669h-61.368c-4.235,0-7.669,3.434-7.669,7.669v9.592
					h76.705L530.604,845.29L530.604,845.29z"/>
			</g>
			<g opacity="0.2">
				<g>
					<path fill="#231F20" d="M507.589,858.712c0,4.235-3.434,7.669-7.669,7.669h-15.338c-4.235,0-7.669-3.434-7.669-7.669v-5.754
						c0-4.235,3.434-7.669,7.669-7.669h15.338c4.235,0,7.669,3.434,7.669,7.669C507.589,852.959,507.589,858.712,507.589,858.712z"
						/>
				</g>
			</g>
			<g>
				<path fill="#F5CF87" d="M499.92,849.12v5.754h-15.346v-5.754H499.92 M499.92,841.451h-15.346c-4.235,0-7.669,3.434-7.669,7.669
					v5.754c0,4.235,3.434,7.669,7.669,7.669h15.338c4.235,0,7.669-3.434,7.669-7.669v-5.754
					C507.589,844.885,504.156,841.451,499.92,841.451L499.92,841.451z"/>
			</g>
			<g>
				<path fill="#E0995E" d="M530.604,841.451c0-4.235-3.434-7.669-7.669-7.669h-61.368c-4.235,0-7.669,3.434-7.669,7.669v9.592
					h76.705L530.604,841.451L530.604,841.451z"/>
			</g>
		</g>
		<g>
			<g opacity="0.2">
				<path fill="#231F20" d="M623.407,883.642c0,4.235-3.434,7.669-7.669,7.669H554.37c-4.235,0-7.669-3.434-7.669-7.669V845.29
					c0-4.235,3.434-7.669,7.669-7.669h61.368c4.235,0,7.669,3.434,7.669,7.669V883.642z"/>
			</g>
			<g>
				<path fill="#E0995E" d="M596.553,828.029v38.353h-23.015v-38.353H596.553 M596.553,820.36h-23.015
					c-4.235,0-7.669,3.434-7.669,7.669v38.353c0,4.235,3.434,7.669,7.669,7.669h23.015c4.235,0,7.669-3.434,7.669-7.669v-38.353
					C604.23,823.793,600.797,820.36,596.553,820.36L596.553,820.36z"/>
			</g>
			<g>
				<g>
					<path fill="#E0995E" d="M546.693,851.044v28.769c0,4.235,3.434,7.669,7.669,7.669h61.368c4.235,0,7.669-3.434,7.669-7.669
						v-28.769H546.693z"/>
				</g>
			</g>
			<g opacity="0.2">
				<path fill="#231F20" d="M623.407,845.29c0-4.235-3.434-7.669-7.669-7.669H554.37c-4.235,0-7.669,3.434-7.669,7.669v9.592h76.705
					L623.407,845.29L623.407,845.29z"/>
			</g>
			<g opacity="0.2">
				<g>
					<path fill="#231F20" d="M600.392,858.712c0,4.235-3.434,7.669-7.669,7.669h-15.338c-4.235,0-7.669-3.434-7.669-7.669v-5.754
						c0-4.235,3.434-7.669,7.669-7.669h15.338c4.235,0,7.669,3.434,7.669,7.669C600.392,852.959,600.392,858.712,600.392,858.712z"
						/>
				</g>
			</g>
			<g>
				<path fill="#F5CF87" d="M592.723,849.12v5.754h-15.346v-5.754H592.723 M592.723,841.451h-15.346
					c-4.235,0-7.669,3.434-7.669,7.669v5.754c0,4.235,3.434,7.669,7.669,7.669h15.338c4.235,0,7.669-3.434,7.669-7.669v-5.754
					C600.392,844.885,596.958,841.451,592.723,841.451L592.723,841.451z"/>
			</g>
			<g>
				<path fill="#E0995E" d="M623.407,841.451c0-4.235-3.434-7.669-7.669-7.669H554.37c-4.235,0-7.669,3.434-7.669,7.669v9.592
					h76.705L623.407,841.451L623.407,841.451z"/>
			</g>
		</g>
		<g>
			<g opacity="0.2">
				<path fill="#231F20" d="M716.209,883.642c0,4.235-3.434,7.669-7.669,7.669h-61.368c-4.235,0-7.669-3.434-7.669-7.669V845.29
					c0-4.235,3.434-7.669,7.669-7.669h61.368c4.235,0,7.669,3.434,7.669,7.669V883.642z"/>
			</g>
			<g>
				<path fill="#E0995E" d="M689.355,828.029v38.353H666.34v-38.353H689.355 M689.355,820.36H666.34
					c-4.235,0-7.669,3.434-7.669,7.669v38.353c0,4.235,3.434,7.669,7.669,7.669h23.015c4.235,0,7.669-3.434,7.669-7.669v-38.353
					C697.032,823.793,693.599,820.36,689.355,820.36L689.355,820.36z"/>
			</g>
			<g>
				<g>
					<path fill="#E0995E" d="M639.495,851.044v28.769c0,4.235,3.434,7.669,7.669,7.669h61.368c4.235,0,7.669-3.434,7.669-7.669
						v-28.769H639.495z"/>
				</g>
			</g>
			<g opacity="0.2">
				<path fill="#231F20" d="M716.209,845.29c0-4.235-3.434-7.669-7.669-7.669h-61.368c-4.235,0-7.669,3.434-7.669,7.669v9.592
					h76.705L716.209,845.29L716.209,845.29z"/>
			</g>
			<g opacity="0.2">
				<g>
					<path fill="#231F20" d="M693.194,858.712c0,4.235-3.434,7.669-7.669,7.669h-15.338c-4.235,0-7.669-3.434-7.669-7.669v-5.754
						c0-4.235,3.434-7.669,7.669-7.669h15.338c4.235,0,7.669,3.434,7.669,7.669C693.194,852.959,693.194,858.712,693.194,858.712z"
						/>
				</g>
			</g>
			<g>
				<path fill="#F5CF87" d="M685.525,849.12v5.754h-15.346v-5.754H685.525 M685.525,841.451h-15.346
					c-4.235,0-7.669,3.434-7.669,7.669v5.754c0,4.235,3.434,7.669,7.669,7.669h15.338c4.235,0,7.669-3.434,7.669-7.669v-5.754
					C693.194,844.885,689.76,841.451,685.525,841.451L685.525,841.451z"/>
			</g>
			<g>
				<path fill="#E0995E" d="M716.209,841.451c0-4.235-3.434-7.669-7.669-7.669h-61.368c-4.235,0-7.669,3.434-7.669,7.669v9.592
					h76.705L716.209,841.451L716.209,841.451z"/>
			</g>
		</g>
	</g>
	<g id="Layer_6">
		<g>
			<g opacity="0.2">
				<path fill="#231F20" d="M285.539,787.685c0,1.974-1.595,3.569-3.569,3.569h-64.202c-1.974,0-3.569-1.595-3.569-3.569l0,0
					c0-1.974,1.595-3.569,3.569-3.569h64.202C283.936,784.116,285.539,785.719,285.539,787.685L285.539,787.685z"/>
			</g>
			<g>
				<path fill="#E0995E" d="M285.539,784.116c0,1.974-1.595,3.569-3.569,3.569h-64.202c-1.974,0-3.569-1.595-3.569-3.569l0,0
					c0-1.974,1.595-3.569,3.569-3.569h64.202C283.936,780.556,285.539,782.15,285.539,784.116L285.539,784.116z"/>
			</g>
			<g>
				<path fill="#C75C5C" d="M233.814,737.749h-7.137c-2.953,0-5.349,2.396-5.349,5.349v30.321v1.78v5.349h5.349h7.137h5.349v-5.349
					v-1.78v-30.321C239.163,740.145,236.767,737.749,233.814,737.749z"/>
			</g>
			<g>
				<path fill="#E0E0D1" d="M273.053,730.611h-7.137c-2.953,0-5.349,2.396-5.349,5.349v37.45v1.78v5.349h5.349h7.137h5.349v-5.349
					v-1.78v-37.45C278.401,733.007,276.005,730.611,273.053,730.611z"/>
			</g>
			<g>
				<rect x="221.328" y="744.886" fill="#E0995E" width="17.835" height="5.349"/>
			</g>
			<g>
				<rect x="221.328" y="768.07" fill="#E0995E" width="17.835" height="5.349"/>
			</g>
			<g>
				<rect x="260.566" y="768.07" fill="#FFFFFF" width="17.835" height="5.349"/>
			</g>
			<g>
				<rect x="260.566" y="737.749" fill="#FFFFFF" width="17.835" height="5.349"/>
			</g>
			<g>
				<g opacity="0.2">
					<path fill="#231F20" d="M264.135,773.419V730.94c-2.075,0.734-3.569,2.7-3.569,5.02v37.45v1.78v5.349h3.569v-5.349V773.419z"/>
				</g>
				<g opacity="0.2">
					<path fill="#231F20" d="M239.163,773.419v-30.321c0-2.328-1.493-4.286-3.569-5.02v35.341v1.78v5.349h3.569v-5.349V773.419z"/>
				</g>
			</g>
			<g>
				<path fill="#4F5D73" d="M255.218,723.483H244.52c-2.953,0-5.349,2.396-5.349,5.349v44.587v1.78v5.349h5.349h10.698h5.349v-5.349
					v-1.78v-44.587C260.567,725.879,258.171,723.483,255.218,723.483z"/>
			</g>
			<g>
				<rect x="239.163" y="730.611" fill="#76C2AF" width="21.404" height="5.349"/>
			</g>
			<g>
				<rect x="239.163" y="768.07" fill="#76C2AF" width="21.404" height="5.349"/>
			</g>
		</g>
		<g>
			<g opacity="0.2">
				<path fill="#231F20" d="M378.341,787.685c0,1.974-1.594,3.569-3.569,3.569H310.57c-1.974,0-3.569-1.595-3.569-3.569l0,0
					c0-1.974,1.595-3.569,3.569-3.569h64.202C376.738,784.116,378.341,785.719,378.341,787.685L378.341,787.685z"/>
			</g>
			<g>
				<path fill="#E0995E" d="M378.341,784.116c0,1.974-1.594,3.569-3.569,3.569H310.57c-1.974,0-3.569-1.595-3.569-3.569l0,0
					c0-1.974,1.595-3.569,3.569-3.569h64.202C376.738,780.556,378.341,782.15,378.341,784.116L378.341,784.116z"/>
			</g>
			<g>
				<path fill="#C75C5C" d="M326.616,737.749h-7.137c-2.953,0-5.349,2.396-5.349,5.349v30.321v1.78v5.349h5.349h7.137h5.349v-5.349
					v-1.78v-30.321C331.965,740.145,329.569,737.749,326.616,737.749z"/>
			</g>
			<g>
				<path fill="#E0E0D1" d="M365.855,730.611h-7.137c-2.953,0-5.349,2.396-5.349,5.349v37.45v1.78v5.349h5.349h7.137h5.349v-5.349
					v-1.78v-37.45C371.204,733.007,368.808,730.611,365.855,730.611z"/>
			</g>
			<g>
				<rect x="314.13" y="744.886" fill="#E0995E" width="17.835" height="5.349"/>
			</g>
			<g>
				<rect x="314.13" y="768.07" fill="#E0995E" width="17.835" height="5.349"/>
			</g>
			<g>
				<rect x="353.369" y="768.07" fill="#FFFFFF" width="17.835" height="5.349"/>
			</g>
			<g>
				<rect x="353.369" y="737.749" fill="#FFFFFF" width="17.835" height="5.349"/>
			</g>
			<g>
				<g opacity="0.2">
					<path fill="#231F20" d="M356.937,773.419V730.94c-2.075,0.734-3.569,2.7-3.569,5.02v37.45v1.78v5.349h3.569v-5.349V773.419z"/>
				</g>
				<g opacity="0.2">
					<path fill="#231F20" d="M331.965,773.419v-30.321c0-2.328-1.493-4.286-3.569-5.02v35.341v1.78v5.349h3.569v-5.349V773.419z"/>
				</g>
			</g>
			<g>
				<path fill="#4F5D73" d="M348.02,723.483h-10.698c-2.953,0-5.349,2.396-5.349,5.349v44.587v1.78v5.349h5.349h10.698h5.349v-5.349
					v-1.78v-44.587C353.369,725.879,350.973,723.483,348.02,723.483z"/>
			</g>
			<g>
				<rect x="331.965" y="730.611" fill="#76C2AF" width="21.404" height="5.349"/>
			</g>
			<g>
				<rect x="331.965" y="768.07" fill="#76C2AF" width="21.404" height="5.349"/>
			</g>
		</g>
		<g>
			<g opacity="0.2">
				<path fill="#231F20" d="M471.143,787.685c0,1.974-1.595,3.569-3.569,3.569h-64.202c-1.974,0-3.569-1.595-3.569-3.569l0,0
					c0-1.974,1.594-3.569,3.569-3.569h64.202C469.54,784.116,471.143,785.719,471.143,787.685L471.143,787.685z"/>
			</g>
			<g>
				<path fill="#E0995E" d="M471.143,784.116c0,1.974-1.595,3.569-3.569,3.569h-64.202c-1.974,0-3.569-1.595-3.569-3.569l0,0
					c0-1.974,1.594-3.569,3.569-3.569h64.202C469.54,780.556,471.143,782.15,471.143,784.116L471.143,784.116z"/>
			</g>
			<g>
				<path fill="#C75C5C" d="M419.419,737.749h-7.137c-2.953,0-5.349,2.396-5.349,5.349v30.321v1.78v5.349h5.349h7.137h5.349v-5.349
					v-1.78v-30.321C424.768,740.145,422.371,737.749,419.419,737.749z"/>
			</g>
			<g>
				<path fill="#E0E0D1" d="M458.657,730.611h-7.137c-2.953,0-5.349,2.396-5.349,5.349v37.45v1.78v5.349h5.349h7.137h5.349v-5.349
					v-1.78v-37.45C464.006,733.007,461.61,730.611,458.657,730.611z"/>
			</g>
			<g>
				<rect x="406.933" y="744.886" fill="#E0995E" width="17.835" height="5.349"/>
			</g>
			<g>
				<rect x="406.933" y="768.07" fill="#E0995E" width="17.835" height="5.349"/>
			</g>
			<g>
				<rect x="446.171" y="768.07" fill="#FFFFFF" width="17.835" height="5.349"/>
			</g>
			<g>
				<rect x="446.171" y="737.749" fill="#FFFFFF" width="17.835" height="5.349"/>
			</g>
			<g>
				<g opacity="0.2">
					<path fill="#231F20" d="M449.74,773.419V730.94c-2.075,0.734-3.569,2.7-3.569,5.02v37.45v1.78v5.349h3.569v-5.349V773.419z"/>
				</g>
				<g opacity="0.2">
					<path fill="#231F20" d="M424.768,773.419v-30.321c0-2.328-1.493-4.286-3.569-5.02v35.341v1.78v5.349h3.569v-5.349V773.419z"/>
				</g>
			</g>
			<g>
				<path fill="#4F5D73" d="M440.822,723.483h-10.698c-2.953,0-5.349,2.396-5.349,5.349v44.587v1.78v5.349h5.349h10.698h5.349
					v-5.349v-1.78v-44.587C446.171,725.879,443.775,723.483,440.822,723.483z"/>
			</g>
			<g>
				<rect x="424.767" y="730.611" fill="#76C2AF" width="21.404" height="5.349"/>
			</g>
			<g>
				<rect x="424.767" y="768.07" fill="#76C2AF" width="21.404" height="5.349"/>
			</g>
		</g>
		<g>
			<g opacity="0.2">
				<path fill="#231F20" d="M563.946,787.685c0,1.974-1.595,3.569-3.569,3.569h-64.202c-1.974,0-3.569-1.595-3.569-3.569l0,0
					c0-1.974,1.595-3.569,3.569-3.569h64.202C562.343,784.116,563.946,785.719,563.946,787.685L563.946,787.685z"/>
			</g>
			<g>
				<path fill="#E0995E" d="M563.946,784.116c0,1.974-1.595,3.569-3.569,3.569h-64.202c-1.974,0-3.569-1.595-3.569-3.569l0,0
					c0-1.974,1.595-3.569,3.569-3.569h64.202C562.343,780.556,563.946,782.15,563.946,784.116L563.946,784.116z"/>
			</g>
			<g>
				<path fill="#C75C5C" d="M512.221,737.749h-7.137c-2.953,0-5.349,2.396-5.349,5.349v30.321v1.78v5.349h5.349h7.137h5.349v-5.349
					v-1.78v-30.321C517.57,740.145,515.174,737.749,512.221,737.749z"/>
			</g>
			<g>
				<path fill="#E0E0D1" d="M551.459,730.611h-7.137c-2.953,0-5.349,2.396-5.349,5.349v37.45v1.78v5.349h5.349h7.137h5.349v-5.349
					v-1.78v-37.45C556.808,733.007,554.412,730.611,551.459,730.611z"/>
			</g>
			<g>
				<rect x="499.735" y="744.886" fill="#E0995E" width="17.835" height="5.349"/>
			</g>
			<g>
				<rect x="499.735" y="768.07" fill="#E0995E" width="17.835" height="5.349"/>
			</g>
			<g>
				<rect x="538.973" y="768.07" fill="#FFFFFF" width="17.835" height="5.349"/>
			</g>
			<g>
				<rect x="538.973" y="737.749" fill="#FFFFFF" width="17.835" height="5.349"/>
			</g>
			<g>
				<g opacity="0.2">
					<path fill="#231F20" d="M542.542,773.419V730.94c-2.075,0.734-3.569,2.7-3.569,5.02v37.45v1.78v5.349h3.569v-5.349V773.419z"/>
				</g>
				<g opacity="0.2">
					<path fill="#231F20" d="M517.57,773.419v-30.321c0-2.328-1.493-4.286-3.569-5.02v35.341v1.78v5.349h3.569v-5.349V773.419z"/>
				</g>
			</g>
			<g>
				<path fill="#4F5D73" d="M533.625,723.483h-10.698c-2.953,0-5.349,2.396-5.349,5.349v44.587v1.78v5.349h5.349h10.698h5.349
					v-5.349v-1.78v-44.587C538.973,725.879,536.577,723.483,533.625,723.483z"/>
			</g>
			<g>
				<rect x="517.57" y="730.611" fill="#76C2AF" width="21.404" height="5.349"/>
			</g>
			<g>
				<rect x="517.57" y="768.07" fill="#76C2AF" width="21.404" height="5.349"/>
			</g>
		</g>
		<g>
			<g opacity="0.2">
				<path fill="#231F20" d="M656.748,787.685c0,1.974-1.595,3.569-3.569,3.569h-64.202c-1.974,0-3.569-1.595-3.569-3.569l0,0
					c0-1.974,1.595-3.569,3.569-3.569h64.202C655.145,784.116,656.748,785.719,656.748,787.685L656.748,787.685z"/>
			</g>
			<g>
				<path fill="#E0995E" d="M656.748,784.116c0,1.974-1.595,3.569-3.569,3.569h-64.202c-1.974,0-3.569-1.595-3.569-3.569l0,0
					c0-1.974,1.595-3.569,3.569-3.569h64.202C655.145,780.556,656.748,782.15,656.748,784.116L656.748,784.116z"/>
			</g>
			<g>
				<path fill="#C75C5C" d="M605.023,737.749h-7.137c-2.953,0-5.349,2.396-5.349,5.349v30.321v1.78v5.349h5.349h7.137h5.349v-5.349
					v-1.78v-30.321C610.372,740.145,607.976,737.749,605.023,737.749z"/>
			</g>
			<g>
				<path fill="#E0E0D1" d="M644.262,730.611h-7.137c-2.953,0-5.349,2.396-5.349,5.349v37.45v1.78v5.349h5.349h7.137h5.349v-5.349
					v-1.78v-37.45C649.611,733.007,647.215,730.611,644.262,730.611z"/>
			</g>
			<g>
				<rect x="592.537" y="744.886" fill="#E0995E" width="17.835" height="5.349"/>
			</g>
			<g>
				<rect x="592.537" y="768.07" fill="#E0995E" width="17.835" height="5.349"/>
			</g>
			<g>
				<rect x="631.776" y="768.07" fill="#FFFFFF" width="17.835" height="5.349"/>
			</g>
			<g>
				<rect x="631.776" y="737.749" fill="#FFFFFF" width="17.835" height="5.349"/>
			</g>
			<g>
				<g opacity="0.2">
					<path fill="#231F20" d="M635.344,773.419V730.94c-2.075,0.734-3.569,2.7-3.569,5.02v37.45v1.78v5.349h3.569v-5.349V773.419z"/>
				</g>
				<g opacity="0.2">
					<path fill="#231F20" d="M610.372,773.419v-30.321c0-2.328-1.493-4.286-3.569-5.02v35.341v1.78v5.349h3.569v-5.349V773.419z"/>
				</g>
			</g>
			<g>
				<path fill="#4F5D73" d="M626.427,723.483h-10.698c-2.953,0-5.349,2.396-5.349,5.349v44.587v1.78v5.349h5.349h10.698h5.349
					v-5.349v-1.78v-44.587C631.776,725.879,629.38,723.483,626.427,723.483z"/>
			</g>
			<g>
				<rect x="610.372" y="730.611" fill="#76C2AF" width="21.404" height="5.349"/>
			</g>
			<g>
				<rect x="610.372" y="768.07" fill="#76C2AF" width="21.404" height="5.349"/>
			</g>
		</g>
	</g>
	<g id="Layer_7">
		<g opacity="0.2">
			<path fill="#231F20" d="M254.349,685.569c0,2.042-1.654,3.695-3.695,3.695H213.66c-2.042,0-3.695-1.654-3.695-3.695l0,0
				c0-2.042,1.654-3.695,3.695-3.695h36.994C252.695,681.865,254.349,683.527,254.349,685.569L254.349,685.569z"/>
		</g>
		<g>
			<path fill="#FFFFFF" d="M254.349,681.865c0,2.042-1.654,3.695-3.695,3.695H213.66c-2.042,0-3.695-1.654-3.695-3.695l0,0
				c0-2.042,1.654-3.695,3.695-3.695h36.994C252.695,678.17,254.349,679.823,254.349,681.865L254.349,681.865z"/>
		</g>
		<g>
			<path fill="#E0E0D1" d="M241.407,667.076c0,0-1.848,11.094,5.551,11.094c0,0-36.994,0-29.595,0s5.551-11.094,5.551-11.094
				H241.407z"/>
		</g>
		<g opacity="0.2">
			<g>
				<path fill="#231F20" d="M269.146,663.372c0,4.083-3.316,7.399-7.399,7.399h-59.191c-4.083,0-7.399-3.316-7.399-7.399v-40.69
					c0-4.083,3.316-7.399,7.399-7.399h59.191c4.083,0,7.399,3.316,7.399,7.399V663.372z"/>
			</g>
		</g>
		<g>
			<g>
				<path fill="#4F5D73" d="M202.565,664.3c-2.548,0-4.623-2.075-4.623-4.623v-40.69c0-2.548,2.075-4.623,4.623-4.623h59.191
					c2.548,0,4.623,2.075,4.623,4.623v40.69c0,2.548-2.075,4.623-4.623,4.623H202.565z"/>
			</g>
			<g>
				<path fill="#FFFFFF" d="M261.748,617.131c1.021,0,1.848,0.827,1.848,1.848v40.69c0,1.021-0.827,1.848-1.848,1.848h-59.191
					c-1.021,0-1.848-0.827-1.848-1.848v-40.69c0-1.021,0.827-1.848,1.848-1.848H261.748 M261.748,611.58h-59.191
					c-4.083,0-7.399,3.316-7.399,7.399v40.69c0,4.083,3.316,7.399,7.399,7.399h59.191c4.083,0,7.399-3.316,7.399-7.399v-40.69
					C269.146,614.895,265.839,611.58,261.748,611.58L261.748,611.58z"/>
			</g>
		</g>
		<g opacity="0.2">
			<polygon fill="#FFFFFF" points="265.451,663.144 265.451,615.064 221.522,615.064 249.177,663.144 			"/>
		</g>
		<g opacity="0.2">
			<path fill="#231F20" d="M347.151,685.569c0,2.042-1.654,3.695-3.695,3.695h-36.994c-2.042,0-3.695-1.654-3.695-3.695l0,0
				c0-2.042,1.654-3.695,3.695-3.695h36.994C345.497,681.865,347.151,683.527,347.151,685.569L347.151,685.569z"/>
		</g>
		<g>
			<path fill="#FFFFFF" d="M347.151,681.865c0,2.042-1.654,3.695-3.695,3.695h-36.994c-2.042,0-3.695-1.654-3.695-3.695l0,0
				c0-2.042,1.654-3.695,3.695-3.695h36.994C345.497,678.17,347.151,679.823,347.151,681.865L347.151,681.865z"/>
		</g>
		<g>
			<path fill="#E0E0D1" d="M334.209,667.076c0,0-1.848,11.094,5.551,11.094c0,0-36.994,0-29.595,0s5.551-11.094,5.551-11.094
				H334.209z"/>
		</g>
		<g opacity="0.2">
			<g>
				<path fill="#231F20" d="M361.949,663.372c0,4.083-3.316,7.399-7.399,7.399h-59.191c-4.083,0-7.399-3.316-7.399-7.399v-40.69
					c0-4.083,3.316-7.399,7.399-7.399h59.191c4.083,0,7.399,3.316,7.399,7.399V663.372z"/>
			</g>
		</g>
		<g>
			<g>
				<path fill="#4F5D73" d="M295.367,664.3c-2.548,0-4.623-2.075-4.623-4.623v-40.69c0-2.548,2.075-4.623,4.623-4.623h59.191
					c2.548,0,4.623,2.075,4.623,4.623v40.69c0,2.548-2.075,4.623-4.623,4.623H295.367z"/>
			</g>
			<g>
				<path fill="#FFFFFF" d="M354.55,617.131c1.021,0,1.848,0.827,1.848,1.848v40.69c0,1.021-0.827,1.848-1.848,1.848h-59.191
					c-1.021,0-1.848-0.827-1.848-1.848v-40.69c0-1.021,0.827-1.848,1.848-1.848H354.55 M354.55,611.58h-59.191
					c-4.083,0-7.399,3.316-7.399,7.399v40.69c0,4.083,3.316,7.399,7.399,7.399h59.191c4.083,0,7.399-3.316,7.399-7.399v-40.69
					C361.949,614.895,358.642,611.58,354.55,611.58L354.55,611.58z"/>
			</g>
		</g>
		<g opacity="0.2">
			<polygon fill="#FFFFFF" points="358.254,663.144 358.254,615.064 314.324,615.064 341.979,663.144 			"/>
		</g>
	</g>
	<g id="Layer_8">
		<g>
			<g opacity="0.2">
				<line fill="none" x1="473.387" y1="614.035" x2="457.383" y2="685.164"/>
				<path fill="#231F20" d="M457.383,687.83c-0.194,0-0.388-0.025-0.591-0.068c-1.434-0.321-2.337-1.746-2.016-3.189l16.004-71.129
					c0.321-1.434,1.755-2.337,3.189-2.016s2.337,1.746,2.016,3.189l-16.004,71.129C459.703,686.986,458.607,687.83,457.383,687.83z"
					/>
			</g>
			<g opacity="0.2">
				<line fill="none" x1="489.392" y1="614.035" x2="503.616" y2="685.164"/>
				<path fill="#231F20" d="M503.616,687.83c-1.249,0-2.362-0.877-2.615-2.143l-14.224-71.129c-0.287-1.443,0.65-2.852,2.092-3.138
					c1.443-0.295,2.852,0.65,3.138,2.092l14.224,71.129c0.287,1.443-0.65,2.852-2.092,3.138
					C503.962,687.813,503.784,687.83,503.616,687.83z"/>
			</g>
			<g opacity="0.2">
				<path fill="#231F20" d="M480.499,687.83c-1.476,0-2.666-1.198-2.666-2.666v-29.562c0-1.476,1.198-2.666,2.666-2.666
					c1.476,0,2.666,1.198,2.666,2.666v29.562C483.165,686.632,481.967,687.83,480.499,687.83z"/>
			</g>
			<g>
				<line fill="none" x1="473.387" y1="610.475" x2="457.383" y2="681.603"/>
				<path fill="#E0995E" d="M457.383,684.269c-0.194,0-0.388-0.017-0.591-0.067c-1.434-0.321-2.337-1.755-2.016-3.189l16.004-71.129
					c0.321-1.434,1.755-2.328,3.189-2.016c1.434,0.321,2.337,1.755,2.016,3.189l-16.004,71.129
					C459.703,683.426,458.607,684.269,457.383,684.269z"/>
			</g>
			<g>
				<line fill="none" x1="489.392" y1="610.475" x2="503.616" y2="681.603"/>
				<path fill="#E0995E" d="M503.607,684.269c-1.249,0-2.362-0.877-2.615-2.143l-14.224-71.129c-0.287-1.443,0.65-2.852,2.092-3.138
					c1.434-0.287,2.852,0.65,3.138,2.092l14.224,71.129c0.287,1.443-0.65,2.852-2.092,3.138
					C503.962,684.253,503.784,684.269,503.607,684.269z"/>
			</g>
			<path fill="#E0995E" d="M480.499,684.269c-1.476,0-2.666-1.198-2.666-2.666v-29.562c0-1.476,1.198-2.666,2.666-2.666
				s2.666,1.198,2.666,2.666v29.562C483.165,683.08,481.967,684.269,480.499,684.269z"/>
			<path opacity="0.2" fill="#231F20" enable-background="new    " d="M510.728,660.698c0,1.729-1.696,3.13-3.78,3.13h-52.897
				c-2.084,0-3.78-1.4-3.78-3.13v-32.869c0-1.729,1.696-3.13,3.78-3.13h52.897c2.084,0,3.78,1.401,3.78,3.13V660.698z"/>
			<path fill="#FFFFFF" d="M510.728,657.137c0,1.729-1.696,3.13-3.78,3.13h-52.897c-2.084,0-3.78-1.401-3.78-3.13v-32.869
				c0-1.729,1.696-3.13,3.78-3.13h52.897c2.084,0,3.78,1.4,3.78,3.13V657.137z"/>
			<g opacity="0.2">
				<path fill="#231F20" d="M496.504,627.373h-32.008c-1.476,0-2.666-1.198-2.666-2.666c0-1.476,1.198-2.666,2.666-2.666h32.008
					c1.476,0,2.666,1.198,2.666,2.666S497.972,627.373,496.504,627.373z"/>
			</g>
			<g opacity="0.2">
				<path fill="#231F20" d="M496.504,666.485h-32.008c-1.476,0-2.666-1.198-2.666-2.666c0-1.476,1.198-2.666,2.666-2.666h32.008
					c1.476,0,2.666,1.198,2.666,2.666C499.17,665.296,497.972,666.485,496.504,666.485z"/>
			</g>
			<path fill="#F5CF87" d="M496.504,624.699h-32.008c-1.476,0-2.666-1.198-2.666-2.666s1.198-2.666,2.666-2.666h32.008
				c1.476,0,2.666,1.198,2.666,2.666S497.972,624.699,496.504,624.699z"/>
			<path fill="#F5CF87" d="M496.504,663.819h-32.008c-1.476,0-2.666-1.198-2.666-2.666s1.198-2.666,2.666-2.666h32.008
				c1.476,0,2.666,1.198,2.666,2.666C499.17,662.621,497.972,663.819,496.504,663.819z"/>
			<path fill="#C75C5C" d="M458.269,655.821c-0.472,0-0.953-0.127-1.392-0.388c-1.257-0.768-1.654-2.413-0.886-3.67
				c14.874-24.348,19.657-22.998,21.226-22.551c2.177,0.607,3.273,2.683,3.273,6.159c0,4.497,0,8.58,0.152,11.153
				c0.194-0.202,0.397-0.422,0.616-0.65c4.362-4.615,12.469-13.203,20.94-14.891c1.434-0.287,2.852,0.65,3.138,2.092
				c0.287,1.443-0.65,2.852-2.092,3.138c-6.8,1.358-14.157,9.145-18.105,13.33c-0.726,0.768-1.35,1.426-1.873,1.949
				c-0.759,0.768-2.784,2.784-5.155,1.805c-2.953-1.223-2.953-4.429-2.953-17.919c0-0.11,0-0.211-0.008-0.312
				c-2.995,2.404-9.145,10.537-14.612,19.48C460.041,655.366,459.163,655.821,458.269,655.821z"/>
		</g>
		<g>
			<g opacity="0.2">
				<line fill="none" x1="566.19" y1="614.035" x2="550.186" y2="685.164"/>
				<path fill="#231F20" d="M550.186,687.83c-0.194,0-0.388-0.025-0.591-0.068c-1.434-0.321-2.337-1.746-2.016-3.189l16.004-71.129
					c0.321-1.434,1.755-2.337,3.189-2.016s2.337,1.746,2.016,3.189l-16.004,71.129C552.506,686.986,551.409,687.83,550.186,687.83z"
					/>
			</g>
			<g opacity="0.2">
				<line fill="none" x1="582.194" y1="614.035" x2="596.418" y2="685.164"/>
				<path fill="#231F20" d="M596.418,687.83c-1.249,0-2.362-0.877-2.615-2.143l-14.224-71.129c-0.287-1.443,0.65-2.852,2.092-3.138
					c1.443-0.295,2.852,0.65,3.138,2.092l14.224,71.129c0.287,1.443-0.65,2.852-2.092,3.138
					C596.764,687.813,596.587,687.83,596.418,687.83z"/>
			</g>
			<g opacity="0.2">
				<path fill="#231F20" d="M573.302,687.83c-1.476,0-2.666-1.198-2.666-2.666v-29.562c0-1.476,1.198-2.666,2.666-2.666
					c1.476,0,2.666,1.198,2.666,2.666v29.562C575.968,686.632,574.77,687.83,573.302,687.83z"/>
			</g>
			<g>
				<line fill="none" x1="566.19" y1="610.475" x2="550.186" y2="681.603"/>
				<path fill="#E0995E" d="M550.186,684.269c-0.194,0-0.388-0.017-0.591-0.067c-1.434-0.321-2.337-1.755-2.016-3.189l16.004-71.129
					c0.321-1.434,1.755-2.328,3.189-2.016c1.434,0.321,2.337,1.755,2.016,3.189l-16.004,71.129
					C552.506,683.426,551.409,684.269,550.186,684.269z"/>
			</g>
			<g>
				<line fill="none" x1="582.194" y1="610.475" x2="596.418" y2="681.603"/>
				<path fill="#E0995E" d="M596.41,684.269c-1.249,0-2.362-0.877-2.615-2.143l-14.224-71.129c-0.287-1.443,0.65-2.852,2.092-3.138
					c1.434-0.287,2.852,0.65,3.138,2.092l14.224,71.129c0.287,1.443-0.65,2.852-2.092,3.138
					C596.764,684.253,596.587,684.269,596.41,684.269z"/>
			</g>
			<path fill="#E0995E" d="M573.302,684.269c-1.476,0-2.666-1.198-2.666-2.666v-29.562c0-1.476,1.198-2.666,2.666-2.666
				s2.666,1.198,2.666,2.666v29.562C575.968,683.08,574.77,684.269,573.302,684.269z"/>
			<path opacity="0.2" fill="#231F20" enable-background="new    " d="M603.53,660.698c0,1.729-1.696,3.13-3.78,3.13h-52.897
				c-2.084,0-3.78-1.4-3.78-3.13v-32.869c0-1.729,1.696-3.13,3.78-3.13h52.897c2.084,0,3.78,1.401,3.78,3.13V660.698z"/>
			<path fill="#FFFFFF" d="M603.53,657.137c0,1.729-1.696,3.13-3.78,3.13h-52.897c-2.084,0-3.78-1.401-3.78-3.13v-32.869
				c0-1.729,1.696-3.13,3.78-3.13h52.897c2.084,0,3.78,1.4,3.78,3.13V657.137z"/>
			<g opacity="0.2">
				<path fill="#231F20" d="M589.306,627.373h-32.008c-1.476,0-2.666-1.198-2.666-2.666c0-1.476,1.198-2.666,2.666-2.666h32.008
					c1.476,0,2.666,1.198,2.666,2.666S590.774,627.373,589.306,627.373z"/>
			</g>
			<g opacity="0.2">
				<path fill="#231F20" d="M589.306,666.485h-32.008c-1.476,0-2.666-1.198-2.666-2.666c0-1.476,1.198-2.666,2.666-2.666h32.008
					c1.476,0,2.666,1.198,2.666,2.666C591.972,665.296,590.774,666.485,589.306,666.485z"/>
			</g>
			<path fill="#F5CF87" d="M589.306,624.699h-32.008c-1.476,0-2.666-1.198-2.666-2.666s1.198-2.666,2.666-2.666h32.008
				c1.476,0,2.666,1.198,2.666,2.666S590.774,624.699,589.306,624.699z"/>
			<path fill="#F5CF87" d="M589.306,663.819h-32.008c-1.476,0-2.666-1.198-2.666-2.666s1.198-2.666,2.666-2.666h32.008
				c1.476,0,2.666,1.198,2.666,2.666C591.972,662.621,590.774,663.819,589.306,663.819z"/>
			<path fill="#C75C5C" d="M551.071,655.821c-0.472,0-0.953-0.127-1.392-0.388c-1.257-0.768-1.654-2.413-0.886-3.67
				c14.874-24.348,19.657-22.998,21.226-22.551c2.177,0.607,3.273,2.683,3.273,6.159c0,4.497,0,8.58,0.152,11.153
				c0.194-0.202,0.397-0.422,0.616-0.65c4.362-4.615,12.469-13.203,20.94-14.891c1.434-0.287,2.852,0.65,3.138,2.092
				c0.287,1.443-0.65,2.852-2.092,3.138c-6.8,1.358-14.157,9.145-18.105,13.33c-0.726,0.768-1.35,1.426-1.873,1.949
				c-0.759,0.768-2.784,2.784-5.155,1.805c-2.953-1.223-2.953-4.429-2.953-17.919c0-0.11,0-0.211-0.008-0.312
				c-2.995,2.404-9.145,10.537-14.612,19.48C552.843,655.366,551.966,655.821,551.071,655.821z"/>
		</g>
		<g>
			<g opacity="0.2">
				<line fill="none" x1="658.992" y1="614.035" x2="642.988" y2="685.164"/>
				<path fill="#231F20" d="M642.988,687.83c-0.194,0-0.388-0.025-0.591-0.068c-1.434-0.321-2.337-1.746-2.016-3.189l16.004-71.129
					c0.321-1.434,1.755-2.337,3.189-2.016s2.337,1.746,2.016,3.189l-16.004,71.129C645.308,686.986,644.211,687.83,642.988,687.83z"
					/>
			</g>
			<g opacity="0.2">
				<line fill="none" x1="674.996" y1="614.035" x2="689.22" y2="685.164"/>
				<path fill="#231F20" d="M689.22,687.83c-1.249,0-2.362-0.877-2.615-2.143l-14.224-71.129c-0.287-1.443,0.65-2.852,2.092-3.138
					c1.443-0.295,2.852,0.65,3.138,2.092l14.224,71.129c0.287,1.443-0.65,2.852-2.092,3.138
					C689.566,687.813,689.389,687.83,689.22,687.83z"/>
			</g>
			<g opacity="0.2">
				<path fill="#231F20" d="M666.104,687.83c-1.476,0-2.666-1.198-2.666-2.666v-29.562c0-1.476,1.198-2.666,2.666-2.666
					c1.476,0,2.666,1.198,2.666,2.666v29.562C668.77,686.632,667.572,687.83,666.104,687.83z"/>
			</g>
			<g>
				<line fill="none" x1="658.992" y1="610.475" x2="642.988" y2="681.603"/>
				<path fill="#E0995E" d="M642.988,684.269c-0.194,0-0.388-0.017-0.591-0.067c-1.434-0.321-2.337-1.755-2.016-3.189l16.004-71.129
					c0.321-1.434,1.755-2.328,3.189-2.016c1.434,0.321,2.337,1.755,2.016,3.189l-16.004,71.129
					C645.308,683.426,644.211,684.269,642.988,684.269z"/>
			</g>
			<g>
				<line fill="none" x1="674.996" y1="610.475" x2="689.22" y2="681.603"/>
				<path fill="#E0995E" d="M689.212,684.269c-1.249,0-2.362-0.877-2.615-2.143l-14.224-71.129c-0.287-1.443,0.65-2.852,2.092-3.138
					c1.434-0.287,2.852,0.65,3.138,2.092l14.224,71.129c0.287,1.443-0.65,2.852-2.092,3.138
					C689.566,684.253,689.389,684.269,689.212,684.269z"/>
			</g>
			<path fill="#E0995E" d="M666.104,684.269c-1.476,0-2.666-1.198-2.666-2.666v-29.562c0-1.476,1.198-2.666,2.666-2.666
				s2.666,1.198,2.666,2.666v29.562C668.77,683.08,667.572,684.269,666.104,684.269z"/>
			<path opacity="0.2" fill="#231F20" enable-background="new    " d="M696.332,660.698c0,1.729-1.696,3.13-3.78,3.13h-52.897
				c-2.084,0-3.78-1.4-3.78-3.13v-32.869c0-1.729,1.696-3.13,3.78-3.13h52.897c2.084,0,3.78,1.401,3.78,3.13V660.698z"/>
			<path fill="#FFFFFF" d="M696.332,657.137c0,1.729-1.696,3.13-3.78,3.13h-52.897c-2.084,0-3.78-1.401-3.78-3.13v-32.869
				c0-1.729,1.696-3.13,3.78-3.13h52.897c2.084,0,3.78,1.4,3.78,3.13V657.137z"/>
			<g opacity="0.2">
				<path fill="#231F20" d="M682.108,627.373H650.1c-1.476,0-2.666-1.198-2.666-2.666c0-1.476,1.198-2.666,2.666-2.666h32.008
					c1.476,0,2.666,1.198,2.666,2.666S683.576,627.373,682.108,627.373z"/>
			</g>
			<g opacity="0.2">
				<path fill="#231F20" d="M682.108,666.485H650.1c-1.476,0-2.666-1.198-2.666-2.666c0-1.476,1.198-2.666,2.666-2.666h32.008
					c1.476,0,2.666,1.198,2.666,2.666C684.774,665.296,683.576,666.485,682.108,666.485z"/>
			</g>
			<path fill="#F5CF87" d="M682.108,624.699H650.1c-1.476,0-2.666-1.198-2.666-2.666s1.198-2.666,2.666-2.666h32.008
				c1.476,0,2.666,1.198,2.666,2.666S683.576,624.699,682.108,624.699z"/>
			<path fill="#F5CF87" d="M682.108,663.819H650.1c-1.476,0-2.666-1.198-2.666-2.666s1.198-2.666,2.666-2.666h32.008
				c1.476,0,2.666,1.198,2.666,2.666S683.576,663.819,682.108,663.819z"/>
			<path fill="#C75C5C" d="M643.874,655.821c-0.472,0-0.953-0.127-1.392-0.388c-1.257-0.768-1.654-2.413-0.886-3.67
				c14.874-24.348,19.657-22.998,21.226-22.551c2.177,0.607,3.273,2.683,3.273,6.159c0,4.497,0,8.58,0.152,11.153
				c0.194-0.202,0.396-0.422,0.616-0.65c4.362-4.615,12.469-13.203,20.94-14.891c1.434-0.287,2.852,0.65,3.138,2.092
				c0.287,1.443-0.65,2.852-2.092,3.138c-6.8,1.358-14.157,9.145-18.105,13.33c-0.726,0.768-1.35,1.426-1.873,1.949
				c-0.759,0.768-2.784,2.784-5.155,1.805c-2.953-1.223-2.953-4.429-2.953-17.919c0-0.11,0-0.211-0.008-0.312
				c-2.995,2.404-9.145,10.537-14.612,19.48C645.645,655.366,644.768,655.821,643.874,655.821z"/>
		</g>
	</g>
	<g id="Layer_9">
		<g>
			<path fill="#4F5D73" d="M249.363,575.961h-25.951c-2.05,0-3.704-1.662-3.704-3.704s1.662-3.704,3.704-3.704h25.951
				c2.05,0,3.704,1.662,3.704,3.704S251.404,575.961,249.363,575.961z"/>
		</g>
		<g opacity="0.2">
			<path fill="#231F20" d="M260.482,512.948h-51.893c-2.05,0-3.704-1.662-3.704-3.704c0-2.05,1.662-3.704,3.704-3.704h51.893
				c2.05,0,3.704,1.662,3.704,3.704S262.524,512.948,260.482,512.948z"/>
		</g>
		<g>
			<line fill="none" x1="260.482" y1="506.46" x2="208.58" y2="506.46"/>
			<path fill="#FFFFFF" d="M260.482,509.236h-51.893c-1.535,0-2.784-1.24-2.784-2.784s1.24-2.784,2.784-2.784h51.893
				c1.535,0,2.784,1.24,2.784,2.784S262.018,509.236,260.482,509.236z"/>
		</g>
		<path opacity="0.2" fill="#231F20" enable-background="new    " d="M236.387,523.139c0-0.936,0.059-1.856,0.143-2.776
			c-0.051,0-0.093-0.008-0.143-0.008c-7.171,0-13.684,2.725-18.611,7.188c-0.726,0.658-2.354,2.067-4.826,2.067
			c-5.728,0-26.643-6.665-26.643,0c0,5.492,3.746,7.247,3.746,7.247l15.962,7.584c0,0,2.573,1.282,2.573,3.712
			c0,15.355,12.444,20.391,27.799,20.391c13.515,0,26.103-4.75,27.275-18.721C248.325,548.179,236.387,538.907,236.387,523.139z"/>
		<path fill="#4F5D73" d="M236.387,519.436c0-0.936,0.059-1.856,0.143-2.776c-0.051,0-0.093-0.008-0.143-0.008
			c-7.171,0-13.684,2.725-18.611,7.188c-0.726,0.658-2.354,2.084-4.826,2.084c-5.728,0-26.601,0-26.601,0l3.704,7.239l15.962,7.584
			c0,0,2.573,1.282,2.573,3.712c0,15.355,12.444,20.391,27.799,20.391c13.515,0,24.77-2.236,27.275-15.017
			C248.325,548.179,236.387,535.204,236.387,519.436z"/>
		<path opacity="0.2" fill="#231F20" enable-background="new    " d="M191.901,525.915c1.021,0,1.856,0.835,1.856,1.856
			s-0.835,1.856-1.856,1.856s-1.856-0.835-1.856-1.856S190.88,525.915,191.901,525.915 M191.901,518.508
			c-5.121,0-9.263,4.151-9.263,9.263s4.151,9.263,9.263,9.263c5.113,0,9.263-4.151,9.263-9.263S197.022,518.508,191.901,518.508
			L191.901,518.508z"/>
		<path fill="#FFFFFF" d="M191.901,520.355c2.042,0,3.704,1.662,3.704,3.704s-1.662,3.704-3.704,3.704s-3.704-1.662-3.704-3.704
			C188.198,522.017,189.86,520.355,191.901,520.355 M191.901,514.796c-5.121,0-9.263,4.151-9.263,9.263
			c0,5.121,4.151,9.263,9.263,9.263c5.121,0,9.263-4.151,9.263-9.263C201.173,518.946,197.022,514.796,191.901,514.796
			L191.901,514.796z"/>
		<path fill="#E0E0D1" d="M236.522,516.66c-0.084,0.911-0.143,1.839-0.143,2.776c0,15.768,11.938,28.743,27.275,30.397
			c0.337-1.738,0.532-3.535,0.532-5.374C264.186,529.146,251.818,516.736,236.522,516.66z"/>
		<g>
			<path fill="#4F5D73" d="M346.527,576.838h-25.951c-2.05,0-3.704-1.662-3.704-3.704s1.662-3.704,3.704-3.704h25.951
				c2.05,0,3.704,1.662,3.704,3.704C350.23,575.176,348.577,576.838,346.527,576.838z"/>
		</g>
		<g opacity="0.2">
			<path fill="#231F20" d="M357.646,513.825h-51.893c-2.05,0-3.704-1.662-3.704-3.704c0-2.042,1.662-3.704,3.704-3.704h51.893
				c2.05,0,3.704,1.662,3.704,3.704S359.696,513.825,357.646,513.825z"/>
		</g>
		<g>
			<line fill="none" x1="357.646" y1="507.338" x2="305.753" y2="507.338"/>
			<path fill="#FFFFFF" d="M357.646,510.113h-51.893c-1.535,0-2.784-1.24-2.784-2.784s1.24-2.784,2.784-2.784h51.893
				c1.535,0,2.784,1.24,2.784,2.784S359.182,510.113,357.646,510.113z"/>
		</g>
		<path opacity="0.2" fill="#231F20" enable-background="new    " d="M333.551,524.017c0-0.936,0.059-1.856,0.143-2.776
			c-0.051,0-0.093-0.008-0.143-0.008c-7.171,0-13.684,2.725-18.611,7.188c-0.726,0.658-2.354,2.067-4.826,2.067
			c-5.728,0-26.643-6.665-26.643,0c0,5.492,3.746,7.247,3.746,7.247l15.962,7.584c0,0,2.573,1.282,2.573,3.712
			c0,15.355,12.444,20.391,27.799,20.391c13.515,0,26.103-4.75,27.275-18.721C345.497,549.056,333.551,539.785,333.551,524.017z"/>
		<path fill="#4F5D73" d="M333.551,520.313c0-0.936,0.059-1.856,0.143-2.776c-0.051,0-0.093-0.008-0.143-0.008
			c-7.171,0-13.684,2.725-18.611,7.188c-0.726,0.658-2.354,2.084-4.826,2.084c-5.728,0-26.6,0-26.6,0l3.704,7.239l15.962,7.584
			c0,0,2.573,1.282,2.573,3.712c0,15.355,12.444,20.391,27.799,20.391c13.515,0,24.77-2.236,27.275-15.017
			C345.497,549.056,333.551,536.081,333.551,520.313z"/>
		<path opacity="0.2" fill="#231F20" enable-background="new    " d="M289.074,526.801c1.021,0,1.856,0.835,1.856,1.856
			s-0.835,1.856-1.856,1.856s-1.856-0.835-1.856-1.856C287.218,527.636,288.053,526.801,289.074,526.801 M289.074,519.385
			c-5.121,0-9.263,4.151-9.263,9.263s4.151,9.263,9.263,9.263s9.263-4.151,9.263-9.263S294.186,519.385,289.074,519.385
			L289.074,519.385z"/>
		<path fill="#FFFFFF" d="M289.074,521.241c2.042,0,3.704,1.662,3.704,3.704s-1.662,3.704-3.704,3.704s-3.704-1.662-3.704-3.704
			C285.362,522.903,287.024,521.241,289.074,521.241 M289.074,515.673c-5.121,0-9.263,4.151-9.263,9.263
			c0,5.121,4.151,9.263,9.263,9.263c5.121,0,9.263-4.151,9.263-9.263S294.186,515.673,289.074,515.673L289.074,515.673z"/>
		<path fill="#E0E0D1" d="M333.695,517.537c-0.084,0.911-0.143,1.839-0.143,2.776c0,15.768,11.938,28.743,27.275,30.397
			c0.337-1.738,0.531-3.535,0.531-5.374C361.358,530.024,348.982,517.613,333.695,517.537z"/>
	</g>
	<g id="Layer_10">
		<g opacity="0.2">
			<g>
				<path fill="#231F20" d="M501.456,570.435c0,3.855-3.13,6.985-6.986,6.985h-27.942c-3.855,0-6.986-3.13-6.986-6.985v-55.884
					c0-3.855,3.13-6.985,6.986-6.985h27.942c3.856,0,6.986,3.13,6.986,6.985V570.435z"/>
			</g>
		</g>
		<g>
			<g>
				<path fill="#4F5D73" d="M466.529,571.304c-2.404,0-4.362-1.957-4.362-4.362v-55.884c0-2.404,1.957-4.362,4.362-4.362h27.942
					c2.404,0,4.362,1.957,4.362,4.362v55.884c0,2.404-1.957,4.362-4.362,4.362H466.529z"/>
			</g>
			<g>
				<path fill="#FFFFFF" d="M494.47,509.312c0.962,0,1.746,0.785,1.746,1.746v55.884c0,0.962-0.785,1.746-1.746,1.746h-27.942
					c-0.962,0-1.746-0.785-1.746-1.746v-55.884c0-0.962,0.785-1.746,1.746-1.746H494.47 M494.47,504.073h-27.942
					c-3.855,0-6.986,3.13-6.986,6.985v55.884c0,3.856,3.13,6.985,6.986,6.985h27.942c3.856,0,6.986-3.13,6.986-6.985v-55.884
					C501.456,507.203,498.326,504.073,494.47,504.073L494.47,504.073z"/>
			</g>
		</g>
		<g opacity="0.2">
			<polygon fill="#FFFFFF" points="470.46,506.696 497.963,573.261 497.963,506.696 			"/>
		</g>
		<g>
			<polygon fill="#FFFFFF" points="494.47,573.927 466.529,573.927 459.543,559.956 501.456,559.956 			"/>
		</g>
		<g>
			<circle fill="#E0E0D1" cx="480.499" cy="566.942" r="3.493"/>
		</g>
		<g opacity="0.2">
			<g>
				<path fill="#231F20" d="M594.258,570.435c0,3.855-3.13,6.985-6.985,6.985h-27.942c-3.856,0-6.986-3.13-6.986-6.985v-55.884
					c0-3.855,3.13-6.985,6.986-6.985h27.942c3.856,0,6.985,3.13,6.985,6.985V570.435z"/>
			</g>
		</g>
		<g>
			<g>
				<path fill="#4F5D73" d="M559.331,571.304c-2.404,0-4.362-1.957-4.362-4.362v-55.884c0-2.404,1.957-4.362,4.362-4.362h27.942
					c2.404,0,4.362,1.957,4.362,4.362v55.884c0,2.404-1.957,4.362-4.362,4.362H559.331z"/>
			</g>
			<g>
				<path fill="#FFFFFF" d="M587.273,509.312c0.962,0,1.746,0.785,1.746,1.746v55.884c0,0.962-0.785,1.746-1.746,1.746h-27.942
					c-0.962,0-1.746-0.785-1.746-1.746v-55.884c0-0.962,0.785-1.746,1.746-1.746H587.273 M587.273,504.073h-27.942
					c-3.856,0-6.986,3.13-6.986,6.985v55.884c0,3.856,3.13,6.985,6.986,6.985h27.942c3.856,0,6.985-3.13,6.985-6.985v-55.884
					C594.258,507.203,591.128,504.073,587.273,504.073L587.273,504.073z"/>
			</g>
		</g>
		<g opacity="0.2">
			<polygon fill="#FFFFFF" points="563.262,506.696 590.765,573.261 590.765,506.696 			"/>
		</g>
		<g>
			<polygon fill="#FFFFFF" points="587.273,573.927 559.331,573.927 552.345,559.956 594.258,559.956 			"/>
		</g>
		<g>
			<circle fill="#E0E0D1" cx="573.302" cy="566.942" r="3.493"/>
		</g>
		<g opacity="0.2">
			<g>
				<path fill="#231F20" d="M687.06,570.435c0,3.855-3.13,6.985-6.986,6.985h-27.942c-3.855,0-6.985-3.13-6.985-6.985v-55.884
					c0-3.855,3.13-6.985,6.985-6.985h27.942c3.856,0,6.986,3.13,6.986,6.985V570.435z"/>
			</g>
		</g>
		<g>
			<g>
				<path fill="#4F5D73" d="M652.133,571.304c-2.404,0-4.362-1.957-4.362-4.362v-55.884c0-2.404,1.957-4.362,4.362-4.362h27.942
					c2.404,0,4.362,1.957,4.362,4.362v55.884c0,2.404-1.957,4.362-4.362,4.362H652.133z"/>
			</g>
			<g>
				<path fill="#FFFFFF" d="M680.075,509.312c0.962,0,1.746,0.785,1.746,1.746v55.884c0,0.962-0.785,1.746-1.746,1.746h-27.942
					c-0.962,0-1.746-0.785-1.746-1.746v-55.884c0-0.962,0.785-1.746,1.746-1.746H680.075 M680.075,504.073h-27.942
					c-3.855,0-6.985,3.13-6.985,6.985v55.884c0,3.856,3.13,6.985,6.985,6.985h27.942c3.856,0,6.986-3.13,6.986-6.985v-55.884
					C687.06,507.203,683.93,504.073,680.075,504.073L680.075,504.073z"/>
			</g>
		</g>
		<g opacity="0.2">
			<polygon fill="#FFFFFF" points="656.065,506.696 683.568,573.261 683.568,506.696 			"/>
		</g>
		<g>
			<polygon fill="#FFFFFF" points="680.075,573.927 652.133,573.927 645.148,559.956 687.06,559.956 			"/>
		</g>
		<g>
			<circle fill="#E0E0D1" cx="666.104" cy="566.942" r="3.493"/>
		</g>
	</g>
</g>
<g id="Layer_8_1_">
	<line fill="none" x1="202.159" y1="1001.213" x2="5.687" y2="1146.877"/>
	<line fill="none" x1="86.757" y1="1001.213" x2="5.687" y2="1042.605"/>
	<polyline fill="none" stroke="#3E566A" stroke-miterlimit="10" points="1203,1250 1202.568,1180.351 858.548,1001.213 	"/>
	<polyline fill="none" stroke="#3E566A" stroke-miterlimit="10" points="737.439,1001.213 980.821,1180.291 980.5,1250 	"/>
	<polyline fill="none" stroke="#3E566A" stroke-miterlimit="10" points="1424,1250 1423.568,1180.351 1079.548,1001.213 	"/>
	<polyline fill="none" stroke="#3E566A" stroke-miterlimit="10" points="621.667,1002.472 766.451,1180.013 767,1250 	"/>
	<polyline fill="none" stroke="#3E566A" stroke-miterlimit="10" points="152.5,1250 152.888,1180.059 296.684,1001.843 	"/>
	<polyline fill="none" stroke="#3E566A" stroke-miterlimit="10" points="403.666,1001.213 356.635,1180.017 356.5,1250 	"/>
	<polyline fill="none" stroke="#3E566A" stroke-miterlimit="10" points="524.778,1004.988 568.171,1180.014 568.5,1250 	"/>
</g>
<g id="Layer_6_1_">
</g>
<g id="Layer_3">
	
		<linearGradient id="SVGID_4_" gradientUnits="userSpaceOnUse" x1="1911.55" y1="55.527" x2="1993.557" y2="55.527" gradientTransform="matrix(1 0 0 1 -532 459)">
		<stop  offset="0" style="stop-color:#8E9093"/>
		<stop  offset="0.2529" style="stop-color:#ACAEB0"/>
		<stop  offset="0.5536" style="stop-color:#CACBCD"/>
		<stop  offset="0.8131" style="stop-color:#DCDDDE"/>
		<stop  offset="1" style="stop-color:#E2E3E4"/>
	</linearGradient>
	<polygon fill="url(#SVGID_4_)" points="1379.55,543.928 1402.417,550.293 1461.557,536.568 1461.557,488.224 1446.503,478.761 
		1446.013,526.609 	"/>
	
		<linearGradient id="SVGID_5_" gradientUnits="userSpaceOnUse" x1="1993.3843" y1="629.1525" x2="2435.5974" y2="629.1525" gradientTransform="matrix(1 0 0 1 -532 459)">
		<stop  offset="0" style="stop-color:#FFF1D7"/>
		<stop  offset="1" style="stop-color:#E2D1C0"/>
	</linearGradient>
	<polygon fill="url(#SVGID_5_)" points="1464.283,1077.061 1632.091,1250 1903.165,1249.915 1899.767,926.305 1570.252,926.451 
		1539.867,992.547 1503.235,1037.516 	"/>
	<g opacity="0.43">
		<line fill="none" stroke="#9A8168" stroke-width="1.2342" x1="1640.293" y1="927.567" x2="1503.235" y2="1117.271"/>
		<path fill="none" stroke="#9A8168" stroke-width="1.2342" d="M1697.605,928.328c0,0-129.972,265.087-124.157,261.236"/>
		<line fill="none" stroke="#9A8168" stroke-width="1.2342" x1="1760.275" y1="926.809" x2="1682.278" y2="1256.995"/>
		<line fill="none" stroke="#9A8168" stroke-width="1.2342" x1="1842.8" y1="926.809" x2="1821.548" y2="1255.064"/>
		<line fill="none" stroke="#9A8168" stroke-width="1.2342" x1="1573.448" y1="1189.564" x2="1902.787" y2="1189.564"/>
		<line fill="none" stroke="#9A8168" stroke-width="1.2342" x1="1444.342" y1="1097.088" x2="1900.858" y2="1102.869"/>
		<line fill="none" stroke="#9A8168" stroke-width="1.2342" x1="1503.235" y1="1037.516" x2="1900.858" y2="1037.369"/>
		<line fill="none" stroke="#9A8168" stroke-width="1.2342" x1="1540.951" y1="983.886" x2="1902.306" y2="983.9"/>
		<line fill="none" stroke="#9A8168" stroke-width="1.2342" x1="1562.347" y1="945.066" x2="1897.957" y2="941.995"/>
	</g>
	
		<linearGradient id="SVGID_6_" gradientUnits="userSpaceOnUse" x1="2035.235" y1="511.5805" x2="2431.2" y2="511.5805" gradientTransform="matrix(1 0 0 1 -532 459)">
		<stop  offset="0" style="stop-color:#67686B"/>
		<stop  offset="0.0492" style="stop-color:#6B6C6F"/>
		<stop  offset="0.4319" style="stop-color:#888A8C"/>
		<stop  offset="0.7621" style="stop-color:#9A9C9E"/>
		<stop  offset="1" style="stop-color:#A0A2A4"/>
	</linearGradient>
	<path fill="url(#SVGID_6_)" d="M1503.235,1037.516l72.434-30.103c0,0,63.734-54.832,323.288-25.703
		c0-50.969,0.243-78.065,0.243-78.065l-350.95,7.279L1503.235,1037.516z"/>
	
		<linearGradient id="SVGID_7_" gradientUnits="userSpaceOnUse" x1="2051.491" y1="20.5025" x2="2433.4399" y2="20.5025" gradientTransform="matrix(1 0 0 1 -532 459)">
		<stop  offset="0" style="stop-color:#67686B"/>
		<stop  offset="0.0492" style="stop-color:#6B6C6F"/>
		<stop  offset="0.4319" style="stop-color:#888A8C"/>
		<stop  offset="0.7621" style="stop-color:#9A9C9E"/>
		<stop  offset="1" style="stop-color:#A0A2A4"/>
	</linearGradient>
	<polygon fill="url(#SVGID_7_)" points="1519.491,516.066 1570.151,529.706 1899.171,481.754 1901.44,429.299 1559.785,449.123 	"/>
	
		<linearGradient id="SVGID_8_" gradientUnits="userSpaceOnUse" x1="1854.5632" y1="36.0315" x2="1999.1334" y2="36.0315" gradientTransform="matrix(1 0 0 1 -532 459)">
		<stop  offset="0" style="stop-color:#8E9093"/>
		<stop  offset="0.2529" style="stop-color:#ACAEB0"/>
		<stop  offset="0.5536" style="stop-color:#CACBCD"/>
		<stop  offset="0.8131" style="stop-color:#DCDDDE"/>
		<stop  offset="1" style="stop-color:#E2E3E4"/>
	</linearGradient>
	<polygon fill="url(#SVGID_8_)" points="1321.389,0.193 1379.55,0.193 1379.55,989.87 1320.733,926.911 	"/>
	
		<linearGradient id="SVGID_9_" gradientUnits="userSpaceOnUse" x1="2175.3164" y1="-23.6529" x2="2161.4536" y2="-236.2039" gradientTransform="matrix(1 0 0 1 -532 459)">
		<stop  offset="0" style="stop-color:#FFFFFF"/>
		<stop  offset="1" style="stop-color:#E2E3E4"/>
	</linearGradient>
	<path fill="url(#SVGID_9_)" d="M1368.907,0.193l25.357,983.707l70.018,93.161l29.493-605.454c0,0,197.77-117.96,408.694-60.797
		c0-84.32-2.704-410.616-2.704-410.616L1368.907,0.193L1368.907,0.193z"/>
	
		<linearGradient id="SVGID_10_" gradientUnits="userSpaceOnUse" x1="1353.7811" y1="-62.28" x2="1614.998" y2="-120.7613" gradientTransform="matrix(1 0 0 1 -532 459)">
		<stop  offset="0" style="stop-color:#FFFFFF"/>
		<stop  offset="1" style="stop-color:#E2E3E4"/>
	</linearGradient>
	<polyline fill="url(#SVGID_10_)" points="418.506,-0.057 1195.362,800.145 1195.362,0.193 663.235,0.193 	"/>
	<path fill="none" stroke="#FFF100" stroke-width="2.4683" d="M1098.582,803.848"/>
	
		<linearGradient id="SVGID_11_" gradientUnits="userSpaceOnUse" x1="2069.1624" y1="412.9051" x2="2110.1558" y2="-261.6401" gradientTransform="matrix(1 0 0 1 -532 459)">
		<stop  offset="0" style="stop-color:#67686B"/>
		<stop  offset="0.0492" style="stop-color:#6B6C6F"/>
		<stop  offset="0.4319" style="stop-color:#888A8C"/>
		<stop  offset="0.7621" style="stop-color:#9A9C9E"/>
		<stop  offset="1" style="stop-color:#A0A2A4"/>
	</linearGradient>
	<polygon fill="url(#SVGID_11_)" points="1538.209,977.682 1573.042,928.126 1566.95,527.309 1519.491,516.066 1525.811,955.997 	
		"/>
	
		<linearGradient id="SVGID_12_" gradientUnits="userSpaceOnUse" x1="2253.957" y1="415.1743" x2="2283.7825" y2="25.6385" gradientTransform="matrix(1 0 0 1 -532 459)">
		<stop  offset="0" style="stop-color:#67686B"/>
		<stop  offset="0.0492" style="stop-color:#6B6C6F"/>
		<stop  offset="0.4319" style="stop-color:#888A8C"/>
		<stop  offset="0.7621" style="stop-color:#9A9C9E"/>
		<stop  offset="1" style="stop-color:#A0A2A4"/>
	</linearGradient>
	<polygon fill="url(#SVGID_12_)" points="1566.691,527.606 1717.617,504.479 1899.767,479.181 1899.767,926.305 1571.372,928.126 	
		"/>
	
		<linearGradient id="SVGID_13_" gradientUnits="userSpaceOnUse" x1="2359.9131" y1="170.3882" x2="2244.2568" y2="355.0628" gradientTransform="matrix(1 0 0 1 -532 459)">
		<stop  offset="0" style="stop-color:#B68E6B"/>
		<stop  offset="0.083" style="stop-color:#AF8967"/>
		<stop  offset="0.6932" style="stop-color:#82694B"/>
		<stop  offset="1" style="stop-color:#705C40"/>
	</linearGradient>
	<polygon fill="url(#SVGID_13_)" points="1637.59,519.006 1901.415,479.181 1901.415,926.305 1641.819,927.567 	"/>
	
		<linearGradient id="SVGID_14_" gradientUnits="userSpaceOnUse" x1="1727.3621" y1="4.88" x2="1853.389" y2="4.88" gradientTransform="matrix(1 0 0 1 -532 459)">
		<stop  offset="0" style="stop-color:#FFFFFF"/>
		<stop  offset="1" style="stop-color:#E2E3E4"/>
	</linearGradient>
	<polygon fill="url(#SVGID_14_)" points="1195.362,0.193 1321.389,0.193 1321.389,927.567 1195.362,800.145 	"/>
	
		<linearGradient id="SVGID_15_" gradientUnits="userSpaceOnUse" x1="1523.944" y1="610.151" x2="1523.944" y2="610.151" gradientTransform="matrix(1 0 0 1 -532 459)">
		<stop  offset="0" style="stop-color:#FFFFFF"/>
		<stop  offset="1" style="stop-color:#E2E3E4"/>
	</linearGradient>
	<path fill="url(#SVGID_15_)" stroke="#808184" stroke-width="2.4683" d="M991.944,1069.151"/>
	
		<linearGradient id="SVGID_16_" gradientUnits="userSpaceOnUse" x1="1519.8401" y1="568.73" x2="1519.8401" y2="568.73" gradientTransform="matrix(1 0 0 1 -532 459)">
		<stop  offset="0" style="stop-color:#FFFFFF"/>
		<stop  offset="1" style="stop-color:#E2E3E4"/>
	</linearGradient>
	<path fill="url(#SVGID_16_)" stroke="#808184" stroke-width="2.4683" d="M987.84,1027.73"/>
	<g>
		
			<linearGradient id="SVGID_17_" gradientUnits="userSpaceOnUse" x1="2006.5764" y1="-304.2249" x2="2125.4937" y2="-339.9057" gradientTransform="matrix(0.9999 -0.0121 0.012 0.9999 -552.1547 511.1025)">
			<stop  offset="0" style="stop-color:#8E9093"/>
			<stop  offset="0.2529" style="stop-color:#ACAEB0"/>
			<stop  offset="0.5536" style="stop-color:#CACBCD"/>
			<stop  offset="0.8131" style="stop-color:#DCDDDE"/>
			<stop  offset="1" style="stop-color:#E2E3E4"/>
		</linearGradient>
		<polygon fill="url(#SVGID_17_)" points="1417.287,123.559 1417.054,266.553 1525.414,231.054 1524.635,86.001 		"/>
		
			<linearGradient id="SVGID_18_" gradientUnits="userSpaceOnUse" x1="2061.7371" y1="-388.5555" x2="1943.0676" y2="-172.4644" gradientTransform="matrix(1 0 0 1 -532 459)">
			<stop  offset="0" style="stop-color:#0F8EB2"/>
			<stop  offset="0.2062" style="stop-color:#4EA7C1"/>
			<stop  offset="0.4047" style="stop-color:#83BDCD"/>
			<stop  offset="0.5885" style="stop-color:#ACCDD7"/>
			<stop  offset="0.7547" style="stop-color:#CAD9DE"/>
			<stop  offset="0.8973" style="stop-color:#DCE0E2"/>
			<stop  offset="1" style="stop-color:#E2E3E4"/>
		</linearGradient>
		<polygon fill="url(#SVGID_18_)" points="1425.188,130.236 1515.195,97.298 1516.73,224.717 1425.284,256.155 		"/>
		
			<linearGradient id="SVGID_19_" gradientUnits="userSpaceOnUse" x1="1978.8654" y1="-292.1185" x2="2019.1151" y2="-304.1954" gradientTransform="matrix(0.9999 -0.0121 0.012 0.9999 -552.1547 511.1025)">
			<stop  offset="0" style="stop-color:#8E9093"/>
			<stop  offset="0.2529" style="stop-color:#ACAEB0"/>
			<stop  offset="0.5536" style="stop-color:#CACBCD"/>
			<stop  offset="0.8131" style="stop-color:#DCDDDE"/>
			<stop  offset="1" style="stop-color:#E2E3E4"/>
		</linearGradient>
		<polygon fill="url(#SVGID_19_)" points="1436.715,126.088 1437.918,256.178 1423.309,260.66 1422.406,129.477 		"/>
		<line fill="none" stroke="#757779" stroke-width="2.5431" x1="1467.406" y1="114.499" x2="1468.24" y2="241.503"/>
		<line fill="none" stroke="#757779" stroke-width="2.5431" x1="1434.875" y1="189.933" x2="1516.086" y2="165.195"/>
	</g>
	<g>
		
			<linearGradient id="SVGID_20_" gradientUnits="userSpaceOnUse" x1="1418.075" y1="-311.3465" x2="1536.9924" y2="-347.0273" gradientTransform="matrix(0.9999 -0.0121 0.012 0.9999 -552.1547 511.1025)">
			<stop  offset="0" style="stop-color:#8E9093"/>
			<stop  offset="0.2529" style="stop-color:#ACAEB0"/>
			<stop  offset="0.5536" style="stop-color:#CACBCD"/>
			<stop  offset="0.8131" style="stop-color:#DCDDDE"/>
			<stop  offset="1" style="stop-color:#E2E3E4"/>
		</linearGradient>
		<polygon fill="url(#SVGID_20_)" points="828.759,123.559 828.526,266.553 936.886,231.054 936.107,86.001 		"/>
		
			<linearGradient id="SVGID_21_" gradientUnits="userSpaceOnUse" x1="1473.2091" y1="-388.5554" x2="1354.5397" y2="-172.4644" gradientTransform="matrix(1 0 0 1 -532 459)">
			<stop  offset="0" style="stop-color:#0F8EB2"/>
			<stop  offset="0.2062" style="stop-color:#4EA7C1"/>
			<stop  offset="0.4047" style="stop-color:#83BDCD"/>
			<stop  offset="0.5885" style="stop-color:#ACCDD7"/>
			<stop  offset="0.7547" style="stop-color:#CAD9DE"/>
			<stop  offset="0.8973" style="stop-color:#DCE0E2"/>
			<stop  offset="1" style="stop-color:#E2E3E4"/>
		</linearGradient>
		<polygon fill="url(#SVGID_21_)" points="836.66,130.236 926.667,97.298 928.202,224.717 836.756,256.155 		"/>
		
			<linearGradient id="SVGID_22_" gradientUnits="userSpaceOnUse" x1="1390.3638" y1="-299.2401" x2="1430.6135" y2="-311.317" gradientTransform="matrix(0.9999 -0.0121 0.012 0.9999 -552.1547 511.1025)">
			<stop  offset="0" style="stop-color:#8E9093"/>
			<stop  offset="0.2529" style="stop-color:#ACAEB0"/>
			<stop  offset="0.5536" style="stop-color:#CACBCD"/>
			<stop  offset="0.8131" style="stop-color:#DCDDDE"/>
			<stop  offset="1" style="stop-color:#E2E3E4"/>
		</linearGradient>
		<polygon fill="url(#SVGID_22_)" points="848.187,126.088 849.39,256.178 834.781,260.66 833.878,129.477 		"/>
		<line fill="none" stroke="#757779" stroke-width="2.5431" x1="878.878" y1="114.499" x2="879.712" y2="241.503"/>
		<line fill="none" stroke="#757779" stroke-width="2.5431" x1="846.347" y1="189.933" x2="927.558" y2="165.195"/>
	</g>
	<g>
		<path fill="none" stroke="#757779" stroke-width="2.5431" d="M701.63,165.195"/>
	</g>
	<g>
		
			<linearGradient id="SVGID_23_" gradientUnits="userSpaceOnUse" x1="1651.0956" y1="-199.1349" x2="1751.6914" y2="-229.3184" gradientTransform="matrix(0.9999 -0.0121 0.012 0.9999 -552.1547 511.1025)">
			<stop  offset="0" style="stop-color:#8E9093"/>
			<stop  offset="0.2529" style="stop-color:#ACAEB0"/>
			<stop  offset="0.5536" style="stop-color:#CACBCD"/>
			<stop  offset="0.8131" style="stop-color:#DCDDDE"/>
			<stop  offset="1" style="stop-color:#E2E3E4"/>
		</linearGradient>
		<polygon fill="url(#SVGID_23_)" points="1068.227,242.039 1068.034,363.005 1159.697,332.974 1159.039,210.268 		"/>
		
			<linearGradient id="SVGID_24_" gradientUnits="userSpaceOnUse" x1="1682.6232" y1="-217.741" x2="1578.0918" y2="-86.6317" gradientTransform="matrix(1 0 0 1 -532 459)">
			<stop  offset="0" style="stop-color:#0F8EB2"/>
			<stop  offset="0.2062" style="stop-color:#4EA7C1"/>
			<stop  offset="0.4047" style="stop-color:#83BDCD"/>
			<stop  offset="0.5885" style="stop-color:#ACCDD7"/>
			<stop  offset="0.7547" style="stop-color:#CAD9DE"/>
			<stop  offset="0.8973" style="stop-color:#DCE0E2"/>
			<stop  offset="1" style="stop-color:#E2E3E4"/>
		</linearGradient>
		<polygon fill="url(#SVGID_24_)" points="1074.916,247.688 1151.061,219.823 1152.356,327.613 1074.997,354.204 		"/>
		
			<linearGradient id="SVGID_25_" gradientUnits="userSpaceOnUse" x1="1627.6573" y1="-188.8989" x2="1661.7046" y2="-199.1147" gradientTransform="matrix(0.9999 -0.0121 0.012 0.9999 -552.1547 511.1025)">
			<stop  offset="0" style="stop-color:#8E9093"/>
			<stop  offset="0.2529" style="stop-color:#ACAEB0"/>
			<stop  offset="0.5536" style="stop-color:#CACBCD"/>
			<stop  offset="0.8131" style="stop-color:#DCDDDE"/>
			<stop  offset="1" style="stop-color:#E2E3E4"/>
		</linearGradient>
		<polygon fill="url(#SVGID_25_)" points="1084.669,244.181 1085.676,354.226 1073.329,358.014 1072.561,247.042 		"/>
		<line fill="none" stroke="#757779" stroke-width="2.1513" x1="1110.623" y1="234.37" x2="1111.335" y2="341.818"/>
		<line fill="none" stroke="#757779" stroke-width="2.1513" x1="1083.114" y1="298.184" x2="1151.805" y2="277.261"/>
	</g>
	<line fill="none" stroke="#786450" stroke-width="2.4683" x1="1780.482" y1="499.58" x2="1780.482" y2="925.762"/>
	<polygon fill="none" stroke="#927B63" stroke-width="2.4683" points="1657.73,549.855 1760.979,533.861 1760.979,892.632 
		1665.761,896.058 	"/>
	<polygon fill="none" stroke="#9E846B" stroke-width="2.4683" points="1803.424,530.423 1897.494,517.861 1897.059,886.916 
		1804.567,891.489 	"/>
	
		<linearGradient id="SVGID_26_" gradientUnits="userSpaceOnUse" x1="2290.2664" y1="52.8152" x2="2186.1709" y2="313.0535" gradientTransform="matrix(1 0 0 1 -532 459)">
		<stop  offset="0" style="stop-color:#B68E6B"/>
		<stop  offset="0.083" style="stop-color:#AF8967"/>
		<stop  offset="0.6932" style="stop-color:#82694B"/>
		<stop  offset="1" style="stop-color:#705C40"/>
	</linearGradient>
	<polygon fill="url(#SVGID_26_)" points="1674.582,713.971 1669.922,559.76 1747.378,545.962 1749.8,705.897 	"/>
	
		<linearGradient id="SVGID_27_" gradientUnits="userSpaceOnUse" x1="2454.5574" y1="57.3456" x2="2292.5659" y2="294.5474" gradientTransform="matrix(1 0 0 1 -532 459)">
		<stop  offset="0" style="stop-color:#B68E6B"/>
		<stop  offset="0.083" style="stop-color:#AF8967"/>
		<stop  offset="0.6932" style="stop-color:#82694B"/>
		<stop  offset="1" style="stop-color:#705C40"/>
	</linearGradient>
	<polygon fill="url(#SVGID_27_)" points="1815.293,696.193 1814.525,541.687 1895.196,530.435 1895.203,689.249 	"/>
	
		<linearGradient id="SVGID_28_" gradientUnits="userSpaceOnUse" x1="2470.7664" y1="195.8163" x2="2317.4727" y2="453.2344" gradientTransform="matrix(1 0 0 1 -532 459)">
		<stop  offset="0" style="stop-color:#B68E6B"/>
		<stop  offset="0.083" style="stop-color:#AF8967"/>
		<stop  offset="0.6932" style="stop-color:#82694B"/>
		<stop  offset="1" style="stop-color:#705C40"/>
	</linearGradient>
	<polygon fill="url(#SVGID_28_)" points="1817.579,880.381 1816.056,708.367 1896.351,702.96 1897.494,876.633 	"/>
	
		<linearGradient id="SVGID_29_" gradientUnits="userSpaceOnUse" x1="2343.2656" y1="149.392" x2="2198.668" y2="432.8027" gradientTransform="matrix(1 0 0 1 -532 459)">
		<stop  offset="0" style="stop-color:#B68E6B"/>
		<stop  offset="0.083" style="stop-color:#AF8967"/>
		<stop  offset="0.6932" style="stop-color:#82694B"/>
		<stop  offset="1" style="stop-color:#705C40"/>
	</linearGradient>
	<polygon fill="url(#SVGID_29_)" points="1673.143,723.528 1749.513,716.67 1751.099,881.902 1677.735,884.629 	"/>
	
		<linearGradient id="SVGID_30_" gradientUnits="userSpaceOnUse" x1="1927.7684" y1="-835.8813" x2="1886.1042" y2="875.2669" gradientTransform="matrix(1 0 0 1 -532 459)">
		<stop  offset="0" style="stop-color:#8E9093"/>
		<stop  offset="0.2529" style="stop-color:#ACAEB0"/>
		<stop  offset="0.5536" style="stop-color:#CACBCD"/>
		<stop  offset="0.8131" style="stop-color:#DCDDDE"/>
		<stop  offset="1" style="stop-color:#E2E3E4"/>
	</linearGradient>
	<polygon fill="url(#SVGID_30_)" points="1394.265,1005.026 1402.417,0.193 1354.443,0.193 1350.142,958.391 	"/>
	
		<linearGradient id="SVGID_31_" gradientUnits="userSpaceOnUse" x1="1978.0377" y1="90.653" x2="1985.7461" y2="142.6593" gradientTransform="matrix(1 0 0 1 -532 459)">
		<stop  offset="0" style="stop-color:#757779"/>
		<stop  offset="0.0992" style="stop-color:#909293"/>
		<stop  offset="0.2265" style="stop-color:#AAACAE"/>
		<stop  offset="0.366" style="stop-color:#BFC1C2"/>
		<stop  offset="0.5219" style="stop-color:#CED0D1"/>
		<stop  offset="0.7075" style="stop-color:#D6D8D9"/>
		<stop  offset="1" style="stop-color:#D9DBDC"/>
	</linearGradient>
	<polygon opacity="0.64" fill="url(#SVGID_31_)" enable-background="new    " points="1402.417,550.293 1414.84,564.939 
		1430.382,567.89 1475.879,560.514 1484.758,550.199 1483.28,505.98 1461.557,488.224 	"/>
	
		<linearGradient id="SVGID_32_" gradientUnits="userSpaceOnUse" x1="1960.1591" y1="49.6007" x2="1923.2668" y2="60.0297" gradientTransform="matrix(1 0 0 1 -532 459)">
		<stop  offset="0" style="stop-color:#FFFFFF"/>
		<stop  offset="1" style="stop-color:#E2E3E4"/>
	</linearGradient>
	<polygon fill="url(#SVGID_32_)" points="1380.13,496.515 1446.503,478.761 1446.503,529.078 1379.145,543.877 	"/>
	
		<linearGradient id="SVGID_33_" gradientUnits="userSpaceOnUse" x1="1980.2958" y1="49.1926" x2="2019.3412" y2="48.3027" gradientTransform="matrix(1 0 0 1 -532 459)">
		<stop  offset="0" style="stop-color:#8E9093"/>
		<stop  offset="0.2529" style="stop-color:#ACAEB0"/>
		<stop  offset="0.5536" style="stop-color:#CACBCD"/>
		<stop  offset="0.8131" style="stop-color:#DCDDDE"/>
		<stop  offset="1" style="stop-color:#E2E3E4"/>
	</linearGradient>
	<polygon fill="url(#SVGID_33_)" points="1447.094,479.652 1445.603,526.105 1461.348,536.463 1461.557,488.224 	"/>
	
		<linearGradient id="SVGID_34_" gradientUnits="userSpaceOnUse" x1="1946.2693" y1="76.8269" x2="2090.8726" y2="112.3134" gradientTransform="matrix(1 0 0 1 -532 459)">
		<stop  offset="0" style="stop-color:#8E9093"/>
		<stop  offset="0.2529" style="stop-color:#ACAEB0"/>
		<stop  offset="0.5536" style="stop-color:#CACBCD"/>
		<stop  offset="0.8131" style="stop-color:#DCDDDE"/>
		<stop  offset="1" style="stop-color:#E2E3E4"/>
	</linearGradient>
	<polygon fill="url(#SVGID_34_)" points="1445.603,526.105 1461.348,536.463 1403.73,550.652 1379.145,543.877 	"/>
	
		<linearGradient id="SVGID_35_" gradientUnits="userSpaceOnUse" x1="2079.3672" y1="641.4442" x2="2273.1299" y2="106.4286" gradientTransform="matrix(1 0 0 1 -532 459)">
		<stop  offset="0" style="stop-color:#B68E6B"/>
		<stop  offset="0.083" style="stop-color:#AF8967"/>
		<stop  offset="0.6932" style="stop-color:#82694B"/>
		<stop  offset="1" style="stop-color:#705C40"/>
	</linearGradient>
	<polygon fill="url(#SVGID_35_)" points="1899.772,490.207 1638.082,528.819 1641.819,927.567 1629.197,927.008 1626.775,518.365 
		1899.171,481.754 	"/>
	
		<linearGradient id="SVGID_36_" gradientUnits="userSpaceOnUse" x1="2027.387" y1="-14.4569" x2="2434.47" y2="-14.4569" gradientTransform="matrix(1 0 0 1 -532 459)">
		<stop  offset="0" style="stop-color:#8E9093"/>
		<stop  offset="0.2529" style="stop-color:#ACAEB0"/>
		<stop  offset="0.5536" style="stop-color:#CACBCD"/>
		<stop  offset="0.8131" style="stop-color:#DCDDDE"/>
		<stop  offset="1" style="stop-color:#E2E3E4"/>
	</linearGradient>
	<path fill="url(#SVGID_36_)" d="M1495.387,471.131l37.645,24.241c0,0,141.19-85.899,367.63-49.557
		c1.808-44.08,1.808-35.007,1.808-35.007S1722.11,345.172,1495.387,471.131z"/>
	
		<linearGradient id="SVGID_37_" gradientUnits="userSpaceOnUse" x1="2026.455" y1="294.8525" x2="2071.8669" y2="294.8525" gradientTransform="matrix(1 0 0 1 -532 459)">
		<stop  offset="0" style="stop-color:#8E9093"/>
		<stop  offset="0.2529" style="stop-color:#ACAEB0"/>
		<stop  offset="0.5536" style="stop-color:#CACBCD"/>
		<stop  offset="0.8131" style="stop-color:#DCDDDE"/>
		<stop  offset="1" style="stop-color:#E2E3E4"/>
	</linearGradient>
	<polygon fill="url(#SVGID_37_)" points="1533.033,495.372 1539.867,992.547 1503.235,1037.516 1494.455,470.189 	"/>
</g>
<g id="Layer_9_1_">
	<polygon fill="#4D4D4D" points="407,-0.061 845.683,465.842 0,465.842 0,0 	"/>
	<polygon fill="#4D4D4D" points="1633.67,1250 1591,1250.773 379.985,0 418.502,-0.053 	"/>
</g>
<g id="Layer_10_1_">
	<polygon opacity="0.5" fill="#FFF3E6" enable-background="new    " points="236.625,454 179.851,454 179.851,398.079 0,50.478 0,0 
		30.303,-0.061 236.618,398.079 	"/>
	<polygon opacity="0.5" fill="#FFF3E6" enable-background="new    " points="115.625,454 58.851,454 58.851,398.079 0,284.202 
		0,174.827 115.618,398.079 	"/>
	<polygon opacity="0.5" fill="#FFF3E6" enable-background="new    " points="367.625,454 310.851,454 310.851,398.079 103.833,0 
		131,0 161.303,-0.061 367.618,398.079 	"/>
	<polygon opacity="0.5" fill="#FFF3E6" enable-background="new    " points="498.625,454 441.851,454 441.851,398.079 234.833,0 
		262,0 292.303,-0.061 498.618,398.079 	"/>
	<polygon opacity="0.5" fill="#FFF3E6" enable-background="new    " points="619.625,454 562.851,454 562.851,398.079 355.833,0 
		383,0 413.303,-0.061 619.618,398.079 	"/>
	<polygon opacity="0.5" fill="#FFF3E6" enable-background="new    " points="740.625,454 683.851,454 683.851,398.079 
		543.878,128.921 666.517,255.082 740.618,398.079 	"/>
</g>
<g id="Layer_4">
	<g>
		<g>
			
				<rect x="1600.643" y="813.718" transform="matrix(0.8963 0.4435 -0.4435 0.8963 537.882 -628.9515)" fill="#FCE2CC" width="25.876" height="43.495"/>
			<path fill="#221F1F" d="M1615.527,864.725c-0.614,0-1.225-0.14-1.786-0.418l-23.19-11.476c-1.993-0.986-2.809-3.401-1.823-5.394
				l19.289-38.981c0.987-1.996,3.402-2.811,5.396-1.823l23.19,11.474c0.957,0.474,1.687,1.307,2.029,2.319
				c0.342,1.013,0.268,2.119-0.205,3.075l-19.288,38.983c-0.474,0.958-1.308,1.688-2.32,2.029
				C1616.397,864.654,1615.961,864.725,1615.527,864.725z M1597.732,847.399l15.971,7.903l15.716-31.764l-15.971-7.902
				L1597.732,847.399z"/>
		</g>
		<g>
			<path fill="#68331C" d="M1456.057,1009.602c0,0-19.995,16.932-28.882,13.063c-8.887-3.868,32.266-57.773,32.266-57.773
				l18.397,18.645L1456.057,1009.602z"/>
			<path fill="#221F1F" d="M1430.153,1026.436c-1.524,0-2.961-0.252-4.265-0.818c-1.488-0.648-2.542-1.91-2.97-3.555
				c-2.633-10.138,25.329-47.82,33.961-59.128l2.25-2.946l23.056,23.368l-24.047,28.703
				C1455.004,1014.715,1440.565,1026.436,1430.153,1026.436z M1429.11,1019.919c5.205,1.177,17.485-6.586,24.656-12.6l19.723-23.603
				l-13.728-13.914C1440.502,995.382,1429.209,1015.06,1429.11,1019.919z"/>
		</g>
		<g>
			<path fill="#68331C" d="M1688.782,992.467c0,0,20.027-17.288,29.547-15.481c9.52,1.808-24.779,56.395-24.779,56.395
				l-20.176-9.544L1688.782,992.467z"/>
			<path fill="#221F1F" d="M1694.756,1037.516l-25.716-12.163l17.14-34.896l0.496-0.428c20.183-17.423,30.409-16.555,32.254-16.207
				c1.707,0.324,3.033,1.387,3.733,2.994c3.783,8.679-17.191,43.648-26.385,58.281L1694.756,1037.516z M1677.706,1022.323
				l14.628,6.92c12.428-20.071,24.57-43.211,24.497-49.175c-5.838-0.05-17.965,8.059-25.451,14.416L1677.706,1022.323z"/>
		</g>
		<g>
			<path fill="#24A0DA" d="M1599.392,825.099c-19.974,23.47-86.708,84.536-65.913,128.405c-0.004,16.402-4.108,22.439-19.33,40.561
				c-17.317-3.878-21.984-2.596-35.474-10.316c-4.882,5.849-8.12,11.944-16.119,20.31c4.027,4.027,43.539,26.906,59.562,26.906
				c12.081-7.726,41.086-38.072,49.484-47.872c22.887,7.031,82,26.931,102.311,40.113c6.869-7.348,10.515-19.64,13.563-28.136
				c-33.454-12.351-68.731-35.138-73.727-49.14c-6.663-18.674,50.024-61.682,41-79.336
				C1636.361,830.622,1599.392,825.099,1599.392,825.099z"/>
			<path fill="#221F1F" d="M1523.059,1034.187h-0.942c-17.018,0-57.002-23.011-61.839-27.85l-2.228-2.228l2.176-2.276
				c4.9-5.125,7.895-9.284,10.792-13.308c1.703-2.364,3.311-4.598,5.182-6.84l1.73-2.073l2.344,1.34
				c9.192,5.262,13.849,6.082,22.303,7.57c2.972,0.524,6.288,1.107,10.355,1.979c13.986-16.736,17.216-22.264,17.322-36.291
				c-17.904-39.434,28.118-89.218,55.679-119.031c4.39-4.749,8.181-8.85,11.005-12.168l1.159-1.364l1.77,0.264
				c1.576,0.236,38.825,6.195,57.75,43.216c5.536,10.832-7.159,26.728-20.6,43.557c-10.736,13.442-22.905,28.679-20.234,36.164
				c4.449,12.47,38.675,34.967,71.808,47.2l2.994,1.106l-1.078,3.005c-0.385,1.073-0.78,2.209-1.19,3.388
				c-2.937,8.443-6.593,18.951-13.052,25.86l-1.844,1.971l-2.264-1.469c-19.788-12.844-77.847-32.365-99.507-39.118
				c-9.078,10.264-36.371,38.942-48.798,46.887L1523.059,1034.187z M1467.308,1003.664c9.391,6.384,40.236,23.285,53.882,24.052
				c11.857-8.073,38.872-36.109,47.965-46.719l1.374-1.603l2.018,0.62c20.739,6.371,77.684,25.335,100.697,38.99
				c4.556-5.964,7.539-14.538,9.987-21.575c0.053-0.154,0.107-0.307,0.16-0.459c-31.282-12.102-67.163-34.501-72.677-49.958
				c-3.877-10.865,8.337-26.159,21.268-42.349c11.034-13.816,23.541-29.475,19.898-36.604
				c-15.23-29.793-44.005-37.847-51.269-39.442c-2.726,3.124-6.11,6.785-9.947,10.935c-24.866,26.9-71.151,76.968-54.275,112.573
				l0.311,0.654v0.727c-0.005,17.818-5.165,24.869-20.085,42.631l-1.259,1.501l-1.911-0.428c-4.819-1.079-8.626-1.751-11.985-2.342
				c-7.859-1.383-13.27-2.336-21.969-6.983c-1.095,1.421-2.149,2.885-3.244,4.406
				C1473.838,995.637,1471.161,999.354,1467.308,1003.664z"/>
		</g>
		<g>
			<g>
				<path fill="#DB2035" d="M1728.797,643.318c-4.884-16.934-26.692-1.268-42.91,7.219c-14.12,7.389-82.54,30.995-108.913,25.371
					c-1.63-4.322-2.738-8.921-3.22-13.736c-2.971-29.716,18.709-56.214,48.425-59.186c26.77-2.677,57.268,11.663,63.968,36.85
					c9.129-4.497,21.267-10.94,33.999-16.162c33.046-13.553,36.051,36.737,2.258,54.957c0,0-18.677-27.648-27.128-33.266"/>
				<path fill="#221F1F" d="M1720.85,684.961l-2.448-3.623c-6.216-9.201-17.293-24.266-23.614-30.159
					c-2.299,1.287-4.495,2.508-6.658,3.64c-14.457,7.565-83.773,31.879-112.162,25.814l-2.582-0.551l-0.931-2.47
					c-1.815-4.81-2.995-9.844-3.507-14.96c-1.565-15.657,3.06-30.985,13.024-43.164c9.964-12.177,24.073-19.745,39.73-21.311
					c25.515-2.542,56.979,10.047,67.241,34.864c0.495-0.249,0.996-0.5,1.503-0.755c7.921-3.986,17.78-8.946,27.87-13.083
					c16.104-6.604,26.187,0.233,30.256,8.834c3.679,7.774,3.49,18.493-0.504,28.669c-4.358,11.106-12.656,20.403-23.366,26.178
					L1720.85,684.961z M1703.594,646.343c7.103,7.4,15.833,19.52,20.212,25.799c16.268-11.01,20.553-30.401,16.026-39.971
					c-3.714-7.854-11.758-6.524-17.852-4.026c-2.785,1.142-5.532,2.339-8.224,3.561c4.171-1.019,8.068-1.107,11.494,0.297
					c4,1.642,6.756,4.998,8.191,9.975l-9.286,2.677c-0.869-3.011-2.109-3.519-2.575-3.711
					C1718.014,639.481,1710.7,642.624,1703.594,646.343z M1580.601,671.616c25.567,3.178,86.176-16.882,102.348-25.004l-1.472-5.533
					c-4.88-18.348-28.748-36.299-58.816-33.283c-13.087,1.307-24.882,7.634-33.211,17.814s-12.195,22.994-10.886,36.08
					C1578.901,665.061,1579.584,668.388,1580.601,671.616z"/>
			</g>
			<g>
				
					<ellipse transform="matrix(-0.995 0.0995 -0.0995 -0.995 3193.7727 1314.218)" fill="#FCE2CC" cx="1564.113" cy="736.755" rx="23.959" ry="26.375"/>
				<path fill="#221F1F" d="M1564.63,767.11c-14.296,0.002-26.714-11.858-28.289-27.597c-0.801-8.01,1.295-15.843,5.899-22.056
					c4.693-6.332,11.413-10.233,18.926-10.983c15.343-1.545,29.206,10.787,30.875,27.469c0.801,8.009-1.295,15.841-5.899,22.056
					c-4.693,6.33-11.413,10.231-18.926,10.982C1566.349,767.068,1565.485,767.11,1564.63,767.11z M1563.753,714.399
					c-0.591,0-1.187,0.028-1.786,0.088c-5.224,0.522-9.932,3.28-13.255,7.765c-3.411,4.601-4.958,10.447-4.356,16.459
					c1.226,12.264,11.126,21.348,22.059,20.257c5.224-0.522,9.932-3.28,13.255-7.765c3.411-4.601,4.958-10.447,4.356-16.458l0,0
					C1582.867,723.154,1573.961,714.399,1563.753,714.399z"/>
			</g>
			<g>
				<path fill="#24A0DA" d="M1687.295,643.22c0,0,27.85,26.625,31.219,32.859s14.101-22.821,14.101-22.821l-2.023-20.236
					l-24.163,1.202L1687.295,643.22z"/>
				<path fill="#221F1F" d="M1719.686,678.566c-0.695,0-1.8-0.263-2.589-1.721c-2.665-4.932-23.22-25.103-30.915-32.461
					l-1.697-1.622l21.546-10.132l26.012-1.293l2.213,22.13l-0.129,0.349c-3.362,9.102-9.683,24.419-14.247,24.743
					C1719.819,678.564,1719.755,678.566,1719.686,678.566z M1690.1,643.681c6.125,5.91,26.599,25.86,29.779,31.536
					c2.271-1.465,7.419-12.283,11.097-22.169l-1.833-18.341l-22.315,1.111L1690.1,643.681z"/>
			</g>
			<g>
				
					<ellipse transform="matrix(-0.995 0.0995 -0.0995 -0.995 3360.395 1289.0229)" fill="#FCE2CC" cx="1648.052" cy="728.312" rx="84.877" ry="96.915"/>
				<path fill="#221F1F" d="M1650.212,829.129c-20.944,0.002-41.188-8.268-57.734-23.739c-18.487-17.287-30.14-41.529-32.814-68.261
					c-5.538-55.387,29.643-104.418,78.425-109.296c23.728-2.375,47.064,5.916,65.7,23.341c18.487,17.287,30.14,41.529,32.814,68.261
					l0,0c2.673,26.733-3.949,52.804-18.648,73.41c-14.815,20.769-36.044,33.515-59.777,35.887
					C1655.516,828.997,1652.857,829.129,1650.212,829.129z M1646.026,635.49c-2.372,0-4.75,0.118-7.136,0.356
					c-44.362,4.438-76.308,49.513-71.211,100.481c2.478,24.789,13.239,47.227,30.3,63.181c16.915,15.816,38.006,23.341,59.397,21.21
					c21.388-2.139,40.574-13.698,54.021-32.552c13.564-19.015,19.669-43.14,17.19-67.929l0,0
					c-2.478-24.789-13.239-47.227-30.3-63.181C1683.259,643.003,1664.928,635.49,1646.026,635.49z"/>
			</g>
			
				<ellipse transform="matrix(-0.995 0.0995 -0.0995 -0.995 3308.1841 1267.6001)" fill="#221F1F" cx="1622.481" cy="716.299" rx="7.651" ry="11.276"/>
			
				<ellipse transform="matrix(-0.995 0.0995 -0.0995 -0.995 3437.0417 1248.1948)" fill="#221F1F" cx="1687.394" cy="709.81" rx="7.651" ry="11.276"/>
			<path fill="#221F1F" d="M1696.686,655.065c-2.335,12.068-10.869,22.763-22.117,27.719c4.442-3.663,6.962-9.539,6.554-15.282
				c-8.698,11.543-23.992,19.235-38.445,19.391c3.52-1.968,5.406-6.466,5.916-10.466c-14.961,8.067-31.429,13.327-48.296,15.428
				c-8.822,13.113-14.105,28.445-14.081,44.249c-6.125,1.219-12.829,4.628-17.907,8.263c-6.195-13.898-4.43-30.071-1.033-44.904
				c1.386-6.053,3.019-12.238,6.711-17.23c5.151-6.965,13.561-10.642,21.745-13.482c29.81-10.343,61.552-13.548,92.328-20.511
				c1.078-0.244,2.276-0.476,3.232,0.078c0.53,0.307,0.906,0.816,1.266,1.312c1.211,1.664,2.422,3.329,3.634,4.993"/>
			<path fill="#221F1F" d="M1660.784,789.286c-27.488,0-46.68-19.513-46.954-19.797c-0.923-0.961-0.893-2.489,0.068-3.414
				c0.96-0.927,2.489-0.897,3.415,0.065c1.494,1.548,37.053,37.529,80.676,4.713c1.068-0.802,2.581-0.588,3.384,0.48
				c0.802,1.067,0.588,2.581-0.478,3.384C1686.526,785.522,1672.853,789.286,1660.784,789.286z"/>
			<path fill="#221F1F" d="M1679.779,752.691c-1.328,0-2.408-1.071-2.416-2.401c-0.008-1.336,1.067-2.424,2.401-2.432
				c10.467-0.065,15.948-3.226,18.409-5.281c-11.845-8.709-17.617-27.199-17.873-28.034c-0.391-1.276,0.326-2.627,1.602-3.017
				c1.273-0.392,2.626,0.326,3.018,1.601c0.061,0.2,6.295,20.121,18.175,26.9c0.566,0.323,0.978,0.86,1.141,1.491
				c0.164,0.629,0.066,1.299-0.271,1.858c-0.227,0.376-5.774,9.199-24.172,9.314
				C1679.789,752.691,1679.783,752.691,1679.779,752.691z"/>
			<g>
				<path fill="#24A0DA" d="M1728.797,643.318c-4.884-16.934-26.692-1.268-42.91,7.219c-14.12,7.389-82.54,30.995-108.913,25.371
					c-1.63-4.322-2.738-8.921-3.22-13.736c-2.971-29.716,18.709-56.214,48.425-59.186c26.77-2.677,57.268,11.663,63.968,36.85
					c9.129-4.497,21.267-10.94,33.999-16.162c33.046-13.553,36.051,36.737,2.258,54.957c0,0-18.677-27.648-27.128-33.266"/>
				<path fill="#221F1F" d="M1721.887,680.742l-0.816-1.208c-0.179-0.264-17.467-25.783-25.902-32.262
					c-0.317,0.178-0.633,0.356-0.948,0.532c-2.648,1.483-5.15,2.887-7.586,4.161c-13.767,7.205-82.843,31.322-109.996,25.519
					l-0.86-0.182l-0.311-0.823c-1.716-4.549-2.832-9.308-3.315-14.145c-1.48-14.8,2.892-29.291,12.311-40.803
					s22.757-18.666,37.557-20.145c25.423-2.537,57.01,10.555,65.135,36.156c1.509-0.752,3.092-1.548,4.737-2.375
					c7.872-3.961,17.669-8.89,27.644-12.98c11.906-4.88,21.672-2.18,26.122,7.23c6.852,14.485-1.31,39.215-22.487,50.634
					L1721.887,680.742z M1698.189,645.591c8.076,6.999,21.248,25.863,24.717,30.916c20.204-11.69,25.242-34.29,19.838-45.714
					c-3.687-7.795-11.699-9.844-21.987-5.628c-9.86,4.044-19.188,8.737-27.418,12.879c-2.29,1.151-4.459,2.243-6.48,3.239
					l-1.763,0.868l-0.505-1.9c-6.704-25.202-37.545-38.133-62.25-35.66c-13.944,1.394-26.51,8.134-35.384,18.979
					c-8.874,10.846-12.993,24.498-11.598,38.441c0.426,4.263,1.373,8.46,2.816,12.492c26.601,4.842,94.009-18.613,106.967-25.393
					c2.396-1.254,4.878-2.646,7.506-4.118c11.589-6.494,23.569-13.212,31.38-10.006c3.044,1.249,5.17,3.903,6.319,7.886
					l-3.096,0.893c-0.875-3.033-2.329-4.93-4.447-5.8C1717.23,635.676,1707.507,640.453,1698.189,645.591z"/>
			</g>
			<g>
				<path fill="#DB2035" d="M1651.389,653.873c0,0,21.968-5.684,37.143-15.499"/>
				<path fill="#221F1F" d="M1651.793,655.432l-0.807-3.118c0.217-0.057,21.898-5.737,36.672-15.294l1.749,2.706
					C1674.188,649.571,1652.7,655.198,1651.793,655.432z"/>
			</g>
		</g>
		<g>
			<g>
				<path fill="#FCE2CC" d="M1667.728,846.733c0,0,73.157,25.35,81.982,27.141c0,0,12.922-23.228,23.372-21.597
					c10.45,1.631-5.487,16.773-5.487,16.773l30.328-8.179c0,0,6.082,22.551-43.39,30.889s-111.243-7.634-111.243-7.634
					L1667.728,846.733z"/>
				<path fill="#221F1F" d="M1722.652,898.221c-40.354,0-78.356-9.676-80.369-10.197c-1.256-0.324-2.279-1.233-2.747-2.445
					c-0.468-1.21-0.325-2.57,0.385-3.656l24.437-37.392c1.01-1.548,2.944-2.205,4.689-1.603
					c18.563,6.432,65.525,22.52,78.721,26.288c4.33-7.109,15.115-22.616,25.935-20.917c4.629,0.722,6.144,3.469,6.635,5.043
					c0.82,2.629-0.108,5.665-1.74,8.57l18.277-4.93c1.03-0.277,2.131-0.134,3.057,0.398s1.602,1.411,1.88,2.441
					c0.193,0.714,1.737,7.186-3.165,14.831c-6.563,10.234-21.179,17.326-43.443,21.078
					C1744.624,897.514,1733.551,898.221,1722.652,898.221z M1649.806,881.519c16.108,3.583,64.469,12.942,104.058,6.27
					c24.513-4.131,34.096-11.636,37.819-17.205c1.081-1.617,1.701-3.123,2.048-4.412l-25.087,6.767
					c-1.775,0.474-3.654-0.31-4.558-1.916c-0.903-1.606-0.6-3.62,0.734-4.891c3.528-3.36,6.884-7.757,7.633-9.879
					c-3.097-0.43-11.333,5.424-19.225,19.58c-0.853,1.529-2.598,2.331-4.319,1.987c-8.053-1.634-65.529-21.419-79.528-26.255
					L1649.806,881.519z"/>
			</g>
			<g>
				<path fill="#FFFFFF" d="M1648.362,891.441c0,0,20.44-25.693,19.964-51.921c-22.63-12.287-54.883-12.653-64.988,0.422
					C1596.026,849.402,1593.091,865.388,1648.362,891.441z"/>
				<path fill="#221F1F" d="M1649.296,895.443l-2.307-1.087c-30.875-14.554-47.333-27.653-50.316-40.044
					c-1.36-5.652-0.013-10.997,4.116-16.34c11.893-15.388,46.898-13.326,69.075-1.284l1.65,0.897l0.034,1.877
					c0.492,27.074-19.8,52.9-20.665,53.985L1649.296,895.443z M1631.131,833.509c-11.246,0-20.908,2.792-25.244,8.402
					c-2.898,3.75-3.835,7.211-2.949,10.892c1.653,6.873,10.756,18.399,44.416,34.589c4.468-6.258,17.309-25.932,17.748-45.925
					C1654.598,836.172,1642.109,833.509,1631.131,833.509z"/>
			</g>
			<g>
				<path fill="#FFFFFF" d="M1649.604,832.831c0,0-14.133,42.262-21.919,48.229"/>
				<path fill="#221F1F" d="M1629.645,883.618l-3.919-5.116c5.102-3.909,15.48-30.714,20.823-46.694l6.111,2.045
					C1650.248,841.066,1637.801,877.366,1629.645,883.618z"/>
			</g>
		</g>
		<path fill="#221F1F" d="M1573.46,987.043c-27.885-9.199-42.099-30.875-42.69-31.794l5.415-3.492
			c0.133,0.206,13.646,20.706,39.293,29.167L1573.46,987.043z"/>
		<g>
			<path fill="#68331C" d="M1621.946,924.044l-87.673-16.605c0,0-7.928,15.836-7.238,21.925l86.642,16.637
				C1613.677,946.001,1620.005,933.174,1621.946,924.044z"/>
			<path fill="#221F1F" d="M1615.48,949.627l-91.378-17.548l-0.267-2.353c-0.76-6.7,6.163-20.943,7.558-23.73l1.089-2.176
				l93.301,17.67l-0.685,3.223c-2.002,9.417-8.265,22.173-8.531,22.711L1615.48,949.627z M1530.391,926.726l81.443,15.64
				c1.549-3.352,4.45-9.951,6.147-15.794l-81.882-15.509C1533.718,916.135,1531.093,922.743,1530.391,926.726z"/>
		</g>
		<g>
			<g>
				<path fill="#68331C" d="M1521.888,948.924l-8.987-8.643c-5.109-4.913-5.268-13.113-0.355-18.221l15.912-16.545
					c4.913-5.108,13.113-5.268,18.221-0.355l8.987,8.643c5.109,4.913,5.268,13.113,0.355,18.221l-15.912,16.544
					C1535.196,953.678,1526.996,953.837,1521.888,948.924z"/>
				<path fill="#221F1F" d="M1530.81,955.729c-4.192,0-8.142-1.586-11.156-4.483l-8.986-8.643
					c-6.402-6.159-6.601-16.376-0.444-22.777l15.912-16.546c2.973-3.09,6.985-4.839,11.296-4.922c4.326-0.098,8.39,1.507,11.48,4.48
					l8.986,8.643c3.091,2.972,4.84,6.984,4.924,11.296s-1.507,8.389-4.479,11.48l-15.913,16.544
					c-2.972,3.091-6.984,4.839-11.296,4.924C1531.026,955.728,1530.918,955.729,1530.81,955.729z M1524.12,946.602
					c1.852,1.781,4.282,2.651,6.889,2.682c2.591-0.052,4.998-1.098,6.777-2.948l15.913-16.546c1.779-1.85,2.732-4.296,2.681-6.887
					s-1.098-4.999-2.948-6.778l-8.987-8.643c-1.85-1.779-4.257-2.748-6.888-2.682c-2.591,0.05-4.999,1.098-6.778,2.948
					l-15.912,16.546c-3.694,3.84-3.574,9.97,0.267,13.665L1524.12,946.602z"/>
			</g>
			<circle fill="#221F1F" cx="1540.893" cy="920.169" r="5.259"/>
			
				<rect x="1515.607" y="925.003" transform="matrix(0.7208 0.6932 -0.6932 0.7208 1070.8438 -805.096)" fill="#221F1F" width="38.247" height="3.222"/>
		</g>
		<rect x="1438.226" y="683.21" fill="#A5A7AA" width="107.926" height="4.833"/>
		<rect x="1423.874" y="889.024" fill="#A5A7AA" width="107.926" height="4.833"/>
		<rect x="1473.03" y="816.373" fill="#A5A7AA" width="107.926" height="4.833"/>
	</g>
	<polygon fill="#B88F78" points="1763.461,850.166 1750.964,759.059 1750.98,759.056 1745.989,722.787 1835.439,710.518 
		1857.842,873.845 1768.392,886.115 	"/>
	<g>
		<path fill="#714121" d="M1836.069,824.977c-20.835,2.858-41.668,5.716-62.504,8.573c-2.802-20.429-5.604-40.852-8.405-61.276
			c20.331-3.297,41.728-5.801,62.475-8.786C1830.447,783.988,1833.257,804.479,1836.069,824.977z M1824.565,766.963
			c-18.664,2.56-37.32,5.119-55.97,7.677c2.667,18.405,4.836,37.457,7.827,55.461c18.631-2.704,37.928-4.906,56.165-7.921
			c-2.499-18.217-4.996-36.423-7.494-54.636C1825.048,767.182,1824.849,767.014,1824.565,766.963z"/>
		<path fill="#714121" d="M1816.099,779.694c-1.962,0.269-3.92,0.538-5.879,0.806c0.841,1.507,1.869,2.799,2.978,3.959
			c-0.171,0.633-0.983,0.796-1.62,1.095c0.995,1.393,1.962,2.836,3.387,3.683C1815.716,786.448,1816.653,782.811,1816.099,779.694z"
			/>
		<path fill="#714121" d="M1781.261,784.473c2.574,10.117,8.219,16.249,18.073,16.942c0.558,4.071,1.117,8.145,1.675,12.211
			c-2.111,0.803-5.281,0.801-7.813,1.294c0.138,1.005,0.275,2.005,0.412,3.004c6.542-0.897,13.07-1.793,19.604-2.689
			c-0.137-1-0.274-1.999-0.412-3.004c-2.616,0.359-5.224,0.717-7.838,1.075c-0.558-4.068-1.117-8.142-1.675-12.211
			c5.115-2.071,8.807-5.218,10.637-9.746c-1.953-1.851-3.446-4.29-5.491-6.03c0.252-0.641,1.038-0.897,1.853-1.119
			c-0.775-1.269-1.612-2.45-2.679-3.341C1798.823,782.064,1790.04,783.269,1781.261,784.473z"/>
	</g>
</g>
<g id="Layer_11">
	<path fill="none" stroke="#FF0000" stroke-width="8" stroke-miterlimit="10" d="M1085.885,822.681
		c54.403,18.393,113.308-10.745,131.702-65.148"/>
	<polyline fill="none" stroke="#FF0000" stroke-width="8" stroke-miterlimit="10" points="1182.907,765.944 1233,738.399 
		1230.334,806.668 	"/>
</g>
</svg>
